<svg xmlns="http://www.w3.org/2000/svg" xmlns:xlink="http://www.w3.org/1999/xlink" viewBox="0 0 430.64 391.59"><defs><style>.cls-1{fill:none;}.cls-2{isolation:isolate;}.cls-3{opacity:0.2;}.cls-4{fill:#d9eeff;}.cls-5{fill:#1bbc9d;}.cls-6{fill:#fff;}.cls-7{fill:#27debf;}.cls-8{fill:#c1e4ff;}.cls-9{fill:#2460da;}.cls-10{fill:#2343ba;}.cls-11{fill:#4c9fff;}.cls-12{clip-path:url(#clip-path);}.cls-13{fill:#002176;}.cls-14{fill:#f28f8f;}.cls-15{fill:#ffdb4c;}.cls-16{fill:#ffa8a7;}.cls-17{fill:#ffc000;}.cls-18{fill:#abd5fd;}.cls-19{opacity:0.5;mix-blend-mode:multiply;}.cls-20{fill:#281600;}.cls-21{fill:#805f35;}</style><clipPath id="clip-path"><path class="cls-1" d="M142.4,83.65c-11.21,6.33-20.31,22.08-20.31,35.18s9.1,18.48,20.31,12,20.31-22.23,20.31-35.18S153.62,77.33,142.4,83.65Z"/></clipPath></defs><title>contact</title><g class="cls-2"><g id="Layer_2" data-name="Layer 2"><g id="Objects"><g id="_Group_" data-name="&lt;Group&gt;"><g id="_Group_2" data-name="&lt;Group&gt;" class="cls-3"><path class="cls-4" d="M63.07,358.65c84.08,43.92,220.41,43.92,304.5,0s84.09-115.15,0-159.08-220.42-43.93-304.51,0S-21,314.72,63.07,358.65Z"/></g><g id="_Group_3" data-name="&lt;Group&gt;"><g id="_Group_4" data-name="&lt;Group&gt;"><g id="_Group_5" data-name="&lt;Group&gt;"><path class="cls-5" d="M109.91,276c-2-10.56-9.33-25.61-18.25-34-8.59-8.06-21.34-10.87-26.42-7.16s-1.75,11.77,8.11,21.56c11.12,11.06,32.5,41.72,36.56,59.09Z"/></g><g id="_Group_6" data-name="&lt;Group&gt;"><path class="cls-6" d="M109.91,301.44a.5.5,0,0,1-.5-.46c-2.52-26.6-21.12-56.51-39-62.73a.5.5,0,0,1,.33-.95c18.54,6.45,37.08,36.17,39.69,63.59a.5.5,0,0,1-.45.54Z"/></g></g><g id="_Group_7" data-name="&lt;Group&gt;"><g id="_Group_8" data-name="&lt;Group&gt;"><path class="cls-7" d="M109.91,328.28s-3.46,2.77-15,1.69-17.49-9.34-17.49-12.88S88,313,90.32,304.17a15.35,15.35,0,0,1-8.85,4.69c-6,1.13-10.81-.79-12.18-11.73a19.43,19.43,0,0,0,8.82-.73c4.75-1.52,5.88-4.13,4.64-4.69s-7.86.05-12.1-1.61-1-23.69,1.78-25.27S88.36,267,90.92,269c2.28,1.76,5.47,4.81,4,11.26a16.17,16.17,0,0,0,4-5.88c1.24-3,2.13-2.3,4-1.16a9,9,0,0,1,4.39,6c.44,2.8-.28,12.46-4.22,15.6,0,0,3.78.48,6.87-5.9,0,0,6,2.42,7.35,6.34S120.17,318.33,109.91,328.28Z"/></g><g id="_Group_9" data-name="&lt;Group&gt;"><path class="cls-6" d="M110.92,330.47a.5.5,0,0,1-.49-.44c-2.64-21.61-19.07-50-35.18-60.67a.5.5,0,0,1-.14-.69.51.51,0,0,1,.7-.14c16.3,10.85,33,39.53,35.61,61.38a.5.5,0,0,1-.44.55Z"/></g></g><g id="_Group_10" data-name="&lt;Group&gt;"><g id="_Group_11" data-name="&lt;Group&gt;"><path class="cls-8" d="M111.94,333.49a4.66,4.66,0,0,1-2-3.68V90.91a4.8,4.8,0,0,1,2.16-3.75L262.1.54a4.68,4.68,0,0,1,4.2-.08,4.66,4.66,0,0,1,2,3.68V243a4.78,4.78,0,0,1-2.17,3.75l-150,86.62A4.68,4.68,0,0,1,111.94,333.49Z"/></g><g id="_Group_12" data-name="&lt;Group&gt;"><path class="cls-9" d="M114,95.45,174.9,55.58l-4.06-2.35L112.07,87.16a4.8,4.8,0,0,0-2.16,3.75V93.1Z"/></g><g id="_Group_13" data-name="&lt;Group&gt;"><path class="cls-10" d="M134.28,102.48l-23.74-13.7a4.4,4.4,0,0,0-.63,2.13v238.9a4.07,4.07,0,0,0,6.23,3.6l18.14-10.48Z"/></g><g id="_Group_14" data-name="&lt;Group&gt;"><path class="cls-11" d="M116.14,333.41l150-86.62a4.78,4.78,0,0,0,2.17-3.75V4.14c0-1.38-1-1.94-2.17-1.25l-150,86.61A4.81,4.81,0,0,0,114,93.25V332.16C114,333.54,114.94,334.1,116.14,333.41Z"/></g><g id="_Group_15" data-name="&lt;Group&gt;"><path class="cls-4" d="M142.4,83.65c-11.21,6.33-20.31,22.08-20.31,35.18s9.1,18.48,20.31,12,20.31-22.23,20.31-35.18S153.62,77.33,142.4,83.65Z"/></g><g id="_Clip_Group_" data-name="&lt;Clip Group&gt;"><g class="cls-12"><g id="_Group_16" data-name="&lt;Group&gt;"><g id="_Group_17" data-name="&lt;Group&gt;"><g id="_Group_18" data-name="&lt;Group&gt;"><g id="_Group_19" data-name="&lt;Group&gt;"><g id="_Group_20" data-name="&lt;Group&gt;"><path class="cls-13" d="M152.24,124,136,128.39a1.77,1.77,0,0,1-2.31-1.86V98.85c0-4.54,3.43-9.14,7.66-10.27l5.55-1.49c4.24-1.13,7.67,1.63,7.67,6.16v27.68A3.35,3.35,0,0,1,152.24,124Z"/></g></g><g id="_Group_21" data-name="&lt;Group&gt;"><path class="cls-14" d="M153,131.19l-1.75-7.55s0-10.19-1.46-11.13a21.32,21.32,0,0,0-1.86-1.12c1.86-.64,5.78-1.13,7,2.46,1.17,3.37,2.92,11.71,3.75,15.81Z"/></g><g id="_Group_22" data-name="&lt;Group&gt;"><path class="cls-9" d="M152.89,131.23l-5.8-19.75c2.57-1,5.86-1.83,7.47.82,1.44,2.38,3.74,14.84,4.19,17.36Z"/></g><g id="_Group_23" data-name="&lt;Group&gt;"><path class="cls-10" d="M153.67,131l-5.7,1.53a12.61,12.61,0,0,1,1.59-4.65,9.34,9.34,0,0,1,4.67-3.52A33.9,33.9,0,0,0,153.67,131Z"/></g><g id="_Group_24" data-name="&lt;Group&gt;"><g id="_Group_25" data-name="&lt;Group&gt;"><path class="cls-15" d="M152.44,131.35l-15.95,4.27-1.77-5.46s4.67-10.93-1.09-13.73c.73-.55,6.88-3,6.88-3l6.61-2c1.26-.34,6.35,1.92,7.64,6.92.46,1.78.3,3.36-2.29,12.58Z"/></g></g><g id="_Group_26" data-name="&lt;Group&gt;"><g id="_Group_27" data-name="&lt;Group&gt;"><path class="cls-16" d="M151.13,90.48c1.1.41,2.46,3,2.33,9.28-.12,5.31-1.71,7-2.52,7.64a8.55,8.55,0,0,1-3.85.91v3.17s2.08,2,1.95,3.52-3,2.6-4.95,1.7a11.18,11.18,0,0,1-3.58-3.23l0-7.29a1.68,1.68,0,0,1-2.38.15,2.83,2.83,0,0,1-.69-4c1-1.31,2.75-1.51,3.43-.19a9.87,9.87,0,0,1,4.3-4.85C148.33,95.37,150,93.65,151.13,90.48Z"/></g></g><g id="_Group_28" data-name="&lt;Group&gt;"><g id="_Group_29" data-name="&lt;Group&gt;"><path class="cls-13" d="M148,99.91a.93.93,0,0,1-.59.88.49.49,0,0,1-.65-.49.9.9,0,0,1,.59-.87A.48.48,0,0,1,148,99.91Z"/></g></g><g id="_Group_30" data-name="&lt;Group&gt;"><g id="_Group_31" data-name="&lt;Group&gt;"><path class="cls-14" d="M148.12,104.34l1.44.11a1,1,0,0,1-.93.8C148.23,105.22,148,104.82,148.12,104.34Z"/></g></g><g id="_Group_32" data-name="&lt;Group&gt;"><g id="_Group_33" data-name="&lt;Group&gt;"><path class="cls-13" d="M153,96.51l-1.26-.6a.85.85,0,0,1,1-.5A.78.78,0,0,1,153,96.51Z"/></g></g><g id="_Group_34" data-name="&lt;Group&gt;"><g id="_Group_35" data-name="&lt;Group&gt;"><path class="cls-13" d="M146.15,98.85l1.26-1.27a.67.67,0,0,0-1,0A1,1,0,0,0,146.15,98.85Z"/></g></g><g id="_Group_36" data-name="&lt;Group&gt;"><g id="_Group_37" data-name="&lt;Group&gt;"><path class="cls-13" d="M152.75,98.15a.91.91,0,0,1-.59.87.48.48,0,0,1-.65-.48.92.92,0,0,1,.59-.88A.49.49,0,0,1,152.75,98.15Z"/></g></g><g id="_Group_38" data-name="&lt;Group&gt;"><g id="_Group_39" data-name="&lt;Group&gt;"><polygon class="cls-14" points="149.82 98.55 149.92 102.52 151.89 101.34 149.82 98.55"/></g></g><g id="_Group_40" data-name="&lt;Group&gt;"><g id="_Group_41" data-name="&lt;Group&gt;"><path class="cls-14" d="M147.09,108.31c-1.58.2-4.84.07-5.35-1.17a2.54,2.54,0,0,0,1.14,1.45c1,.64,4.21.78,4.21.78Z"/></g></g><g id="_Group_42" data-name="&lt;Group&gt;"><g id="_Group_43" data-name="&lt;Group&gt;"><polygon class="cls-17" points="136.54 135.61 135.87 133.23 137.63 135.31 136.54 135.61"/></g></g></g></g><g id="_Group_44" data-name="&lt;Group&gt;"><path class="cls-9" d="M135.23,136a69.82,69.82,0,0,0-2.93-10.06c-1.68-4.61.2-8.59,1.33-9.47s6.88-3,6.88-3c2.08,5.93,2.65,13.86,2.7,20.35Z"/></g><g id="_Group_45" data-name="&lt;Group&gt;"><path class="cls-9" d="M132.39,136.72l-5.71,1.53a3,3,0,0,1-.45-.37s2.7-10.41,3.56-13.88,1.52-5.83,3.84-7.57c4.17,2.71,2.24,10.24,2.24,10.24Z"/></g></g></g></g><g id="_Group_46" data-name="&lt;Group&gt;"><path class="cls-18" d="M126.42,148.44l36-20.8c2.39-1.38,4.33-.4,4.33,2.19a9.29,9.29,0,0,1-4.33,7.19l-36,20.8c-2.39,1.38-4.33.4-4.33-2.19A9.29,9.29,0,0,1,126.42,148.44Z"/></g><g id="_Group_47" data-name="&lt;Group&gt;"><path class="cls-18" d="M126.42,163.2l23.84-13.77c2.39-1.38,4.33-.4,4.33,2.19a9.29,9.29,0,0,1-4.33,7.19l-23.84,13.77c-2.39,1.38-4.33.4-4.33-2.19A9.29,9.29,0,0,1,126.42,163.2Z"/></g><g id="_Group_48" data-name="&lt;Group&gt;"><g id="_Group_49" data-name="&lt;Group&gt;"><path class="cls-9" d="M123.83,188.46l4.66-2.69c.95-.55,1.73-.1,1.73,1v5.38a3.83,3.83,0,0,1-1.73,3l-4.66,2.69c-1,.55-1.74.11-1.74-1v-5.38A3.83,3.83,0,0,1,123.83,188.46Z"/></g><g id="_Group_50" data-name="&lt;Group&gt;"><path class="cls-10" d="M136.45,183.52l28.16-16.26c1.2-.69,2.17-.2,2.17,1.09a4.64,4.64,0,0,1-2.17,3.6l-28.16,16.26c-1.2.69-2.17.2-2.17-1.09A4.64,4.64,0,0,1,136.45,183.52Z"/></g></g><g id="_Group_51" data-name="&lt;Group&gt;"><g id="_Group_52" data-name="&lt;Group&gt;"><path class="cls-9" d="M123.83,207.22l4.66-2.69c.95-.55,1.73-.1,1.73,1v5.38a3.83,3.83,0,0,1-1.73,3l-4.66,2.69c-1,.56-1.74.11-1.74-1v-5.38A3.85,3.85,0,0,1,123.83,207.22Z"/></g><g id="_Group_53" data-name="&lt;Group&gt;"><path class="cls-10" d="M136.45,202.28,164.61,186c1.2-.69,2.17-.2,2.17,1.1a4.64,4.64,0,0,1-2.17,3.59L136.45,207c-1.2.69-2.17.2-2.17-1.09A4.64,4.64,0,0,1,136.45,202.28Z"/></g></g><g id="_Group_54" data-name="&lt;Group&gt;"><g id="_Group_55" data-name="&lt;Group&gt;"><path class="cls-9" d="M123.83,226l4.66-2.69c.95-.55,1.73-.1,1.73,1v5.38a3.83,3.83,0,0,1-1.73,3l-4.66,2.7c-1,.55-1.74.1-1.74-1V229A3.85,3.85,0,0,1,123.83,226Z"/></g><g id="_Group_56" data-name="&lt;Group&gt;"><path class="cls-10" d="M136.45,221l28.16-16.26c1.2-.69,2.17-.2,2.17,1.1a4.64,4.64,0,0,1-2.17,3.59l-28.16,16.26c-1.2.69-2.17.2-2.17-1.09A4.64,4.64,0,0,1,136.45,221Z"/></g></g><g id="_Group_57" data-name="&lt;Group&gt;"><g id="_Group_58" data-name="&lt;Group&gt;"><path class="cls-9" d="M123.83,244.8l4.66-2.7c.95-.55,1.73-.1,1.73,1v5.39a3.86,3.86,0,0,1-1.73,3l-4.66,2.69c-1,.55-1.74.1-1.74-1V247.8A3.82,3.82,0,0,1,123.83,244.8Z"/></g><g id="_Group_59" data-name="&lt;Group&gt;"><path class="cls-10" d="M136.45,239.85l28.16-16.26c1.2-.69,2.17-.2,2.17,1.1a4.64,4.64,0,0,1-2.17,3.59l-28.16,16.26c-1.2.7-2.17.2-2.17-1.09A4.64,4.64,0,0,1,136.45,239.85Z"/></g></g><g id="_Group_60" data-name="&lt;Group&gt;"><g id="_Group_61" data-name="&lt;Group&gt;"><path class="cls-9" d="M123.83,263.56l4.66-2.7c.95-.55,1.73-.1,1.73,1v5.39a3.86,3.86,0,0,1-1.73,3l-4.66,2.69c-1,.55-1.74.1-1.74-1v-5.38A3.82,3.82,0,0,1,123.83,263.56Z"/></g><g id="_Group_62" data-name="&lt;Group&gt;"><path class="cls-10" d="M136.45,258.61l28.16-16.26c1.2-.69,2.17-.2,2.17,1.1a4.64,4.64,0,0,1-2.17,3.59l-28.16,16.27c-1.2.69-2.17.2-2.17-1.1A4.64,4.64,0,0,1,136.45,258.61Z"/></g></g><g id="_Group_63" data-name="&lt;Group&gt;"><path class="cls-10" d="M124.26,282l20-11.57c1.2-.69,2.17-.2,2.17,1.09a4.64,4.64,0,0,1-2.17,3.6l-20,11.57c-1.2.69-2.17.2-2.17-1.09A4.64,4.64,0,0,1,124.26,282Z"/></g><g id="_Group_64" data-name="&lt;Group&gt;"><path class="cls-4" d="M124.26,291.4l40.35-23.3c1.2-.69,2.17-.2,2.17,1.1a4.64,4.64,0,0,1-2.17,3.59l-40.35,23.3c-1.2.69-2.17.2-2.17-1.09A4.64,4.64,0,0,1,124.26,291.4Z"/></g><g id="_Group_65" data-name="&lt;Group&gt;"><path class="cls-9" d="M124.26,291.4l28.17-16.26c1.19-.69,2.16-.2,2.16,1.09a4.65,4.65,0,0,1-2.16,3.6l-28.17,16.26c-1.2.69-2.17.2-2.17-1.09A4.64,4.64,0,0,1,124.26,291.4Z"/></g><g id="_Group_66" data-name="&lt;Group&gt;"><path class="cls-10" d="M124.26,300.77l20-11.57c1.2-.69,2.17-.2,2.17,1.09a4.64,4.64,0,0,1-2.17,3.6l-20,11.57c-1.2.69-2.17.2-2.17-1.09A4.64,4.64,0,0,1,124.26,300.77Z"/></g><g id="_Group_67" data-name="&lt;Group&gt;"><path class="cls-4" d="M124.26,310.15l40.35-23.3c1.2-.69,2.17-.2,2.17,1.1a4.64,4.64,0,0,1-2.17,3.59l-40.35,23.3c-1.2.69-2.17.2-2.17-1.09A4.64,4.64,0,0,1,124.26,310.15Z"/></g><g id="_Group_68" data-name="&lt;Group&gt;"><path class="cls-9" d="M124.26,310.15l36.29-20.95c1.2-.69,2.17-.2,2.16,1.09a4.63,4.63,0,0,1-2.16,3.6l-36.29,20.95c-1.2.69-2.17.2-2.17-1.09A4.64,4.64,0,0,1,124.26,310.15Z"/></g><g id="_Group_69" data-name="&lt;Group&gt;"><path class="cls-4" d="M266.16,2.89,174.9,55.58v243.9l91.26-52.69a4.78,4.78,0,0,0,2.17-3.75V4.14C268.33,2.76,267.36,2.2,266.16,2.89Z"/></g><g id="_Group_70" data-name="&lt;Group&gt;"><polygon class="cls-9" points="174.9 64.96 174.9 83.72 166.78 93.1 174.9 93.1 174.9 111.86 260.2 62.61 260.2 15.71 174.9 64.96"/></g><g id="_Group_71" data-name="&lt;Group&gt;"><path class="cls-4" d="M186.06,65.61l34.55-20c1.68-1,3-.19,3,1.75v0a6.66,6.66,0,0,1-3,5.25l-34.55,20c-1.68,1-3,.18-3-1.75v0A6.7,6.7,0,0,1,186.06,65.61Z"/></g><g id="_Group_72" data-name="&lt;Group&gt;"><path class="cls-4" d="M184.11,80.75,251,42.13c.59-.34,1.08-.1,1.08.55a2.35,2.35,0,0,1-1.08,1.8L184.11,83.09c-.6.35-1.09.1-1.09-.54A2.32,2.32,0,0,1,184.11,80.75Z"/></g><g id="_Group_73" data-name="&lt;Group&gt;"><path class="cls-4" d="M184.11,87.78,251,49.17c.59-.35,1.08-.1,1.08.54a2.33,2.33,0,0,1-1.08,1.8L184.11,90.13c-.6.35-1.09.1-1.09-.55A2.33,2.33,0,0,1,184.11,87.78Z"/></g><g id="_Group_74" data-name="&lt;Group&gt;"><path class="cls-4" d="M184.11,94.82,251,56.2c.59-.34,1.08-.1,1.08.55a2.35,2.35,0,0,1-1.08,1.8L184.11,97.17c-.6.34-1.09.1-1.09-.55A2.33,2.33,0,0,1,184.11,94.82Z"/></g><g id="_Group_75" data-name="&lt;Group&gt;"><g id="_Group_76" data-name="&lt;Group&gt;"><g id="_Group_77" data-name="&lt;Group&gt;"><path class="cls-9" d="M186.63,114.49l4.66-2.69c1-.55,1.73-.1,1.73,1v5.38a3.83,3.83,0,0,1-1.73,3l-4.66,2.69c-1,.56-1.74.11-1.74-1v-5.38A3.85,3.85,0,0,1,186.63,114.49Z"/></g><g id="_Group_78" data-name="&lt;Group&gt;"><path class="cls-11" d="M199.25,109.55l28.16-16.26c1.2-.69,2.17-.2,2.17,1.1A4.64,4.64,0,0,1,227.41,98l-28.16,16.26c-1.2.69-2.17.2-2.17-1.09A4.64,4.64,0,0,1,199.25,109.55Z"/></g></g><g id="_Group_79" data-name="&lt;Group&gt;"><path class="cls-11" d="M186,131.29l71-41c.6-.34,1.08-.1,1.08.55a2.32,2.32,0,0,1-1.08,1.8l-71,41c-.6.34-1.09.1-1.09-.55A2.33,2.33,0,0,1,186,131.29Z"/></g><g id="_Group_80" data-name="&lt;Group&gt;"><path class="cls-11" d="M186,138.33l71-41c.6-.35,1.08-.1,1.08.55a2.3,2.3,0,0,1-1.08,1.79l-71,41c-.6.35-1.09.1-1.09-.54A2.32,2.32,0,0,1,186,138.33Z"/></g><g id="_Group_81" data-name="&lt;Group&gt;"><path class="cls-11" d="M186,145.37l71-41c.6-.34,1.08-.1,1.08.55a2.32,2.32,0,0,1-1.08,1.8l-71,41c-.6.35-1.09.1-1.09-.55A2.31,2.31,0,0,1,186,145.37Z"/></g><g id="_Group_82" data-name="&lt;Group&gt;"><path class="cls-11" d="M186,152.42l71-41c.6-.35,1.08-.1,1.08.55a2.3,2.3,0,0,1-1.08,1.79l-71,41c-.6.34-1.09.1-1.09-.55A2.33,2.33,0,0,1,186,152.42Z"/></g></g><g id="_Group_83" data-name="&lt;Group&gt;"><g id="_Group_84" data-name="&lt;Group&gt;"><g id="_Group_85" data-name="&lt;Group&gt;"><path class="cls-9" d="M186.63,166.09l4.66-2.69c1-.55,1.73-.11,1.73,1v5.38a3.85,3.85,0,0,1-1.73,3l-4.66,2.69c-1,.55-1.74.1-1.74-1v-5.38A3.82,3.82,0,0,1,186.63,166.09Z"/></g><g id="_Group_86" data-name="&lt;Group&gt;"><path class="cls-11" d="M199.25,161.15l28.16-16.26c1.2-.69,2.17-.2,2.17,1.09a4.64,4.64,0,0,1-2.17,3.6l-28.16,16.26c-1.2.69-2.17.2-2.17-1.1A4.64,4.64,0,0,1,199.25,161.15Z"/></g></g><g id="_Group_87" data-name="&lt;Group&gt;"><path class="cls-11" d="M186,182.89l71-41c.6-.35,1.08-.1,1.08.55a2.3,2.3,0,0,1-1.08,1.79l-71,41c-.6.34-1.09.1-1.09-.55A2.33,2.33,0,0,1,186,182.89Z"/></g><g id="_Group_88" data-name="&lt;Group&gt;"><path class="cls-11" d="M186,189.93l71-41c.6-.34,1.08-.1,1.08.55a2.32,2.32,0,0,1-1.08,1.8l-71,41c-.6.35-1.09.1-1.09-.55A2.31,2.31,0,0,1,186,189.93Z"/></g><g id="_Group_89" data-name="&lt;Group&gt;"><path class="cls-11" d="M186,197l71-41c.6-.35,1.08-.1,1.08.55a2.3,2.3,0,0,1-1.08,1.79l-71,41c-.6.34-1.09.1-1.09-.55A2.33,2.33,0,0,1,186,197Z"/></g><g id="_Group_90" data-name="&lt;Group&gt;"><path class="cls-11" d="M186,204l71-41c.6-.34,1.08-.1,1.08.55a2.32,2.32,0,0,1-1.08,1.8l-71,41c-.6.35-1.09.1-1.09-.55A2.31,2.31,0,0,1,186,204Z"/></g></g><g id="_Group_91" data-name="&lt;Group&gt;"><g id="_Group_92" data-name="&lt;Group&gt;"><g id="_Group_93" data-name="&lt;Group&gt;"><path class="cls-9" d="M186.63,217.68l4.66-2.69c1-.55,1.73-.1,1.73,1v5.38a3.83,3.83,0,0,1-1.73,3l-4.66,2.7c-1,.55-1.74.1-1.74-1v-5.39A3.85,3.85,0,0,1,186.63,217.68Z"/></g><g id="_Group_94" data-name="&lt;Group&gt;"><path class="cls-11" d="M199.25,212.74l28.16-16.26c1.2-.69,2.17-.2,2.17,1.1a4.64,4.64,0,0,1-2.17,3.59l-28.16,16.26c-1.2.69-2.17.2-2.17-1.09A4.64,4.64,0,0,1,199.25,212.74Z"/></g></g><g id="_Group_95" data-name="&lt;Group&gt;"><path class="cls-11" d="M186,234.49l71-41c.6-.34,1.08-.1,1.08.55a2.32,2.32,0,0,1-1.08,1.8l-71,41c-.6.35-1.09.1-1.09-.55A2.31,2.31,0,0,1,186,234.49Z"/></g><g id="_Group_96" data-name="&lt;Group&gt;"><path class="cls-11" d="M186,241.52l71-41c.6-.35,1.08-.1,1.08.55a2.3,2.3,0,0,1-1.08,1.79l-71,41c-.6.34-1.09.1-1.09-.55A2.33,2.33,0,0,1,186,241.52Z"/></g><g id="_Group_97" data-name="&lt;Group&gt;"><path class="cls-11" d="M186,248.56l71-41c.6-.34,1.08-.1,1.08.55a2.32,2.32,0,0,1-1.08,1.8l-71,41c-.6.35-1.09.1-1.09-.55A2.31,2.31,0,0,1,186,248.56Z"/></g><g id="_Group_98" data-name="&lt;Group&gt;"><path class="cls-11" d="M186,255.61l71-41c.6-.34,1.08-.1,1.08.55a2.32,2.32,0,0,1-1.08,1.8l-71,41c-.6.34-1.09.1-1.09-.55A2.33,2.33,0,0,1,186,255.61Z"/></g></g><g id="_Group_99" data-name="&lt;Group&gt;"><g id="_Group_100" data-name="&lt;Group&gt;"><g id="_Group_101" data-name="&lt;Group&gt;"><path class="cls-9" d="M193.26,263.11l4.66-2.69c1-.55,1.73-.1,1.73,1v5.38a3.81,3.81,0,0,1-1.73,3l-4.66,2.69c-.95.55-1.73.11-1.73-1v-5.38A3.85,3.85,0,0,1,193.26,263.11Z"/></g><g id="_Group_102" data-name="&lt;Group&gt;"><path class="cls-11" d="M186,281.39l19.23-11.1c.59-.35,1.08-.1,1.08.55a2.33,2.33,0,0,1-1.08,1.79L186,283.73c-.6.35-1.09.1-1.09-.54A2.32,2.32,0,0,1,186,281.39Z"/></g></g><g id="_Group_103" data-name="&lt;Group&gt;"><g id="_Group_104" data-name="&lt;Group&gt;"><path class="cls-9" d="M219.12,248.17l4.66-2.69c1-.55,1.74-.11,1.74,1v5.38a3.83,3.83,0,0,1-1.74,3l-4.66,2.69c-1,.55-1.73.1-1.73-1v-5.38A3.83,3.83,0,0,1,219.12,248.17Z"/></g><g id="_Group_105" data-name="&lt;Group&gt;"><path class="cls-11" d="M211.84,266.45l19.23-11.1c.6-.35,1.08-.1,1.08.54a2.31,2.31,0,0,1-1.08,1.8l-19.23,11.1c-.6.35-1.08.1-1.08-.55A2.3,2.3,0,0,1,211.84,266.45Z"/></g></g><g id="_Group_106" data-name="&lt;Group&gt;"><g id="_Group_107" data-name="&lt;Group&gt;"><path class="cls-9" d="M245,233.22l4.66-2.69c.95-.55,1.73-.1,1.73,1v5.39a3.86,3.86,0,0,1-1.73,3L245,242.61c-1,.55-1.74.1-1.74-1v-5.39A3.85,3.85,0,0,1,245,233.22Z"/></g><g id="_Group_108" data-name="&lt;Group&gt;"><path class="cls-11" d="M237.7,251.5l19.23-11.1c.6-.34,1.08-.1,1.08.55a2.32,2.32,0,0,1-1.08,1.8l-19.23,11.1c-.6.34-1.08.1-1.08-.55A2.32,2.32,0,0,1,237.7,251.5Z"/></g></g></g></g></g><g id="_Group_109" data-name="&lt;Group&gt;"><g id="_Group_110" data-name="&lt;Group&gt;"><g id="_Group_111" data-name="&lt;Group&gt;"><g id="_Group_112" data-name="&lt;Group&gt;"><polygon class="cls-18" points="341.93 73.83 334.19 69.37 338.45 68.47 342.68 71.43 341.93 73.83"/></g><g id="_Group_113" data-name="&lt;Group&gt;"><g id="_Group_114" data-name="&lt;Group&gt;"><g id="_Group_115" data-name="&lt;Group&gt;"><g id="_Group_116" data-name="&lt;Group&gt;"><path class="cls-18" d="M328.39,34c0-12-7.34-17.57-16.37-12.36l-13.34,7.7c-9,5.21-16.37,19.25-16.37,31.28,0,.5,0,1,0,1.44,0,.27,0,.5,0,.75s0,.47.07.7.06.54.1.8a19.76,19.76,0,0,0,1.06,4.16,13.14,13.14,0,0,0,.67,1.41,4.32,4.32,0,0,0,.38.67,2.53,2.53,0,0,0,.13.22,6.31,6.31,0,0,0,.77,1c.15.18.31.37.48.54l.51.5c.19.14.36.31.54.45a5.23,5.23,0,0,0,.57.39l.6.34a7.46,7.46,0,0,0,2.45.82.65.65,0,0,1,.2,0c.23,0,.44,0,.67,0a5.88,5.88,0,0,0,.73,0,8.44,8.44,0,0,0,1.9-.21,11.27,11.27,0,0,0,1.11-.28v0A15.14,15.14,0,0,0,298.68,73L312,65.32a23.75,23.75,0,0,0,2.62-1.78c0-.16,0-.31,0-.45s0-.48,0-.65c0-.4,0-.81,0-1.23C314.53,50.87,320.69,38.84,328.39,34Z"/></g></g><g id="_Group_117" data-name="&lt;Group&gt;"><path class="cls-18" d="M330.65,25.34l-7.75-4.46c.05,0,.78,5.4.78,5.4l5.76.68Z"/></g><g id="_Group_118" data-name="&lt;Group&gt;"><polygon class="cls-18" points="294.84 77.75 287.67 73.7 291.99 71.84 294.84 77.75"/></g><g id="_Group_119" data-name="&lt;Group&gt;"><path class="cls-18" d="M298.68,73a14.51,14.51,0,0,1-2.74,8.24.41.41,0,0,0,.54.61,14,14,0,0,0,4.26-3.44,21.85,21.85,0,0,0,4.61-9.26Z"/></g><g id="_Group_120" data-name="&lt;Group&gt;"><path class="cls-18" d="M296,81.85l7.75,4.46s4.34-3.67,4.34-11.1l-8.4-.58S299.52,79.47,296,81.85Z"/></g></g><g id="_Group_121" data-name="&lt;Group&gt;"><g id="_Group_122" data-name="&lt;Group&gt;"><g id="_Group_123" data-name="&lt;Group&gt;"><path class="cls-18" d="M316.67,60c0,.37,0,.73,0,1.07s0,.38,0,.57,0,.35,0,.52.05.41.08.6a12.81,12.81,0,0,0,.62,2.61,3.43,3.43,0,0,0,.16.45,3.76,3.76,0,0,0,.25.58c.08.2.17.37.26.55a3.45,3.45,0,0,0,.29.5.74.74,0,0,0,.1.16,9.37,9.37,0,0,0,.57.79,3.57,3.57,0,0,0,.37.4l.38.38a4.35,4.35,0,0,0,.41.34,4,4,0,0,0,.43.29,4.79,4.79,0,0,0,.45.25,2.35,2.35,0,0,0,.45.22l.49.18h0a6.63,6.63,0,0,0,.88.21l.15,0a4.06,4.06,0,0,0,.51,0,2.41,2.41,0,0,0,.54,0,5.79,5.79,0,0,0,1.28-.13,7.71,7.71,0,0,0,1-.22A12.07,12.07,0,0,0,329,69.29l10-5.78a16.75,16.75,0,0,0,2.51-1.79v0c.28-.23.56-.49.84-.75a17.09,17.09,0,0,0,1.43-1.5c.18-.2.36-.4.54-.64s.34-.4.51-.62A1.3,1.3,0,0,1,345,58a26.64,26.64,0,0,0,1.83-2.74l.45-.77c.15-.26.29-.52.43-.79s.27-.54.41-.8l.38-.82c.13-.28.25-.56.36-.83.22-.48.41-1,.58-1.46,0-.09.07-.17.1-.26.1-.28.2-.56.29-.84.18-.55.34-1.08.5-1.64a31,31,0,0,0,.79-4c0-.23.05-.46.07-.68s.05-.4.06-.59,0-.4,0-.6c0-.37,0-.75,0-1.12,0-9-5.51-13.2-12.29-9.29L329,36.5C322.18,40.41,316.67,51,316.67,60Z"/></g></g><g id="_Group_124" data-name="&lt;Group&gt;"><polygon class="cls-18" points="354.83 34.58 347.14 30.16 344.24 32.2 353.21 37.63 354.83 34.58"/></g><g id="_Group_125" data-name="&lt;Group&gt;"><polygon class="cls-18" points="328.43 74.25 320.7 69.8 326.76 67.99 328.43 74.25"/></g><g id="_Group_126" data-name="&lt;Group&gt;"><path class="cls-18" d="M337.45,64.39c0,1.59,2,3.78,4.28,4.19.32,0,.24.74-.13,1a6.93,6.93,0,0,1-4.47.75,5.61,5.61,0,0,1-4.8-3Z"/></g></g></g></g><g id="_Group_127" data-name="&lt;Group&gt;"><g id="_Group_128" data-name="&lt;Group&gt;"><path class="cls-4" d="M319.76,26.09l-13.35,7.7c-9,5.21-16.36,19.25-16.36,31.28,0,.49,0,1,0,1.44,0,.27,0,.5,0,.75s.05.47.08.7l.09.8a20.12,20.12,0,0,0,1.06,4.15,14.42,14.42,0,0,0,.67,1.42,4.32,4.32,0,0,0,.38.67,1.91,1.91,0,0,0,.14.21,5.82,5.82,0,0,0,.76,1.06c.16.17.31.37.49.54l.51.5c.18.13.35.31.54.45s.37.28.57.39l.6.34a7.83,7.83,0,0,0,2.44.83.32.32,0,0,1,.2,0c.23,0,.45.05.67.05a6,6,0,0,0,.73,0,8.92,8.92,0,0,0,1.9-.21,10.83,10.83,0,0,0,1.12-.29v0a15,15,0,0,0,3.34-1.47h0a14.56,14.56,0,0,1-2.73,8.24c-.32.43.17.8.54.61a14.16,14.16,0,0,0,4.26-3.44,21.76,21.76,0,0,0,4.6-9.26l-.95.55,7.63-4.41a20.49,20.49,0,0,0,2.13-1.4c-.06-.26-.1-.51-.14-.77s-.05-.42-.07-.68a5.77,5.77,0,0,1-.07-.67v-.12a4.36,4.36,0,0,1,0-.51c0-.37,0-.77,0-1.17,0-10.13,6-21.53,13.73-26l.84-.49C335.92,26.27,328.66,21,319.76,26.09Z"/></g><g id="_Group_129" data-name="&lt;Group&gt;"><path class="cls-4" d="M346.71,35.17l-10,5.78c-6.77,3.91-12.29,14.45-12.29,23.49,0,.37,0,.73,0,1.07s0,.38,0,.57,0,.35,0,.52,0,.41.07.6a13.68,13.68,0,0,0,.62,2.61c.05.16.1.3.16.45a5.06,5.06,0,0,0,.25.58c.09.2.17.37.27.55a3.1,3.1,0,0,0,.29.5.76.76,0,0,0,.09.16,9.46,9.46,0,0,0,.58.79,3.51,3.51,0,0,0,.36.4l.39.38a6.47,6.47,0,0,0,.83.63l.45.25a2.77,2.77,0,0,0,.46.22,4.68,4.68,0,0,0,.48.18h0a6.77,6.77,0,0,0,.89.21.66.66,0,0,0,.15,0,4,4,0,0,0,.5,0,2.49,2.49,0,0,0,.55,0,5.85,5.85,0,0,0,1.28-.13,7.22,7.22,0,0,0,1-.22,11.84,11.84,0,0,0,2.51-1.11l3.37-1.95a5.61,5.61,0,0,0,4.8,3,7,7,0,0,0,4.48-.75c.36-.23.45-.92.13-1-2.29-.41-4.29-2.6-4.29-4.19l1.53-.88a17.27,17.27,0,0,0,2.51-1.79v0c.28-.23.55-.49.83-.75a17.09,17.09,0,0,0,1.43-1.5c.19-.2.37-.41.55-.64s.33-.4.5-.62l.15-.2a28.45,28.45,0,0,0,1.84-2.74l.45-.77c.15-.26.29-.52.42-.79s.27-.54.41-.8l.39-.82.36-.83c.21-.48.41-1,.58-1.46l.09-.27a8.15,8.15,0,0,0,.29-.83c.18-.55.34-1.08.5-1.65a29,29,0,0,0,.79-4c0-.23.06-.46.08-.68s0-.4.05-.59,0-.4,0-.6c0-.37,0-.75,0-1.12C359,35.43,353.48,31.26,346.71,35.17Z"/></g></g></g><g id="_Group_130" data-name="&lt;Group&gt;"><g id="_Group_131" data-name="&lt;Group&gt;"><g id="_Group_132" data-name="&lt;Group&gt;"><path class="cls-8" d="M49.24,71.13V51.31h0c-.06-3.83,2.44-7.68,7.51-10.61,10-5.78,26.26-5.78,36.28,0,5.07,2.93,7.57,6.78,7.51,10.61h0V71.06c0,3.82-2.46,10.64-7.51,13.56-10,5.78-26.26,5.78-36.28,0-5-2.89-7.5-9.67-7.52-13.45h0Z"/></g></g><g id="_Group_133" data-name="&lt;Group&gt;"><polygon class="cls-4" points="74.9 26.74 117.23 51.18 74.9 75.62 32.57 51.18 74.9 26.74"/></g><g id="_Group_134" data-name="&lt;Group&gt;"><path class="cls-18" d="M53.71,63.39l20.85-11.9a.75.75,0,0,1,1,.28.74.74,0,0,1-.28,1L55.21,64.25Z"/></g><g id="_Group_135" data-name="&lt;Group&gt;"><polygon class="cls-18" points="117.23 51.18 117.23 52.92 74.9 77.36 74.9 75.62 117.23 51.18"/></g><g id="_Group_136" data-name="&lt;Group&gt;"><polygon class="cls-8" points="32.57 51.18 32.57 52.92 74.9 77.36 74.9 75.62 32.57 51.18"/></g><g id="_Group_137" data-name="&lt;Group&gt;"><path class="cls-18" d="M52.66,64.53l1.3.74a2.16,2.16,0,0,1,.79-.77l.44-.26-1.47-.85A3.84,3.84,0,0,0,52.66,64.53Z"/></g><g id="_Group_138" data-name="&lt;Group&gt;" class="cls-19"><path class="cls-18" d="M53.71,63.39l20.85-11.9a.75.75,0,0,1,1,.28.74.74,0,0,1-.28,1L55.21,64.25Z"/></g><g id="_Group_139" data-name="&lt;Group&gt;" class="cls-19"><path class="cls-18" d="M52.66,64.53l1.3.74a2.16,2.16,0,0,1,.79-.77l.44-.26-1.47-.85A3.84,3.84,0,0,0,52.66,64.53Z"/></g><g id="_Group_140" data-name="&lt;Group&gt;"><polygon class="cls-18" points="100.6 62.52 74.9 79.98 49.27 62.56 74.9 77.36 100.6 62.52"/></g><g id="_Group_141" data-name="&lt;Group&gt;" class="cls-19"><polygon class="cls-18" points="100.6 62.52 74.9 79.98 49.27 62.56 74.9 77.36 100.6 62.52"/></g><g id="_Group_142" data-name="&lt;Group&gt;"><g id="_Group_143" data-name="&lt;Group&gt;"><g id="_Group_144" data-name="&lt;Group&gt;"><path class="cls-4" d="M51,85.11a2.53,2.53,0,0,0,2.32,0l1.91,12.33c0,2.32-6,2.32-6,0Z"/></g><g id="_Group_145" data-name="&lt;Group&gt;"><path class="cls-8" d="M50.91,92.14l-.38,6.77c-.13,0-.25-.1-.37-.15Z"/></g><g id="_Group_146" data-name="&lt;Group&gt;"><path class="cls-8" d="M53.77,99,53,88l1.19,10.84A2.26,2.26,0,0,1,53.77,99Z"/></g><g id="_Group_147" data-name="&lt;Group&gt;"><path class="cls-8" d="M52.41,99.18H52l.2-8.73Z"/></g></g><g id="_Group_148" data-name="&lt;Group&gt;"><g id="_Group_149" data-name="&lt;Group&gt;"><path class="cls-18" d="M52.16,86.14a2.15,2.15,0,0,0,1.23-.42.74.74,0,0,0-.84-1.23.52.52,0,0,1-.72,0,.74.74,0,0,0-1,.15.75.75,0,0,0,.15,1A2,2,0,0,0,52.16,86.14Z"/></g></g><g id="_Group_150" data-name="&lt;Group&gt;"><g id="_Group_151" data-name="&lt;Group&gt;"><path class="cls-18" d="M52.22,84.22a.76.76,0,0,0,.75-.75V66a2.25,2.25,0,0,1,1.12-1.94L75.3,52a.74.74,0,1,0-.74-1.29L53.35,62.77A3.74,3.74,0,0,0,51.48,66V83.47A.75.75,0,0,0,52.22,84.22Z"/></g></g><g id="_Group_152" data-name="&lt;Group&gt;"><path class="cls-4" d="M53.86,83.47a1.64,1.64,0,1,0-1.64,1.64A1.64,1.64,0,0,0,53.86,83.47Z"/></g><g id="_Group_153" data-name="&lt;Group&gt;"><path class="cls-8" d="M50.6,83.56a1.28,1.28,0,0,0,1.82.63,1.37,1.37,0,0,0,0-2.33,1.63,1.63,0,1,1-1.85,1.7Z"/></g></g></g></g><g id="_Group_154" data-name="&lt;Group&gt;"><g id="_Group_155" data-name="&lt;Group&gt;"><g id="_Group_156" data-name="&lt;Group&gt;"><ellipse class="cls-18" cx="281.03" cy="325.66" rx="45.91" ry="21.88"/></g></g><g id="_Group_157" data-name="&lt;Group&gt;"><g id="_Group_158" data-name="&lt;Group&gt;"><path class="cls-13" d="M266.37,167.45c-3.78-1.19-7.67,1.88-10.2,8.06s-7.88,21.89-8.66,26.09,17.09,13.31,16.59,13.06S266.37,167.45,266.37,167.45Z"/></g><g id="_Group_159" data-name="&lt;Group&gt;"><g id="_Group_160" data-name="&lt;Group&gt;"><path class="cls-13" d="M258.06,312.91c-.54.2-.67,1.21-.75,3.24-.06,1.52-.39,4.19,1.4,4.73s4.41.26,5.56-1.18c1.44-1.8,2.4-3.39,4.45-5.58,1.77-1.91,3.69-3.68,4.41-6.35.65-2.42.11-3.46-1.54-4.17-2.26-1-5.82,2.19-7.6,2.69C262.47,306.72,258.59,312.7,258.06,312.91Z"/></g><g id="_Group_161" data-name="&lt;Group&gt;"><path class="cls-16" d="M258.06,311v2.49a6.08,6.08,0,0,0,6.27.17c.11-.24.65-3.55.65-3.55Z"/></g><g id="_Group_162" data-name="&lt;Group&gt;"><path class="cls-13" d="M278.15,327.21a41,41,0,0,0-1.09,4c-.31,1.5-.74,4-.22,5.14s2.58,1.86,5.75,1.83c2.06,0,5.27,1.38,7.46,2.61s7,1.77,9.39,1.49c2.82-.34,5.75-2,6.21-3.15s-.15-2.38-6.81-5.22c-.07,0-9.27-3-12.49-6.58Z"/></g><g id="_Group_163" data-name="&lt;Group&gt;"><path class="cls-16" d="M278.15,324.52s0,1.85,0,2.9,1.24,2.62,4.45,2.5c2.26-.08,3.84-.68,3.75-2.55v-2.68Z"/></g><g id="_Group_164" data-name="&lt;Group&gt;"><path class="cls-9" d="M256.44,278.1a67.68,67.68,0,0,1,2.93-12.92s-.88-11.15-1.31-21.72c-.46-11.42,0-25.78-.19-28.63,0,0,36.85-7.45,37.5,5.75s-1.45,46.8-1.89,52.6-1.43,10.93-2.63,20.33-4.5,31.18-4.5,31.18a8.69,8.69,0,0,1-8.2-.17s-2.59-26.39-2.32-33.08a57,57,0,0,1,2.54-14.61s-.7-10.88-1.32-20.35-1.27-14-1.41-18.13l-.79-.4s-.81,16.34-1.25,22.14-1.35,11.35-3,22.13c-1.46,9.34-5.79,29.11-5.79,29.11-4.21,2.28-6.72-.3-6.72-.3S255.31,286.21,256.44,278.1Z"/></g><g id="_Group_165" data-name="&lt;Group&gt;"><path class="cls-10" d="M275.64,238.35s-8.94-4.41-13.41-8.38c0,0,4.15,5.85,9.6,8.45,0,0,1.94,20.29,1.93,19.88l1.12-20Z"/></g></g><g id="_Group_166" data-name="&lt;Group&gt;"><g id="_Group_167" data-name="&lt;Group&gt;"><polygon class="cls-16" points="283.6 163.27 281.42 175.27 270.57 174.48 272.85 160.87 283.6 163.27"/></g></g><g id="_Group_168" data-name="&lt;Group&gt;"><g id="_Group_169" data-name="&lt;Group&gt;"><path class="cls-10" d="M259.13,173.6c1.07-3.26,5.21-6.81,9.35-6a122.17,122.17,0,0,1,18.14,4.54c3.8,1.35,7.25,4.63,7.57,17.1l1.92,37.17-4.59,1-1.6-8.41-.75,8.41c-4.8,1.21-13.12.21-18.59-1-11.4-2.49-12.78-7.22-12.78-7.22s-.14-20.91.2-29.95C258.29,181.52,258.39,175.84,259.13,173.6Z"/></g></g><g id="_Group_170" data-name="&lt;Group&gt;"><g id="_Group_171" data-name="&lt;Group&gt;"><path class="cls-16" d="M291.62,149.05s2.63,3.88,2.29,4.3a6,6,0,0,1-2,.87Z"/></g><g id="_Group_172" data-name="&lt;Group&gt;"><path class="cls-16" d="M283.6,136.73c2.53,1.27,6.89,3.63,8.1,12.89,1.24,9.5-.39,12.56-1.68,13.82-.86.85-5.58.9-7.94.19-3-.89-9.63-3.42-12.67-8.3-3.57-5.74-4.37-13.43-.34-16.49C274.75,134.54,281.46,135.65,283.6,136.73Z"/></g></g><g id="_Group_173" data-name="&lt;Group&gt;"><g id="_Group_174" data-name="&lt;Group&gt;"><g id="_Group_175" data-name="&lt;Group&gt;"><path class="cls-20" d="M292.23,139.91c-.84,2.28-2.23,7.86-8.05,10.19,0,0-.83-3.56-3.82-3.18s-3.5,4.19-1.67,6.56,3.62,1.51,3.62,1.51.4,5.1-3,7.41c0,0-4.11,2.6-8.46.6-2-.9-4.73-5.59-6.35-9.44-3.44-8.14-3.93-14.67,1.26-16.73.64-3.7,2.31-5.09,5.66-5.78,7.21-1.49,12.66,3.25,18.72,2.41C293.29,133,293.18,137.31,292.23,139.91Z"/></g></g><g id="_Group_176" data-name="&lt;Group&gt;"><g id="_Group_177" data-name="&lt;Group&gt;"><path class="cls-20" d="M265.65,138.07l-3.4-2.11a2,2,0,0,1,3.4,2.11Z"/></g></g></g></g><g id="_Group_178" data-name="&lt;Group&gt;"><g id="_Group_179" data-name="&lt;Group&gt;"><g id="_Group_180" data-name="&lt;Group&gt;"><ellipse class="cls-18" cx="362.36" cy="280.76" rx="35.42" ry="16.88"/></g></g><g id="_Group_181" data-name="&lt;Group&gt;"><g id="_Group_182" data-name="&lt;Group&gt;"><g id="_Group_183" data-name="&lt;Group&gt;"><path class="cls-21" d="M347.58,101.13h23.61a3.36,3.36,0,0,1,3.36,3.36V142a11.13,11.13,0,0,1-11.13,11.13h-8.07A11.13,11.13,0,0,1,344.22,142V104.49A3.36,3.36,0,0,1,347.58,101.13Z" transform="translate(718.76 254.26) rotate(180)"/></g></g><g id="_Group_184" data-name="&lt;Group&gt;"><path class="cls-14" d="M343.6,140.32c-2.3,6.76-6.13,26.17-6.13,26.17s-8.05,9.79-10.61,12.16c-1.43,1.31-4.65,3.68-4.65,3.68l5.85,4.31a129.84,129.84,0,0,0,14.84-13.36,8.4,8.4,0,0,0,2.07-3.87l4-17.16s0-13.8,2.12-15.61,2.71-2.2,2.71-2.2C351.1,134.25,345.4,135,343.6,140.32Z"/></g><g id="_Group_185" data-name="&lt;Group&gt;"><path class="cls-9" d="M355.06,134.25c-3.73-.43-8.51-.35-10.84,3.82S338,163.76,338,163.76s3.66,2.85,7.63,2.8Z"/></g><g id="_Group_186" data-name="&lt;Group&gt;"><path class="cls-10" d="M344.69,154.33a38.71,38.71,0,0,1,.77,9.79c-.3,4.31-3.27,11.86-3.27,11.86s2.32,2.56,8.9,1.53c5.35-.84,3.46-17,.38-20.11A10.14,10.14,0,0,0,344.69,154.33Z"/></g><g id="_Group_187" data-name="&lt;Group&gt;"><g id="_Group_188" data-name="&lt;Group&gt;"><path class="cls-13" d="M357.05,268.54a3.7,3.7,0,0,1-.53,2.1,26.42,26.42,0,0,1-3.47,4.54c-1.85,2-4.62,4.34-6.61,6.08-1.1,1-1.14,2.42.44,2.93a11.89,11.89,0,0,0,8.68-1.21c2-1.06,4.79-6,6.43-6.7,1.88-.85,2.94-1.28,3.58-2.15a3,3,0,0,0,.38-3.78c-.89-1.66-2.22-4.21-2.77-3.93l.17.53c-.43,1.35-4.11,2.92-6,2.55Z"/></g></g><g id="_Group_189" data-name="&lt;Group&gt;"><path class="cls-16" d="M376.33,212.11c.85-9,3.29-23.47.79-34.19l-33.2,1.76c-.92,10.57-2,43.57-.84,47.35,1.34,4.45,13.31,35.32,14,41.54a3.4,3.4,0,0,1-.52,2.07,26.85,26.85,0,0,1-3.47,4.55c-.9,1-2,2-3.17,3a1,1,0,0,0-.16.48c0,1,2.51,1.31,4,.88a9.32,9.32,0,0,0,4.54-3.49c.85-1.13,2.76-3.31,4-4.93a8.5,8.5,0,0,0,1-1.64,3.31,3.31,0,0,0,.15-2.34l-.07-.24a26,26,0,0,1-1.2-6.24c-.46-6.81-1.63-22.54-2.71-26.73a37.16,37.16,0,0,0-3.39-8.77l3.78-29.48s.41,26,1.58,32.62c.94,5.32,1.3,12,2.39,21.06,1,8.72,2.16,24.09,2.16,24.09a.25.25,0,0,0,.09,0v7.26h6.31v-4.26a35.68,35.68,0,0,1,.47-5.75c1-5.79,3.09-19.06,3.52-23.55.68-7.13-1.89-16.07-1.89-16.07S375.49,220.9,376.33,212.11Z"/></g><g id="_Group_190" data-name="&lt;Group&gt;"><g id="_Group_191" data-name="&lt;Group&gt;"><path class="cls-15" d="M364.62,134.56s8.93,1,10,1.51c-8.38,5.89-1.59,19-1.59,19l-3.22,10.06c3.57,4.57,6.66,7.3,8.56,12.31,2.13,5.6,4,13.92,3.51,31-8,6-32.34,5.35-41.83,0,0,0,1.61-15.06,3.5-26.77,1.25-7.73,4.2-16.15,3.69-19-3.75-11.55-4-13.64-3.32-16.22,1.88-7.25,9.28-12.16,11.1-12.16Z"/></g></g><g id="_Group_192" data-name="&lt;Group&gt;"><g id="_Group_193" data-name="&lt;Group&gt;"><path class="cls-13" d="M366,277.69v-.91a17.33,17.33,0,0,1-4.51,7.91c-2,1.81-4.71,3.91-5.4,5.94s3.21,2.94,5.79,2.68a10.4,10.4,0,0,0,6.48-3.39c1.64-1.88,1.61-3.16,2.37-4.2s2.53-2.19,2.94-3.38a7.59,7.59,0,0,0-.36-3.32c-.29-1.12-.61-2.34-1-2.24v.69a5,5,0,0,1-3.16,1.07C368.28,278.57,366,278.39,366,277.69Z"/></g></g><g id="_Group_194" data-name="&lt;Group&gt;"><g id="_Group_195" data-name="&lt;Group&gt;"><path class="cls-16" d="M372.36,277.47a5,5,0,0,1-3.16,1.07c-.92,0-3.16-.15-3.15-.85v-.91a17.46,17.46,0,0,1-4.52,7.91L360,286c-1.05,1.18-.75,2.21,1.74,2.43s4.67-1.29,6.56-3.61S372.36,277.47,372.36,277.47Z"/></g></g><g id="_Group_196" data-name="&lt;Group&gt;"><g id="_Group_197" data-name="&lt;Group&gt;"><path class="cls-16" d="M349.2,107.26c-1.6.95-3.58,5-3.39,13.42.17,7.16,2.49,8.93,3.65,9.44s3.41.2,5.6-.17v4.3s-3,3.51-2.83,5.48,4.36,2.43,7.19.51a23,23,0,0,0,5.2-5.68l-.05-9.88s1.29,1.25,3.47-.65c1.8-1.58,2.4-4.23,1-5.65a3.13,3.13,0,0,0-5,1s-1.21-3.37-6.24-5C353.26,112.87,350.79,111.16,349.2,107.26Z"/></g></g><g id="_Group_198" data-name="&lt;Group&gt;"><g id="_Group_199" data-name="&lt;Group&gt;"><path class="cls-13" d="M353.8,118.88a.9.9,0,1,0,1.8.09.91.91,0,0,0-.85-1A.93.93,0,0,0,353.8,118.88Z"/></g></g><g id="_Group_200" data-name="&lt;Group&gt;"><g id="_Group_201" data-name="&lt;Group&gt;"><path class="cls-14" d="M353.56,125l-2.09.67a1.09,1.09,0,0,0,1.36.75A1.15,1.15,0,0,0,353.56,125Z"/></g></g><g id="_Group_202" data-name="&lt;Group&gt;"><g id="_Group_203" data-name="&lt;Group&gt;"><path class="cls-13" d="M346.42,116.12l1.82-1.26a1.06,1.06,0,0,0-1.51-.31A1.16,1.16,0,0,0,346.42,116.12Z"/></g></g><g id="_Group_204" data-name="&lt;Group&gt;"><g id="_Group_205" data-name="&lt;Group&gt;"><path class="cls-13" d="M356.42,116.79l-1.82-1.27a1.07,1.07,0,0,1,1.52-.31A1.17,1.17,0,0,1,356.42,116.79Z"/></g></g><g id="_Group_206" data-name="&lt;Group&gt;"><g id="_Group_207" data-name="&lt;Group&gt;"><path class="cls-13" d="M346.84,118.23a.9.9,0,1,0,1.8.09.91.91,0,0,0-.85-1A.93.93,0,0,0,346.84,118.23Z"/></g></g><g id="_Group_208" data-name="&lt;Group&gt;"><g id="_Group_209" data-name="&lt;Group&gt;"><polygon class="cls-14" points="351.09 117.72 350.95 123.14 348.1 122.25 351.09 117.72"/></g></g><g id="_Group_210" data-name="&lt;Group&gt;"><g id="_Group_211" data-name="&lt;Group&gt;"><path class="cls-14" d="M355.06,130c2.3-.3,7-1.66,7.78-3.53a4.87,4.87,0,0,1-1.66,2.39c-1.42,1.21-6.12,2.58-6.12,2.58Z"/></g></g><g id="_Group_212" data-name="&lt;Group&gt;"><g id="_Group_213" data-name="&lt;Group&gt;"><polygon class="cls-17" points="371.36 159.65 365.06 168.19 369.81 165.14 371.36 159.65"/></g></g></g></g><g id="_Group_214" data-name="&lt;Group&gt;"><path class="cls-13" d="M282.8,167.63l1.24,3.59s-.91,1.61-4.78,1.69-8-1.15-9.28-2.8a2.89,2.89,0,0,1-.72-2.41s1.54-3.4,3-3.25l-.24,1.47s.33,1.22,3.84,2.15C281.31,169.52,282.8,167.63,282.8,167.63Z"/></g><g id="_Group_215" data-name="&lt;Group&gt;"><path class="cls-16" d="M313.9,191.5c1.56-1.79,2.16-5.76,4.24-8.48s2.84-4.71,3.67-3.52c1.09,1.57-1.37,4.71-.83,5s2.59,4.46,2.8,6.76-5.89,8.09-5.89,8.09Z"/></g><g id="_Group_216" data-name="&lt;Group&gt;"><path class="cls-13" d="M282.8,167.63a1.41,1.41,0,0,1,1.24.72,32,32,0,0,1,1.64,3.41l-1.64-.54Z"/></g><g id="_Group_217" data-name="&lt;Group&gt;"><path class="cls-16" d="M320.82,184.18s7.37-.64,8.44,0,.75,3.83,0,5.78-4.51,3.23-8,5.6C321.25,195.2,320.82,184.18,320.82,184.18Z"/></g><g id="_Group_218" data-name="&lt;Group&gt;"><path class="cls-14" d="M321.66,182.33c-1.35,1.75-2.18,5.13-2.89,6.26s-1.57,2.13,0,2.35,3.83-2.84,4.69-4.69a4.44,4.44,0,0,1,2.27-2.35c-.74-.25-.35-3.19-.87-3.59C324.86,180.31,322.21,181.4,321.66,182.33Z"/></g><g id="_Group_219" data-name="&lt;Group&gt;"><path class="cls-14" d="M321.26,195.54c1.41-1.06,1.45-2.34,1.73-4.4s5.92-4.26,6.09-2.73.7,2.81-1,4.66S323.84,196.91,321.26,195.54Z"/></g><g id="_Group_220" data-name="&lt;Group&gt;"><path class="cls-10" d="M285.68,171.76c3.17,1.1,5.94,2.38,8.9,7.93,3.8,7.14,11,18.57,11,18.57L313.9,191s1.25-1.22,3.58,2.63a8,8,0,0,1,.85,7.11s-9.57,11.23-11.41,12.93-4.86.38-6.83-2.3-14.41-18.25-14.41-18.25S278.89,184.14,285.68,171.76Z"/></g><g id="_Group_221" data-name="&lt;Group&gt;"><path class="cls-9" d="M364.62,134.56s8.36.73,10,1.51,4.37,5.49,1.93,12.35-4.66,14.91-4.41,16.53,6.08,10,6.08,10a16,16,0,0,1-5.37,2.57l-3-6.52.7,6.93a35.73,35.73,0,0,1-9.22,1S358.52,152.31,364.62,134.56Z"/></g><g id="_Group_222" data-name="&lt;Group&gt;"><path class="cls-16" d="M385.22,167.21c.66-4,0-5.23-1.38-9.1l-7,4.53a15.1,15.1,0,0,1,1,4.57c-.06,1.13-1.61,12.44-3.06,16.38a3,3,0,0,1-1.44,1.61,17.55,17.55,0,0,0-3.88,3.23c-1.07,1-1.94,1.17-1.83,1.51a1.65,1.65,0,0,0,2.05.89,11.27,11.27,0,0,0,2.49-1.13,15.35,15.35,0,0,1-2.75,4.05c-2.56,2.74-2.79,4.51,2,4.89,3,.23,5.51-1.46,8.22-7.91a59.23,59.23,0,0,0,2.07-7.23C383.13,177.87,384.56,171.18,385.22,167.21Z"/></g><g id="_Group_223" data-name="&lt;Group&gt;"><path class="cls-9" d="M374.62,136.07c3.37,1.51,4.33,4.49,5.58,8.87s5.17,17.52,5.17,17.52-3.37,4-8,2.88l-6-14.58S368.56,141.26,374.62,136.07Z"/></g></g></g></g></g></g></svg>