<svg xmlns="http://www.w3.org/2000/svg" xmlns:xlink="http://www.w3.org/1999/xlink" viewBox="0 0 450.07 426.48"><defs><style>.cls-1{fill:none;}.cls-2{fill:#abd5fd;}.cls-3{fill:#4c9fff;}.cls-4{fill:#ebebeb;}.cls-5{fill:#fafafa;}.cls-6{fill:#e0e0e0;}.cls-7{fill:#455a64;}.cls-8{fill:#27debf;}.cls-9{fill:#9a4a4d;}.cls-10{fill:#ffa8a7;}.cls-11{fill:#263238;}.cls-12{opacity:0.1;}.cls-13{fill:#f28f8f;}.cls-14{fill:#b16668;}.cls-15{fill:#37474f;}.cls-16{fill:#2343ba;}.cls-17{fill:#412b00;}.cls-18{fill:#764715;}.cls-19{clip-path:url(#clip-path);}.cls-20{fill:#f0f0f0;}</style><clipPath id="clip-path" transform="translate(0 -10.79)"><path id="_Clipping_Path_" data-name="&lt;Clipping Path&gt;" class="cls-1" d="M189.79,168.47c-10.38,0-20.06-2.29-27.27-6.46-6.36-3.67-9.87-8.26-9.87-12.93S137,30.91,137,30.91L174.56,0l74.66,27.1s-21.72,117.32-21.72,122-3.93,9.5-10.3,13.18C210,166.42,200.18,168.47,189.79,168.47Z"/></clipPath></defs><title>design</title><g id="Layer_2" data-name="Layer 2"><g id="Pencils"><path id="Floor" class="cls-2" d="M65.91,402.83c87.88,45.91,230.37,45.91,318.25,0s87.88-120.34,0-166.26-230.37-45.91-318.25,0S-22,356.92,65.91,402.83Z" transform="translate(0 -10.79)"/><ellipse id="Shadow" class="cls-3" cx="394.19" cy="303.75" rx="40.39" ry="19.25"/><ellipse id="Shadow-2" data-name="Shadow" class="cls-3" cx="69.28" cy="324.94" rx="40.39" ry="19.25"/><g id="Draw"><g id="_Group_" data-name="&lt;Group&gt;"><path id="_Path_" data-name="&lt;Path&gt;" class="cls-4" d="M219.5,411.54l-102.25-59a2.65,2.65,0,0,1-1.2-2.07v-1.55a2.63,2.63,0,0,1,1.2-2.07l124.68-72a2.65,2.65,0,0,1,2.39,0l102.25,59a2.65,2.65,0,0,1,1.2,2.07v1.55a2.63,2.63,0,0,1-1.2,2.07l-124.68,72A2.65,2.65,0,0,1,219.5,411.54Z" transform="translate(0 -10.79)"/><path id="_Path_2" data-name="&lt;Path&gt;" class="cls-5" d="M346.57,335.24l-124.68,72a2.65,2.65,0,0,1-2.39,0l-102.25-59c-.66-.39-.66-1,0-1.38l124.68-72a2.65,2.65,0,0,1,2.39,0l102.25,59A.73.73,0,0,1,346.57,335.24Z" transform="translate(0 -10.79)"/><path id="_Path_3" data-name="&lt;Path&gt;" class="cls-5" d="M346.57,335.24l-124.68,72a2.65,2.65,0,0,1-2.39,0l-102.25-59c-.66-.39-.66-1,0-1.38l124.68-72a2.65,2.65,0,0,1,2.39,0l102.25,59A.73.73,0,0,1,346.57,335.24Z" transform="translate(0 -10.79)"/><path id="_Path_4" data-name="&lt;Path&gt;" class="cls-6" d="M220.7,407.92v3.91a2.48,2.48,0,0,1-1.2-.29l-102.25-59a2.62,2.62,0,0,1-1.2-2.07v-1.56a2.61,2.61,0,0,1,1-1.91c-.44.38-.36.89.22,1.22L219.5,407.23a1.79,1.79,0,0,0,.32.13Z" transform="translate(0 -10.79)"/></g><g id="Rocket"><g id="_Group_2" data-name="&lt;Group&gt;"><path id="_Path_5" data-name="&lt;Path&gt;" class="cls-7" d="M159.06,342.22a.37.37,0,0,1-.05.15.48.48,0,0,1-.11.15l-.56.23-13.3.68a1.41,1.41,0,0,0-1,.67c-.21.36-.1.66.25.67l12.54.64.29.24a.66.66,0,0,1-.63.49l-12.65-.65c-.72,0-.95-.64-.52-1.38a2.94,2.94,0,0,1,2.12-1.39l13.41-.69C159,342,159.06,342.1,159.06,342.22Z" transform="translate(0 -10.79)"/></g><g id="_Group_3" data-name="&lt;Group&gt;"><path id="_Path_6" data-name="&lt;Path&gt;" class="cls-7" d="M276.21,334.16a.33.33,0,0,1-.08.21.7.7,0,0,1-.57.32s-3.32-.39-9.39-.91c-.19,0-.23-.19-.1-.39a.75.75,0,0,1,.57-.33c6.08.53,9.37.92,9.41.92A.16.16,0,0,1,276.21,334.16Z" transform="translate(0 -10.79)"/></g><g id="_Group_4" data-name="&lt;Group&gt;"><path id="_Path_7" data-name="&lt;Path&gt;" class="cls-7" d="M265.18,353.33a.93.93,0,0,1,0,.13.74.74,0,0,1-.54.4s-3.79.4-10.48.94c-.2,0-.29-.13-.2-.32a.78.78,0,0,1,.55-.39c6.68-.54,10.42-.94,10.46-.94S265.18,353.21,265.18,353.33Z" transform="translate(0 -10.79)"/></g><g id="_Group_5" data-name="&lt;Group&gt;"><path id="_Path_8" data-name="&lt;Path&gt;" class="cls-7" d="M251,332.1a.32.32,0,0,1-.07.19.72.72,0,0,1-.57.34c-5.56-.34-11.37-.64-17.27-.88-27-1.1-35.92-.1-44.11,1.21-8.87,1.41-31.46,9.64-33.4,11.13.23,1.48,13.38,9.65,20.63,11.05,6.69,1.29,14.53,2.26,42.79,1.07,6.18-.25,12.34-.57,18.31-.92.21,0,.29.14.19.33a.74.74,0,0,1-.55.38c-6,.36-12.15.67-18.33.93-28.34,1.18-36.21.21-42.94-1.09-6.5-1.25-21.89-9.92-20.84-11.75s26.47-10.57,34.43-11.84c8.23-1.32,17.24-2.32,44.26-1.21,5.91.24,11.73.53,17.29.88A.17.17,0,0,1,251,332.1Z" transform="translate(0 -10.79)"/></g><g id="_Group_6" data-name="&lt;Group&gt;"><path id="_Compound_Path_" data-name="&lt;Compound Path&gt;" class="cls-7" d="M200.48,338.08c-.66-1.56-2.26-2.41-4.48-2.41a14.27,14.27,0,0,0-7.33,2.46,20.06,20.06,0,0,0-3.39,2.71,16.25,16.25,0,0,0-2.47,3.2,7.84,7.84,0,0,0-1.24,4.86c.31,2.2,2.1,3.51,4.8,3.5a14.25,14.25,0,0,0,7.33-2.46,17.69,17.69,0,0,0,5.86-5.92,8.47,8.47,0,0,0,1.28-4A4.39,4.39,0,0,0,200.48,338.08ZM198.85,344a16.21,16.21,0,0,1-5.37,5.41,13.06,13.06,0,0,1-6.7,2.26c-2.47,0-4.11-1.2-4.38-3.2a4,4,0,0,1-.05-.78,8,8,0,0,1,1.18-3.67,16.42,16.42,0,0,1,5.35-5.41,13.11,13.11,0,0,1,6.71-2.24c2,0,3.49.78,4.1,2.2S200,342,198.85,344Z" transform="translate(0 -10.79)"/><path id="_Compound_Path_2" data-name="&lt;Compound Path&gt;" class="cls-8" d="M199.69,338.59c-.61-1.42-2.07-2.2-4.1-2.2a13.11,13.11,0,0,0-6.71,2.24,16.42,16.42,0,0,0-5.35,5.41,8,8,0,0,0-1.18,3.67,4,4,0,0,0,.05.78c.27,2,1.91,3.2,4.38,3.2a13.06,13.06,0,0,0,6.7-2.26,16.21,16.21,0,0,0,5.37-5.41C200,342,200.33,340,199.69,338.59ZM197.05,344c-1.87,3.23-6,5.87-9.24,5.87h0c-3.21,0-4.33-2.63-2.47-5.85s6-5.86,9.24-5.87c2.22,0,3.44,1.23,3.38,3.05A5.94,5.94,0,0,1,197.05,344Z" transform="translate(0 -10.79)"/></g><g id="_Group_7" data-name="&lt;Group&gt;"><path id="_Compound_Path_3" data-name="&lt;Compound Path&gt;" class="cls-7" d="M176.5,335.73a.33.33,0,0,0-.28,0c-6.34,2-20.52,6.89-21.37,8.37s7.71,6.33,11.75,8.32a.42.42,0,0,0,.29,0,.78.78,0,0,0,.3-.21c4.95-5.43,8.1-10.89,9.37-16.25a.13.13,0,0,0,0-.06A.16.16,0,0,0,176.5,335.73Z" transform="translate(0 -10.79)"/><path id="_Path_9" data-name="&lt;Path&gt;" class="cls-8" d="M175.67,336.52c-1.26,5-4.19,10.05-8.7,15.09-6.13-3.05-11.25-6.59-11.38-7.52C156.8,343.16,166,339.6,175.67,336.52Z" transform="translate(0 -10.79)"/></g><g id="_Group_8" data-name="&lt;Group&gt;"><path id="_Path_10" data-name="&lt;Path&gt;" class="cls-7" d="M276.34,335.12a12.26,12.26,0,0,1-1.12,4.24.76.76,0,0,1-.53.41c-.21,0-.32-.1-.24-.3,1.32-3.17,1.08-4.48,1-4.79-.52-.06-2.72-.31-6.39-.65a20.53,20.53,0,0,1-2.18,6.48.78.78,0,0,1-.55.39c-.21,0-.3-.13-.2-.32,1.74-3.6,2.1-5.69,2.14-6.78h0a.53.53,0,0,1,.23-.36.63.63,0,0,1,.42-.17c4.62.42,7.11.72,7.14.72a.18.18,0,0,1,.14.09A2.07,2.07,0,0,1,276.34,335.12Z" transform="translate(0 -10.79)"/></g><g id="_Group_9" data-name="&lt;Group&gt;"><path id="_Path_11" data-name="&lt;Path&gt;" class="cls-7" d="M270,348.28a.45.45,0,0,1-.09.23c-2.93,3.95-5,5.21-5.1,5.26a.69.69,0,0,1-.25.09s-2.87.3-8,.74c-.14,0-.23-.06-.24-.17a.53.53,0,0,1,.2-.37,33.82,33.82,0,0,0,5.65-6.76.72.72,0,0,1,.57-.32c.19,0,.24.19.1.39a37.63,37.63,0,0,1-5.26,6.45c4.07-.34,6.55-.6,7.14-.66a20.74,20.74,0,0,0,4.52-4.77.7.7,0,0,1,.58-.3A.17.17,0,0,1,270,348.28Z" transform="translate(0 -10.79)"/></g><g id="_Group_10" data-name="&lt;Group&gt;"><path id="_Compound_Path_4" data-name="&lt;Compound Path&gt;" class="cls-7" d="M282.76,362.19l-25.51,1.72-2.54-9.7a.15.15,0,0,0-.13-.11c-4.86-1.32-10.71-.91-17.38,1.21a.9.9,0,0,0-.37.25.38.38,0,0,0-.09.33l5.82,15.32a.17.17,0,0,0,.18.11l10,.17.13,0,29.65-8.58a.75.75,0,0,0,.47-.41.54.54,0,0,0,0-.1C283,362.26,282.91,362.18,282.76,362.19Zm-29.68,8.58-9.76-.16-5.63-14.83c6.2-1.88,11.66-2.22,16.23-1l2.55,9.74c0,.08.11.13.23.12l22.91-1.54Z" transform="translate(0 -10.79)"/><path id="_Path_12" data-name="&lt;Path&gt;" class="cls-8" d="M279.61,363.09l-26.53,7.68-9.76-.16-5.63-14.83c6.2-1.88,11.66-2.22,16.23-1l2.55,9.74c0,.08.11.13.23.12Z" transform="translate(0 -10.79)"/></g><g id="_Group_11" data-name="&lt;Group&gt;"><path id="_Compound_Path_5" data-name="&lt;Compound Path&gt;" class="cls-7" d="M304.39,324.88l-19.81-8.51-.11,0-10.19.2a.58.58,0,0,0-.31.11L250.48,332a.72.72,0,0,0-.28.33.2.2,0,0,0,.08.26c4.24,2.1,9.62,2.49,16,1.16a.85.85,0,0,0,.26-.12l13.72-9.72,23.58,1.65a.72.72,0,0,0,.54-.29.4.4,0,0,0,.1-.24A.16.16,0,0,0,304.39,324.88Zm-23.84-1.67a.58.58,0,0,0-.37.13l-13.79,9.76c-6,1.22-11,.9-15.08-1L274,317.26l10-.19,17.72,7.61Z" transform="translate(0 -10.79)"/><path id="_Path_13" data-name="&lt;Path&gt;" class="cls-8" d="M301.73,324.68l-21.18-1.47a.58.58,0,0,0-.37.13l-13.79,9.76c-6,1.22-11,.9-15.08-1L274,317.26l10-.19Z" transform="translate(0 -10.79)"/></g><g id="_Group_12" data-name="&lt;Group&gt;"><path id="_Compound_Path_6" data-name="&lt;Compound Path&gt;" class="cls-7" d="M303.43,343.43l-24.86-4.83a.2.2,0,0,0-.11,0l-37,5a.8.8,0,0,0-.51.35c-.11.18-.06.33.1.36l31.31,5h.12l30.6-5.14a.76.76,0,0,0,.5-.36.41.41,0,0,0,.05-.17A.17.17,0,0,0,303.43,343.43Zm-30.66,5.13-29-4.63,34.36-4.61,23.06,4.48Z" transform="translate(0 -10.79)"/><polygon id="_Path_14" data-name="&lt;Path&gt;" class="cls-8" points="301.15 333.01 272.77 337.77 243.73 333.14 278.09 328.53 301.15 333.01"/></g><g id="_Group_13" data-name="&lt;Group&gt;"><g id="_Group_14" data-name="&lt;Group&gt;"><g id="_Group_15" data-name="&lt;Group&gt;"><path id="_Compound_Path_7" data-name="&lt;Compound Path&gt;" class="cls-7" d="M271.26,365.5h0l-2.87.84-2.9.85-3.24.94a8.09,8.09,0,0,0-5.21,4.79c-.56,2,.8,3.17,3.11,2.68l3.06-.65h.09l2.83-.6h0l2.78-.59c1.51-.38,2.68-2.74,3.22-4.64a8.89,8.89,0,0,0,.35-2.06C272.53,366,272.21,365.26,271.26,365.5Zm.08,3.8c-.53,1.9-1.53,3.58-2.2,3.75l-2,.42-.95.2-2,.42-.91.2-2.95.62c-1.62.34-2.67-.33-2.64-1.56a2.61,2.61,0,0,1,.11-.64,6.57,6.57,0,0,1,4.25-3.9l3-.89.93-.27,2-.59,1-.29,2-.59C271.75,366,271.88,367.42,271.34,369.3Z" transform="translate(0 -10.79)"/></g><g id="_Group_16" data-name="&lt;Group&gt;"><path id="_Compound_Path_8" data-name="&lt;Compound Path&gt;" class="cls-7" d="M269,366.77a.81.81,0,0,0-.45-.44.42.42,0,0,0-.22,0l-2.9.85a.78.78,0,0,0-.42.31c-.1.14-.1.28,0,.34a.27.27,0,0,1,.07.08c.34.41.3,1.57-.1,3a8.56,8.56,0,0,1-1.7,3.39l-.13.13a.51.51,0,0,0-.2.39.19.19,0,0,0,.21.14h.09l2.83-.6h0a.65.65,0,0,0,.22-.11,3.66,3.66,0,0,0,.78-.75,10.2,10.2,0,0,0,1.71-3.54,8.16,8.16,0,0,0,.35-2.05A2.59,2.59,0,0,0,269,366.77Zm-1,3.36a8.09,8.09,0,0,1-1.86,3.54l-2,.42a10.7,10.7,0,0,0,1.59-3.39,5.91,5.91,0,0,0,.23-3.05l2-.59C268.49,367.34,268.49,368.59,268.06,370.13Z" transform="translate(0 -10.79)"/><path id="_Path_15" data-name="&lt;Path&gt;" class="cls-8" d="M268.06,370.13a8.09,8.09,0,0,1-1.86,3.54l-2,.42a10.7,10.7,0,0,0,1.59-3.39,5.91,5.91,0,0,0,.23-3.05l2-.59C268.49,367.34,268.49,368.59,268.06,370.13Z" transform="translate(0 -10.79)"/></g></g></g><g id="_Group_17" data-name="&lt;Group&gt;"><g id="_Group_18" data-name="&lt;Group&gt;"><g id="_Group_19" data-name="&lt;Group&gt;"><path id="_Compound_Path_9" data-name="&lt;Compound Path&gt;" class="cls-7" d="M303.29,314l-2.12-.58-2.15-.59-2.39-.66c-1.74-.48-4.47.71-6.2,2.7s-1.87,4.09-.3,4.78l2.15.93,1.93.84,1.91.83h0c.35.12,1.05,0,2.39-1a21.34,21.34,0,0,0,2.66-2.6,17.41,17.41,0,0,0,2.05-2.82,3.1,3.1,0,0,0,.43-1.24A.53.53,0,0,0,303.29,314Zm-.79,1.85a15.9,15.9,0,0,1-1.89,2.6,19.3,19.3,0,0,1-2.45,2.39c-.68.54-1.2.8-1.42.73L295.4,321l-.66-.29-1.34-.58h0l-.61-.27-2-.88c-1.28-.56-1.18-2.27.24-3.9s3.64-2.6,5.07-2.2l2.25.62.67.18,1.51.41.72.2,1.49.41C302.93,314.81,302.85,315.23,302.5,315.89Z" transform="translate(0 -10.79)"/></g><g id="_Group_20" data-name="&lt;Group&gt;"><path id="_Compound_Path_10" data-name="&lt;Compound Path&gt;" class="cls-7" d="M301.29,313.57a.15.15,0,0,0-.12-.11l-2.15-.59a.66.66,0,0,0-.69.52h0s0,.08,0,.13a10.58,10.58,0,0,1-2.21,3.37,14.31,14.31,0,0,1-3.33,3l-.17.08a.77.77,0,0,0-.39.34c-.07.14-.05.26.06.31l1.93.84a.33.33,0,0,0,.22,0,3.68,3.68,0,0,0,1-.44,18,18,0,0,0,3.45-3.17,13,13,0,0,0,2.37-3.54,1.76,1.76,0,0,0,.1-.51A.61.61,0,0,0,301.29,313.57Zm-3,4.09a12.44,12.44,0,0,1-3.54,3.08l-1.34-.58a19.14,19.14,0,0,0,3.28-3.06,14,14,0,0,0,2.31-3.39l1.51.41C300.54,314.65,299.61,316.12,298.28,317.66Z" transform="translate(0 -10.79)"/><path id="_Path_16" data-name="&lt;Path&gt;" class="cls-8" d="M300.5,314.12c0,.53-.89,2-2.22,3.54a12.44,12.44,0,0,1-3.54,3.08l-1.34-.58a19.14,19.14,0,0,0,3.28-3.06,14,14,0,0,0,2.31-3.39Z" transform="translate(0 -10.79)"/></g></g></g><g id="_Group_21" data-name="&lt;Group&gt;"><g id="_Group_22" data-name="&lt;Group&gt;"><path id="_Compound_Path_11" data-name="&lt;Compound Path&gt;" class="cls-7" d="M194.56,338.17c-3.23,0-7.38,2.64-9.24,5.87s-.74,5.85,2.47,5.85h0c3.23,0,7.37-2.64,9.24-5.87a5.94,5.94,0,0,0,.89-2.8C198,339.4,196.78,338.17,194.56,338.17Zm1.77,5.85c-1.63,2.85-5.27,5.16-8.11,5.16s-3.82-2.3-2.18-5.14,5.27-5.14,8.1-5.15S198,341.19,196.33,344Z" transform="translate(0 -10.79)"/></g></g></g></g><path id="_Path_17" data-name="&lt;Path&gt;" class="cls-9" d="M373.92,150.56c-4.18,5.55-12.59,15.5-16.77,20.75a15.2,15.2,0,0,0-3.39,9.69c0,2.61.75,4.79,3.3,3.68,1.84-.81,3-1.76,5.71-4.42,2.42-2.39,16.43-20.1,16.43-20.1s1.15-9.91,4.77-11-1.3-4.08-1.3-4.08C381.14,145.27,378.12,145,373.92,150.56Z" transform="translate(0 -10.79)"/><g id="Pencil"><g id="_Group_23" data-name="&lt;Group&gt;"><g id="_Group_24" data-name="&lt;Group&gt;"><path id="_Path_18" data-name="&lt;Path&gt;" class="cls-10" d="M322.7,283.28l-26.14,29.84a1.22,1.22,0,0,1-2.12-.88l2.61-39.81Z" transform="translate(0 -10.79)"/><path id="_Path_19" data-name="&lt;Path&gt;" class="cls-11" d="M294.44,312.24a1.22,1.22,0,0,0,2.12.88l5.1-5.83h0a6.69,6.69,0,0,1-6.29-3l-.37-.57Z" transform="translate(0 -10.79)"/><path id="_Path_20" data-name="&lt;Path&gt;" class="cls-8" d="M361,117.78l-1.4,3.39-1.71,4.09L297.05,272.42A17.75,17.75,0,0,0,305.8,282c6,3.2,13.19,3.78,16.88,1.29l60.4-146.08,3.23-7.82C383.94,134.32,358.69,122.78,361,117.78Z" transform="translate(0 -10.79)"/><path id="_Path_21" data-name="&lt;Path&gt;" class="cls-4" d="M355.62,130.68l-3.12,7.59c-1,2.16,3.13,5.5,8.33,8.22,6.91,3.63,15.75,6.15,17.05,3.28l2.31-5.59.79-2c-1.3,2.87-10.15.35-17.05-3.27-5-2.61-9-5.82-8.38-8v0A.49.49,0,0,1,355.62,130.68Z" transform="translate(0 -10.79)"/><path id="_Path_22" data-name="&lt;Path&gt;" class="cls-8" d="M354.86,132.58c-2.28,5,23.08,16.52,25.36,11.49l3.15-7.58c-2.28,5-27.64-6.46-25.36-11.49Z" transform="translate(0 -10.79)"/><path id="_Path_23" data-name="&lt;Path&gt;" class="cls-4" d="M361,117.78l-3.11,7.48c-2.28,4.93,22.09,16.26,25.18,11.93a1.05,1.05,0,0,0,.16-.26l3.07-7.56C383.94,134.32,358.69,122.78,361,117.78Z" transform="translate(0 -10.79)"/><path id="_Path_24" data-name="&lt;Path&gt;" class="cls-12" d="M383.08,137.19l3.23-7.82c-1.07,2.23-6.82,1.1-12.58-1.27h0L310.65,283.94l-14.09,29.17,26.14-29.83h0Z" transform="translate(0 -10.79)"/><path id="_Path_25" data-name="&lt;Path&gt;" class="cls-10" d="M374.18,86,361,117.78c-1,2.14,3.05,5.47,8.2,8.19,6.89,3.65,15.75,6.23,17.1,3.4,0,0,0,0,0,0L399,98.79c3.54-6.89-8.67-15.55-17.44-16.05C378.27,82.52,375.5,83.45,374.18,86Z" transform="translate(0 -10.79)"/><path class="cls-13" d="M386.31,96.49l-12.57,31.6c5.12,2.11,10.22,3.24,12,1.88a2.3,2.3,0,0,0,.35-.36,1.37,1.37,0,0,0,.18-.24l13.05-31.49C397.7,101.66,386.31,96.49,386.31,96.49Z" transform="translate(0 -10.79)"/></g></g></g><g id="Girl"><g id="_Group_25" data-name="&lt;Group&gt;"><polygon id="_Path_26" data-name="&lt;Path&gt;" class="cls-14" points="425.73 295.03 418.52 297.18 415.39 286.67 422.77 284.15 425.73 295.03"/><path id="_Path_27" data-name="&lt;Path&gt;" class="cls-11" d="M417.46,304.41l-.31-1c-.6.51-.79,6.89-2.47,10.57-1.84,4-3.8,6.88-4.62,8.69C409,325,413.24,326.33,418,324c2.35-1.16,6.11-4.19,6.7-6.12s.39-4.46.92-5.9,2.14-3.36,2.21-4.86a9.3,9.3,0,0,0-1.54-3.67c-.72-1.17-1.49-2.47-1.9-2.22l.24.79a7.5,7.5,0,0,1-3,2.94C420.47,305.52,417.84,305.66,417.46,304.41Z" transform="translate(0 -10.79)"/><path id="_Path_28" data-name="&lt;Path&gt;" class="cls-15" d="M407.86,186c4.35,5.57,5.13,11.34,4.18,27.65s-1.25,30-1,30.87,5.36,7.47,7,13.43,6.13,39.79,6.13,39.79a10,10,0,0,1-8.2,3.72S397.84,252,396.62,248.34s-9-42.32-9-42.32l1.17-21.82Z" transform="translate(0 -10.79)"/><path id="_Path_29" data-name="&lt;Path&gt;" class="cls-11" d="M388.93,137.92h6a14.23,14.23,0,0,0,14.23-14.23h0A17.24,17.24,0,0,0,392,106.44h0a17.25,17.25,0,0,0-17.25,17.25h0A14.23,14.23,0,0,0,388.93,137.92Z" transform="translate(0 -10.79)"/><rect id="_Rectangle_" data-name="&lt;Rectangle&gt;" class="cls-14" x="372.32" y="291.94" width="7.52" height="10.96" transform="translate(3.96 -15.73) rotate(0.76)"/><path id="_Path_30" data-name="&lt;Path&gt;" class="cls-15" d="M374.64,204.73c.66-7.53,2.28-20.58,2.28-20.58L396.18,183c3.12,4.86,1.76,12.95.91,20.25l-11,43.13c.22,2.06,2.12,6.44,0,17.55-2.38,12.39-5.89,30.16-5.89,30.16s-5.49,2.77-8.2-.24c0,0-1.46-40.31-.44-51C372.66,231.23,374.19,209.89,374.64,204.73Z" transform="translate(0 -10.79)"/><path id="_Path_31" data-name="&lt;Path&gt;" class="cls-11" d="M372.3,299.13v-1.07c-.72.3-2.8,6.34-5.5,9.34-3,3.3-5.67,5.45-7,6.93-1.77,2,1.93,4.48,7.14,3.66,2.59-.41,7.07-2.18,8.22-3.84s1.7-4.14,2.62-5.37,3.05-2.56,3.56-4a9.15,9.15,0,0,0-.38-4c-.33-1.33-.69-2.8-1.15-2.68,0,.16,0,.82,0,.82a7.45,7.45,0,0,1-3.76,1.91C374.84,301.09,372.29,300.44,372.3,299.13Z" transform="translate(0 -10.79)"/><g id="_Group_26" data-name="&lt;Group&gt;"><path id="_Path_32" data-name="&lt;Path&gt;" class="cls-16" d="M379.2,169.06c-.47,4.4-3.31,23.51-3.31,23.51,14.52,7.74,32.52,2.61,35.28-.58-2.5-8.22-5.18-12.9-7.24-15.09l3.13-12.07s-7-7.47-.76-19.22l-7.7-.62-11.3-.34c-2.71.16-4.63.42-4.63.42a71.42,71.42,0,0,0-5.3,10.75C376.23,158.74,375,163,379.2,169.06Z" transform="translate(0 -10.79)"/></g><g id="_Group_27" data-name="&lt;Group&gt;"><path id="_Path_33" data-name="&lt;Path&gt;" class="cls-14" d="M380.86,114c-1.82,1.08-4.07,5.66-3.85,15.27.19,8.14,2.82,10.15,4.15,10.73s3.88.23,6.36-.19v4.89s-3.43,4-3.21,6.23,5,2.77,8.17.58A26,26,0,0,0,398.4,145l-.06-11.23s1.46,1.42,3.94-.75c2.05-1.79,2.74-4.81,1.14-6.43a3.57,3.57,0,0,0-5.67,1.13s-4,.15-9.24-2.75A14.83,14.83,0,0,1,380.86,114Z" transform="translate(0 -10.79)"/></g><g id="_Group_28" data-name="&lt;Group&gt;"><path id="_Path_34" data-name="&lt;Path&gt;" class="cls-11" d="M386.1,127.17a1,1,0,1,0,1.07-1A1,1,0,0,0,386.1,127.17Z" transform="translate(0 -10.79)"/></g><g id="_Group_29" data-name="&lt;Group&gt;"><path id="_Path_35" data-name="&lt;Path&gt;" class="cls-9" d="M385.82,134.07l-2.37.76a1.22,1.22,0,0,0,1.54.85A1.3,1.3,0,0,0,385.82,134.07Z" transform="translate(0 -10.79)"/></g><g id="_Group_30" data-name="&lt;Group&gt;"><path id="_Path_36" data-name="&lt;Path&gt;" class="cls-11" d="M377.7,124l2.07-1.44a1.2,1.2,0,0,0-1.72-.35A1.34,1.34,0,0,0,377.7,124Z" transform="translate(0 -10.79)"/></g><g id="_Group_31" data-name="&lt;Group&gt;"><path id="_Path_37" data-name="&lt;Path&gt;" class="cls-11" d="M378.18,126.43a1,1,0,1,0,1.08-1A1,1,0,0,0,378.18,126.43Z" transform="translate(0 -10.79)"/></g><g id="_Group_32" data-name="&lt;Group&gt;"><polygon id="_Path_38" data-name="&lt;Path&gt;" class="cls-9" points="383.01 115.06 382.85 121.22 379.61 120.21 383.01 115.06"/></g><g id="_Group_33" data-name="&lt;Group&gt;"><path id="_Path_39" data-name="&lt;Path&gt;" class="cls-9" d="M387.52,139.76c2.62-.34,8-1.89,8.85-4a5.52,5.52,0,0,1-1.89,2.72c-1.61,1.38-7,2.93-7,2.93Z" transform="translate(0 -10.79)"/></g><path id="_Path_40" data-name="&lt;Path&gt;" class="cls-11" d="M409.07,126.36l3.66-2.68a2.2,2.2,0,0,0-3.14-.57A2.38,2.38,0,0,0,409.07,126.36Z" transform="translate(0 -10.79)"/><path id="_Path_41" data-name="&lt;Path&gt;" class="cls-11" d="M391,223l-3.14-15.82a34.37,34.37,0,0,1-7.86-4,23.68,23.68,0,0,0,5.5,5.06Z" transform="translate(0 -10.79)"/></g><path id="_Path_42" data-name="&lt;Path&gt;" class="cls-11" d="M407,138c-3.34-1.69-2.88-4.86-1.2-8.2s4-5.6,7.31-3.92A6.79,6.79,0,0,1,407,138Z" transform="translate(0 -10.79)"/></g><g id="Arm"><path id="_Path_43" data-name="&lt;Path&gt;" class="cls-14" d="M353.16,188c1.68.43,3.3.3,5.62,1.09a10.34,10.34,0,0,0,4.91.84c2.17-.14,7.87-2.84,12.92-5.9A57.67,57.67,0,0,0,391,170.66c4.57-6.47,9.63-16.67,12.05-20.57s3.25-4.48,3.25-4.48c3.16.14,6.3,3,4.2,10.74-1.74,6.39-6.42,14.66-12.17,21.61A61.47,61.47,0,0,1,383,191c-5.34,3.26-10,4.88-16,6.86-1.62.55-2.68,1.35-5.65,2.74a13.43,13.43,0,0,1-3.79,1.4,17.52,17.52,0,0,1-5,0,11.82,11.82,0,0,1-5.76-2.47,7.34,7.34,0,0,1-2.13-2.72,4.93,4.93,0,0,1-.26-3.4,1.43,1.43,0,0,1,.33-.62,1.69,1.69,0,0,1,1.21-.28,68.75,68.75,0,0,0,7.3.36c2-.14,3.39-.52,3.1-.8s-1.45-.12-3.06-.81-2.64-2.22-2.2-3S351.48,187.58,353.16,188Z" transform="translate(0 -10.79)"/></g><path id="Hand" class="cls-14" d="M342.12,163.44a13.19,13.19,0,0,1,7.36-.92c2,.33,2,7-4.44,9.12-4.19,1.38-6.7.77-8.06,4.22,0,0-2.71-.36-2.1-4.22A21.55,21.55,0,0,1,340,161c1.85-2.18,2-4,2.88-3.4s.55,2.73.55,2.73Z" transform="translate(0 -10.79)"/><g id="Back_Arm" data-name="Back Arm"><path id="_Path_44" data-name="&lt;Path&gt;" class="cls-13" d="M82.51,168.31c4.46,5.33,12.59,15.5,16.77,20.75a15.22,15.22,0,0,1,3.39,9.69c0,2.61-.75,4.79-3.3,3.68-1.85-.81-3-1.76-5.71-4.42-2.43-2.39-11-12.7-11-12.7S76.08,168,72.46,166.9a16.78,16.78,0,0,0-6.13-.82C70.7,164.59,76.85,161.54,82.51,168.31Z" transform="translate(0 -10.79)"/><path id="_Path_45" data-name="&lt;Path&gt;" class="cls-17" d="M64.17,162.61c4.46-3.36,12-2.48,16.22,2.58C83.45,168.9,90.75,178,90.75,178a15.58,15.58,0,0,1-9.4,8.42Z" transform="translate(0 -10.79)"/></g><g id="Brush"><g id="_Group_34" data-name="&lt;Group&gt;"><path id="_Path_46" data-name="&lt;Path&gt;" class="cls-8" d="M149.71,282h0s-12.56-45.53-30.27-88.41C101.88,151.1,74.79,108,70.25,101.46a.22.22,0,0,0,0-.08l-.07-.1h0a3.43,3.43,0,0,0-6.18,2.06,3.33,3.33,0,0,0,.1.78h0s12,58.88,29.34,100.69,40.95,83.65,40.95,83.65h0a4.4,4.4,0,0,0,3.4,1.86,13,13,0,0,0,10.93-4.53A4.31,4.31,0,0,0,149.71,282Z" transform="translate(0 -10.79)"/><path id="_Path_47" data-name="&lt;Path&gt;" class="cls-12" d="M63.94,103.34a3.33,3.33,0,0,0,.1.78h0s12,58.88,29.34,100.69c11.63,28.12,26.14,56.26,34.4,71.67l9-5.75S64.69,101.2,67.38,99.9A3.44,3.44,0,0,0,63.94,103.34Z" transform="translate(0 -10.79)"/></g><g id="_Group_35" data-name="&lt;Group&gt;"><path id="_Path_48" data-name="&lt;Path&gt;" class="cls-4" d="M134.32,288.46c-1.45,7.35-4,16.78.62,29.05,5.22,13.92,21,17.75,28.59,17.77,10.57,0,17.26-3.92,17.26-3.92s-5.47-2.1-7.73-10a26.51,26.51,0,0,1-.83-5.27c-.48-6.39-.69-13.36-6.28-21.09a37,37,0,0,0-16.23-13Z" transform="translate(0 -10.79)"/><path id="_Path_49" data-name="&lt;Path&gt;" class="cls-8" d="M173.06,321.36a26.51,26.51,0,0,1-.83-5.27c0,.05-1.91,8.35-6.57,7.86s-6-5.46-12.21-5.46c-7.55,0-10.16,6.34-16.63,2.92,6.49,10.89,19.84,13.86,26.71,13.87,10.57,0,17.26-3.92,17.26-3.92S175.32,329.26,173.06,321.36Z" transform="translate(0 -10.79)"/><path id="_Path_50" data-name="&lt;Path&gt;" class="cls-12" d="M153.32,324c-12.23-8.47-9.93-31-9.57-34.67l-9.43-.9c-1.45,7.35-4,16.78.62,29.05,5.22,13.92,21,17.75,28.59,17.77,10.57,0,17.26-3.92,17.26-3.92S167.63,334,153.32,324Z" transform="translate(0 -10.79)"/></g><g id="_Group_36" data-name="&lt;Group&gt;"><path id="_Path_51" data-name="&lt;Path&gt;" class="cls-7" d="M134.32,288.46a4.42,4.42,0,0,0,3.4,1.86,13,13,0,0,0,10.93-4.53,4.32,4.32,0,0,0,1.07-3.77c-1.77-6.32-3.82-13.17-6.05-20.37.44,1.4,0,3.11-1.31,4.88a16.55,16.55,0,0,1-13.82,5.72c-2.25-.3-3.77-1.27-4.42-2.61C128,277,131.7,283.82,134.32,288.46Z" transform="translate(0 -10.79)"/><path id="_Path_52" data-name="&lt;Path&gt;" class="cls-15" d="M136.82,270.73a15.54,15.54,0,0,1-8.28,1.52c-2.25-.3-3.77-1.27-4.42-2.61,3.9,7.33,7.58,14.18,10.2,18.82a4.42,4.42,0,0,0,3.4,1.86,12.12,12.12,0,0,0,6-1l.12-.19-7.05-18.44Z" transform="translate(0 -10.79)"/></g></g><g id="Boy"><g id="_Group_37" data-name="&lt;Group&gt;"><circle id="_Path_53" data-name="&lt;Path&gt;" class="cls-11" cx="70.48" cy="136.18" r="10.85" transform="translate(-29.4 9.05) rotate(-13.28)"/><g id="_Group_38" data-name="&lt;Group&gt;"><g id="_Group_39" data-name="&lt;Group&gt;"><g id="_Group_40" data-name="&lt;Group&gt;"><rect id="_Rectangle_2" data-name="&lt;Rectangle&gt;" class="cls-10" x="44.51" y="319.7" width="7.64" height="13.08" transform="translate(96.66 641.7) rotate(180)"/><polygon id="_Path_54" data-name="&lt;Path&gt;" class="cls-10" points="71 308.22 78.64 308.48 79.02 294.64 71.38 294.38 71 308.22"/><path id="_Path_55" data-name="&lt;Path&gt;" class="cls-15" d="M45,216c0,7.29-.94,51.5-.94,51.5-.18,2.1-2.15,6-1.72,14,.58,10.95,1.53,39.42,1.53,39.42s3.58,3.55,8.64,0c0,0,6.91-39.39,8.28-50.24C62,261.28,64,235.54,64,235.54l7.08,30.3S69.86,273,69.58,278s1.3,31.33,1.3,31.33a8.33,8.33,0,0,0,8.31.32s6.14-39.69,6.93-44.23S80.75,216,80.75,216Z" transform="translate(0 -10.79)"/><path id="_Path_56" data-name="&lt;Path&gt;" class="cls-18" d="M52.35,163.25a8.36,8.36,0,0,0-6.71,6.42,27,27,0,0,0-.63,5.8V216c5.36,5.83,24,8.54,35.74,0,0,0-.23-35.83-1.11-41.71-1.52-10.23-6.42-13.88-11.33-13.49l-11.8,1.68Z" transform="translate(0 -10.79)"/><g id="_Group_41" data-name="&lt;Group&gt;"><g id="_Group_42" data-name="&lt;Group&gt;"><path id="_Path_57" data-name="&lt;Path&gt;" class="cls-11" d="M51.74,143.89s1.75,8.26,2.46,9.62a3.75,3.75,0,0,0,2.16,1.74l-.12-5.81Z" transform="translate(0 -10.79)"/><path id="_Path_58" data-name="&lt;Path&gt;" class="cls-11" d="M53.94,132.06a4.08,4.08,0,0,0-3.37,1.19c-1.44,1.48-.64,6.11,1.17,10.64l3.31.38Z" transform="translate(0 -10.79)"/><path id="_Path_59" data-name="&lt;Path&gt;" class="cls-10" d="M56,144.27c-.66.4-1.61-.87-2.43-1.73s-3.49-2-4.82.78S50,150,52.07,150.63c3.62,1.14,4.17-1.19,4.17-1.19l.27,13.08a11.68,11.68,0,0,0,8.81,6.68c6.43.87,5.1-4.43,3-7v-4a22.76,22.76,0,0,0,4.89.25c2.67-.41,4.34-2.51,5.15-5.4,1.3-4.64,1.79-8.38.69-17.5-1.21-10-12.83-10.09-19.11-6.14S56,144.27,56,144.27Z" transform="translate(0 -10.79)"/><path id="_Path_60" data-name="&lt;Path&gt;" class="cls-11" d="M56,145.39c-.33,0-1.6-2.1-2.43-2.85-1.14-1,.33-10.48.33-10.48a4.46,4.46,0,0,1,1.11-4.77c1.57-1.73,4.19-1.92,8.66-2.62,2.35-.37,5.91-1,8.26-1.46,2.8-.52,5.11-1.07,7.09.64a5,5,0,0,1,1.37,5.57,4.44,4.44,0,0,1-.79,1.18,4.63,4.63,0,0,1-2,1.39s-1.22,1.08-5.47,1.6a62.85,62.85,0,0,1-11.76-.22c-1.23-.17-1.5,1-2.16,4.29C57.65,140.52,57.16,145.37,56,145.39Z" transform="translate(0 -10.79)"/><path id="_Path_61" data-name="&lt;Path&gt;" class="cls-11" d="M54,132.8l-4-2.16a2.21,2.21,0,0,1,3-1A2.39,2.39,0,0,1,54,132.8Z" transform="translate(0 -10.79)"/><path id="_Path_62" data-name="&lt;Path&gt;" class="cls-13" d="M68.3,158.19s-5.95-1.2-8-2.3A6.86,6.86,0,0,1,57.39,153,9.4,9.4,0,0,0,59,156.4c1.53,1.94,9.28,3.38,9.28,3.38Z" transform="translate(0 -10.79)"/></g><g id="_Group_43" data-name="&lt;Group&gt;"><path id="_Path_63" data-name="&lt;Path&gt;" class="cls-11" d="M66.87,142.79A1.21,1.21,0,0,1,65.68,144a1.24,1.24,0,1,1,1.19-1.23Z" transform="translate(0 -10.79)"/><path id="_Path_64" data-name="&lt;Path&gt;" class="cls-11" d="M65.61,138.28l-2.56,1.41a1.53,1.53,0,0,1,.6-2A1.43,1.43,0,0,1,65.61,138.28Z" transform="translate(0 -10.79)"/><path id="_Path_65" data-name="&lt;Path&gt;" class="cls-13" d="M67.76,151l2.72,1a1.42,1.42,0,0,1-1.84.9A1.51,1.51,0,0,1,67.76,151Z" transform="translate(0 -10.79)"/><path id="_Path_66" data-name="&lt;Path&gt;" class="cls-11" d="M77.51,139.28l-2.33-1.8a1.42,1.42,0,0,1,2-.31A1.55,1.55,0,0,1,77.51,139.28Z" transform="translate(0 -10.79)"/><path id="_Path_67" data-name="&lt;Path&gt;" class="cls-11" d="M76.79,142.45a1.19,1.19,0,1,1-1.19-1.25A1.23,1.23,0,0,1,76.79,142.45Z" transform="translate(0 -10.79)"/><polygon id="_Path_68" data-name="&lt;Path&gt;" class="cls-13" points="70.71 130.53 71.11 137.7 74.85 136.42 70.71 130.53"/></g></g><path id="_Path_69" data-name="&lt;Path&gt;" class="cls-11" d="M52.15,329v-1.09c.73.32,2.43,6.8,5.46,9.56,2.41,2.2,5.7,4.74,6.54,7.19s-4.58,3.95-6.83,3.55c-2.62-.46-7.15-2.3-8.29-4s-1.67-4.22-2.6-5.48-3-2.64-3.55-4.09c-.28-.8,0-2.54.43-4s.74-2.84,1.2-2.71v.83A6.11,6.11,0,0,0,48.33,330C49.45,330.08,52.16,329.86,52.15,329Z" transform="translate(0 -10.79)"/><path id="_Path_70" data-name="&lt;Path&gt;" class="cls-11" d="M78.72,316.91c.39,0,.72.57,1.59,1.52a16.74,16.74,0,0,0,4.5,3.24c2.86,1.43,8.42,3.63,10.94,4.76,1.57.71,1.49,2.61-.13,3.69s-5.55,1.86-10.26.81c-2.57-.58-5.91-2.95-8-2.82s-6.07.1-7.63-1-.94-3.37-.5-5.35c.48-2.15,1.17-5.45,1.89-5.3l0,.68c.92,1.39,5.6,1.95,7.62.93Z" transform="translate(0 -10.79)"/></g></g></g><path id="_Path_71" data-name="&lt;Path&gt;" class="cls-11" d="M64,235.54a28.28,28.28,0,0,0,10.64-6.1s-2,3.85-8.16,7.42l2.3,19.54Z" transform="translate(0 -10.79)"/></g></g><g id="Arm-2" data-name="Arm"><g id="_Group_44" data-name="&lt;Group&gt;"><path id="_Path_72" data-name="&lt;Path&gt;" class="cls-10" d="M106.79,207.05c-1.68.43-3.3.29-5.62,1.09a10.45,10.45,0,0,1-4.91.83c-2.17-.13-7.87-2.83-12.92-5.89A57.86,57.86,0,0,1,69,189.7c-4.57-6.47-9.63-16.67-12.05-20.58s-4.71-4.31-7.4-4.19c-3.16.13-5.18,3-2.41,9a122.85,122.85,0,0,0,14.53,23A61.27,61.27,0,0,0,77,210c5.34,3.26,10,4.88,16,6.87,1.62.54,2.68,1.34,5.65,2.74a13.74,13.74,0,0,0,3.79,1.4,17.52,17.52,0,0,0,5,0,11.9,11.9,0,0,0,5.76-2.46,7.42,7.42,0,0,0,2.13-2.72,5,5,0,0,0,.26-3.41,1.4,1.4,0,0,0-.33-.61,1.64,1.64,0,0,0-1.21-.28c-2.38.08-4.93.52-7.3.36-2-.15-3.39-.52-3.1-.81s1.45-.11,3.06-.8,2.64-2.22,2.2-3.05S108.47,206.61,106.79,207.05Z" transform="translate(0 -10.79)"/></g><path id="_Path_73" data-name="&lt;Path&gt;" class="cls-17" d="M50.53,163.8c-2.44.12-5.58,1.61-5.52,5.75s6.43,16.2,11.35,23.09c0,0,7.66-.5,11.69-6.27,0,0-7.16-11.39-9.11-15C57.2,168.08,54.08,163.63,50.53,163.8Z" transform="translate(0 -10.79)"/></g><path id="Hand-2" data-name="Hand" class="cls-10" d="M114,181.05a12.43,12.43,0,0,0-7-.78c-2,.33-2,7,4.44,9.13,4.19,1.37,6.7.76,8.06,4.21,0,0,2.71-.36,2.1-4.21a21.58,21.58,0,0,0-5.11-10.69c-1.85-2.18-2-4-2.88-3.4s-.88,2.85-.88,2.85Z" transform="translate(0 -10.79)"/><g id="Paint_Pot" data-name="Paint Pot"><path id="_Path_74" data-name="&lt;Path&gt;" class="cls-15" d="M289.64,208.75l-36.71-.5-.32,30h0c0,2.71,1.73,5.44,5.29,7.55,7.12,4.21,18.74,4.34,26,.28,3.64-2.05,5.45-4.77,5.45-7.51Z" transform="translate(0 -10.79)"/><path id="_Path_75" data-name="&lt;Path&gt;" class="cls-7" d="M258.4,200.82c-7.21,4.06-7.29,10.77-.17,15s18.75,4.34,26,.28,7.29-10.77.16-15S265.61,196.76,258.4,200.82Z" transform="translate(0 -10.79)"/><path id="_Path_76" data-name="&lt;Path&gt;" class="cls-11" d="M288.06,208.63a4.56,4.56,0,0,1-.26,1.44c-.56,1.71-2.06,3.31-4.39,4.63a27.13,27.13,0,0,1-24.37-.26c-2.25-1.34-3.73-2.95-4.25-4.63a4.53,4.53,0,0,1-.26-1.54c0-2.24,1.68-4.39,4.65-6.05a27.13,27.13,0,0,1,24.37.26C286.48,204.22,288.08,206.39,288.06,208.63Z" transform="translate(0 -10.79)"/><path id="_Path_77" data-name="&lt;Path&gt;" class="cls-8" d="M287.8,210.07c-.56,1.71-2.06,3.31-4.39,4.63a27.13,27.13,0,0,1-24.37-.26c-2.25-1.34-3.73-2.95-4.25-4.63a8.81,8.81,0,0,1,4.39-4.62,27.05,27.05,0,0,1,24.37.26A9,9,0,0,1,287.8,210.07Z" transform="translate(0 -10.79)"/><path id="_Path_78" data-name="&lt;Path&gt;" class="cls-11" d="M279.11,220c.81-.45,1.45-.07,1.44.85a3.19,3.19,0,0,1-1.48,2.49c-.8.46-1.45.08-1.44-.85A3.24,3.24,0,0,1,279.11,220Z" transform="translate(0 -10.79)"/><g id="_Group_45" data-name="&lt;Group&gt;"><path id="_Path_79" data-name="&lt;Path&gt;" class="cls-6" d="M252.87,213.52c-2,4-6,13.44-.81,17.3.22.16.41.3.63.44l0,1.91c-.51-.32-1-.68-1.57-1.06-7.79-5.77,1-20.58,1.37-21.2a.74.74,0,0,1,.44-.34Z" transform="translate(0 -10.79)"/><path id="_Path_80" data-name="&lt;Path&gt;" class="cls-6" d="M279.79,222c-.22.46-5.89,11.3-15.21,13.48a13.62,13.62,0,0,1-3.22.38,16.23,16.23,0,0,1-8.69-2.72l0-1.91c3.86,2.67,7.73,3.59,11.53,2.71,8.6-2,14.12-12.58,14.16-12.68a.79.79,0,0,1,1.07-.34A.78.78,0,0,1,279.79,222Z" transform="translate(0 -10.79)"/></g></g><g id="Pencil_Can" data-name="Pencil Can"><g id="Can"><path id="_Path_81" data-name="&lt;Path&gt;" class="cls-15" d="M232.3,149.08h-84l9.39,77.29h0c.43,4.47,3.57,8.88,9.49,12.3,12.76,7.36,33.45,7.36,46.22,0,5.92-3.42,9.05-7.83,9.48-12.3h0Z" transform="translate(0 -10.79)"/><path id="_Path_82" data-name="&lt;Path&gt;" class="cls-7" d="M160.65,131.93c16.41-9.47,43-9.47,59.42,0s16.41,24.83,0,34.31-43,9.47-59.42,0S144.24,141.4,160.65,131.93Z" transform="translate(0 -10.79)"/><path id="_Path_83" data-name="&lt;Path&gt;" class="cls-11" d="M190.36,168.47c-10.38,0-20.07-2.29-27.27-6.46-6.37-3.67-9.87-8.26-9.87-12.93s3.5-9.25,9.86-12.93c7.21-4.16,16.9-6.45,27.28-6.45s20.06,2.29,27.27,6.45c6.36,3.68,9.87,8.27,9.87,12.93S224,158.34,217.63,162C210.42,166.18,200.74,168.47,190.36,168.47Z" transform="translate(0 -10.79)"/></g><g id="_Clip_Group_" data-name="&lt;Clip Group&gt;"><g class="cls-19"><g id="Pencil-2" data-name="Pencil"><path id="_Path_84" data-name="&lt;Path&gt;" class="cls-10" d="M213.62,212.54,198.12,242a1,1,0,0,1-1.9-.3l-5.68-33Z" transform="translate(0 -10.79)"/><path id="_Path_85" data-name="&lt;Path&gt;" class="cls-10" d="M213.62,212.54,198.12,242a1,1,0,0,1-1.9-.3l-5.68-33Z" transform="translate(0 -10.79)"/><path id="_Path_86" data-name="&lt;Path&gt;" class="cls-11" d="M196.22,241.74a1,1,0,0,0,1.9.3l3-5.76h0a5.63,5.63,0,0,1-5.73-1.21l-.41-.4Z" transform="translate(0 -10.79)"/><path id="_Path_87" data-name="&lt;Path&gt;" class="cls-8" d="M212.44,69.84l-.48,3-.59,3.67L190.54,208.7a14.91,14.91,0,0,0,9,6.09c5.5,1.44,11.52.5,14-2.26L234.28,81.37l1.11-7C234.42,78.85,211.53,74.38,212.44,69.84Z" transform="translate(0 -10.79)"/><path id="_Path_88" data-name="&lt;Path&gt;" class="cls-4" d="M210.58,81.43l-1.06,6.81c-.38,2,3.63,3.89,8.41,5.08,6.35,1.61,14.07,1.93,14.57-.67l.79-5,.25-1.8c-.5,2.6-8.22,2.28-14.57.68-4.58-1.16-8.46-3-8.41-4.87v0A.46.46,0,0,1,210.58,81.43Z" transform="translate(0 -10.79)"/><path id="_Path_89" data-name="&lt;Path&gt;" class="cls-8" d="M210.33,83.13c-.88,4.56,22.09,9,23,4.42l1.09-6.81c-.88,4.55-23.84.14-23-4.42Z" transform="translate(0 -10.79)"/><path id="_Path_90" data-name="&lt;Path&gt;" class="cls-4" d="M212.44,69.84l-1.07,6.72c-.89,4.47,21.24,8.94,22.91,4.81a.92.92,0,0,0,.08-.25l1-6.78C234.42,78.85,211.53,74.38,212.44,69.84Z" transform="translate(0 -10.79)"/><path id="_Path_91" data-name="&lt;Path&gt;" class="cls-12" d="M234.28,81.37l1.11-7c-.44,2-5.36,2.24-10.53,1.43h0l-21,139.67L198.12,242l15.5-29.5h0Z" transform="translate(0 -10.79)"/><path id="_Path_92" data-name="&lt;Path&gt;" class="cls-10" d="M217,41.31l-4.53,28.53c-.39,1.94,3.56,3.87,8.3,5.08,6.35,1.63,14.1,2,14.65-.58,0,0,0,0,0,0l4.35-27.44c1.54-6.32-10.13-11-17.4-9.69C219.63,37.65,217.54,39,217,41.31Z" transform="translate(0 -10.79)"/></g><g id="Pencil-3" data-name="Pencil"><path id="_Path_93" data-name="&lt;Path&gt;" class="cls-8" d="M163.58,206.06l-.43-3.05-.52-3.69L144.09,66.84c1.71,1.77,6.17,2.71,11,2.19,5.66-.61,10.86-2.93,12.11-5.62l18.39,131.51,1,7C185.71,197.44,162.75,201.51,163.58,206.06Z" transform="translate(0 -10.79)"/><path id="_Path_94" data-name="&lt;Path&gt;" class="cls-4" d="M161.92,194.44l-.95-6.82c-.34-2,3.7-3.83,8.51-4.94,6.37-1.5,14.1-1.69,14.55.92l.7,5,.22,1.8c-.45-2.61-8.17-2.42-14.55-.93-4.6,1.08-8.52,2.85-8.49,4.72v0A.34.34,0,0,0,161.92,194.44Z" transform="translate(0 -10.79)"/><path id="_Path_95" data-name="&lt;Path&gt;" class="cls-8" d="M161.7,192.73c-.8-4.57,22.24-8.58,23-4l1,6.83c-.79-4.57-23.83-.56-23,4Z" transform="translate(0 -10.79)"/><path id="_Path_96" data-name="&lt;Path&gt;" class="cls-4" d="M163.58,206.06l-1-6.74c-.82-4.48,21.39-8.57,23-4.4a.92.92,0,0,1,.08.25l.91,6.79C185.71,197.44,162.75,201.51,163.58,206.06Z" transform="translate(0 -10.79)"/><g id="_Group_46" data-name="&lt;Group&gt;"><path id="_Path_97" data-name="&lt;Path&gt;" class="cls-10" d="M153.56,40.78c-3.36.87-4.55.17-4.55.17l-4.92,25.89c2.68,3.84,9.21,4.65,14.74,3l-.17-1.29Z" transform="translate(0 -10.79)"/><path id="_Path_98" data-name="&lt;Path&gt;" class="cls-5" d="M167.23,63.41h0v0l-12.06-24h0Z" transform="translate(0 -10.79)"/><polygon id="_Path_99" data-name="&lt;Path&gt;" class="cls-6" points="155.17 28.66 152.25 22.85 155.17 28.66 155.17 28.66"/><path id="_Path_100" data-name="&lt;Path&gt;" class="cls-7" d="M150.34,33.91,149,41s1.14.8,4.55-.17l-1.31-7.14h0a1,1,0,0,0-1.34-.46A1,1,0,0,0,150.34,33.91Z" transform="translate(0 -10.79)"/><path id="_Path_101" data-name="&lt;Path&gt;" class="cls-12" d="M185.61,194.92,167.22,63.43c-1.3,3.14-4.61,5.36-8.39,6.45L176.1,200.35h0c5.18-.72,10.1-.43,10.5,1.61Z" transform="translate(0 -10.79)"/><path id="_Path_102" data-name="&lt;Path&gt;" class="cls-13" d="M167.22,63.43v0h0l-12.06-24a3.23,3.23,0,0,1-1.61,1.33l5.1,27.81.17,1.29C162.61,68.79,165.92,66.57,167.22,63.43Z" transform="translate(0 -10.79)"/><path id="_Path_103" data-name="&lt;Path&gt;" class="cls-15" d="M153.56,40.78a2.42,2.42,0,0,0,1.61-1.33l-2.92-5.81Z" transform="translate(0 -10.79)"/></g><path id="_Path_104" data-name="&lt;Path&gt;" class="cls-13" d="M167.61,234.66l-4-28.6c-.36-1.94,3.63-3.8,8.39-4.93,6.37-1.52,14.12-1.76,14.63.83,0,0,0,0,0,0l3.87,27.51c1.44,6.35-10.31,10.82-17.56,9.39C170.21,238.37,168.15,237,167.61,234.66Z" transform="translate(0 -10.79)"/></g><g id="Brush-2" data-name="Brush"><g id="_Group_47" data-name="&lt;Group&gt;"><path id="_Path_105" data-name="&lt;Path&gt;" class="cls-8" d="M182.9,54.87h0s-4.46,35.87-4.5,71.37c0,35.21,6.47,73.64,7.77,79.57,0,0,0,.05,0,.07a.37.37,0,0,1,0,.09h0a2.62,2.62,0,0,0,5,.36,2.51,2.51,0,0,0,.16-.58h0s8.74-45.15,8.77-79.78-4.43-71.14-4.43-71.14h0a3.33,3.33,0,0,0-1.85-2.31,10,10,0,0,0-9.06,0A3.31,3.31,0,0,0,182.9,54.87Z" transform="translate(0 -10.79)"/><path id="_Path_106" data-name="&lt;Path&gt;" class="cls-12" d="M191.17,206.33a2.51,2.51,0,0,0,.16-.58h0s8.74-45.15,8.77-79.78c0-23.29-2-47.43-3.31-60.74l-8.09,1.4s1.31,141-1,141.12A2.63,2.63,0,0,0,191.17,206.33Z" transform="translate(0 -10.79)"/></g><path id="_Path_107" data-name="&lt;Path&gt;" class="cls-20" d="M189.26,51.43c1.12-2.09,7.24-13.44,5.27-22.67a10.16,10.16,0,0,1-3.59-.76c-4.38-1.82-3.86-5.72-7-7.44s-6.92,3.58-7,3.62h0c-1.53,4.66-3.42,9.65-1.74,16.75a28.45,28.45,0,0,0,7.67,13.93l12.78,0c.79-1.19,1.67-2.46,2.55-3.84-.88,1.38-1.76,2.65-2.55,3.84Z" transform="translate(0 -10.79)"/><path id="_Path_108" data-name="&lt;Path&gt;" class="cls-12" d="M203.55,30.8c-2.71-3.27-5.5-1.92-9-2,2,9.23-4.15,20.58-5.27,22.67l6.41,3.4c.79-1.19,1.67-2.46,2.55-3.84l.66-1.06c.44-.72.87-1.48,1.28-2.27a33.31,33.31,0,0,0,1.71-3.85,29,29,0,0,0,.91-2.9,32,32,0,0,0,1-6.8A18,18,0,0,0,203.55,30.8Z" transform="translate(0 -10.79)"/><path class="cls-8" d="M203.55,30.75c-.09-.57-.2-1.13-.33-1.67a.75.75,0,0,0-.05-.16c-.1-.42-.22-.82-.35-1.21,0-.16-.1-.31-.16-.47s-.09-.23-.13-.35-.17-.43-.26-.64-.21-.5-.33-.75c-.27-.56-.56-1.11-.87-1.63s-.64-1.05-1-1.54-.71-1-1.09-1.43a28.69,28.69,0,0,0-8.51-6.9l-.71-.36-.2-.1c-.29-.13-.56-.26-.83-.37a32,32,0,0,0-5.24-1.67c-.8-.18-1.56-.31-2.27-.42s-1.36-.17-2-.22l-.85,0-.77,0c-.47,0-.88,0-1.22,0-.66,0-1,.08-1,.08s3.25,3.08,2.53,9.33a19.82,19.82,0,0,1-1,4s3.8-5.33,7-3.62,2.64,5.62,7,7.44a10.16,10.16,0,0,0,3.59.76c3.52.12,6.31-1.23,9,2Z" transform="translate(0 -10.79)"/><path id="_Path_109" data-name="&lt;Path&gt;" class="cls-12" d="M175.39,10.89s10.07,2,17.27,13.23a13.73,13.73,0,0,1,1.87,4.64c3.52.12,6.31-1.23,9,2v-.05c-.09-.57-.2-1.13-.33-1.67a.75.75,0,0,0-.05-.16c-.1-.42-.22-.82-.35-1.21,0-.16-.1-.31-.16-.47s-.09-.23-.13-.35-.17-.43-.26-.64-.21-.5-.33-.75c-.27-.56-.56-1.11-.87-1.63s-.64-1.05-1-1.54-.71-1-1.09-1.43a28.69,28.69,0,0,0-8.51-6.9l-.71-.36-.2-.1c-.29-.13-.56-.26-.83-.37a32,32,0,0,0-5.24-1.67c-.8-.18-1.56-.31-2.27-.42s-1.36-.17-2-.22l-.85,0-.77,0c-.47,0-.88,0-1.22,0-.66,0-1,.08-1,.08Z" transform="translate(0 -10.79)"/><g id="_Group_48" data-name="&lt;Group&gt;"><path id="_Path_110" data-name="&lt;Path&gt;" class="cls-7" d="M195.67,54.83a3.37,3.37,0,0,0-1.86-2.31,10,10,0,0,0-9.06,0,3.35,3.35,0,0,0-1.86,2.35c-.6,5-1.16,10.43-1.69,16.17A4.16,4.16,0,0,1,183.56,68,12.67,12.67,0,0,1,195,68a4.12,4.12,0,0,1,2.36,3.15C196.75,64.8,196.16,58.88,195.67,54.83Z" transform="translate(0 -10.79)"/><path id="_Path_111" data-name="&lt;Path&gt;" class="cls-15" d="M188.7,66.63A12.06,12.06,0,0,1,195,68a4.12,4.12,0,0,1,2.36,3.15c-.61-6.33-1.2-12.25-1.69-16.3a3.37,3.37,0,0,0-1.86-2.31,9.23,9.23,0,0,0-4.55-1.09l-.13.1-.43,15.1Z" transform="translate(0 -10.79)"/></g></g></g></g></g><path class="cls-13" d="M235.39,74.34s0,0,0,0l4.35-27.44a5.08,5.08,0,0,0,.12-.86c-1.79,4.73-10.8,2.33-10.8,2.33l-4.21,27.42C230,76.57,235,76.38,235.39,74.34Z" transform="translate(0 -10.79)"/></g></g></svg>