<?xml version="1.0" encoding="utf-8"?>
<!-- Generator: Adobe Illustrator 22.1.0, SVG Export Plug-In . SVG Version: 6.00 Build 0)  -->
<svg version="1.1" id="Layer_1" xmlns="http://www.w3.org/2000/svg" xmlns:xlink="http://www.w3.org/1999/xlink" x="0px" y="0px"
	 viewBox="0 0 1922 448.1" style="enable-background:new 0 0 1922 448.1;" xml:space="preserve">
<style type="text/css">
	.st0{opacity:0.401;fill:#2156D0;enable-background:new    ;}
	.st1{opacity:0.217;fill:#2156D0;enable-background:new    ;}
	.st2{fill:#2156D0;}
</style>
<g id="Group_23" transform="translate(0.158 -3034.104)">
	<path id="Path_290" class="st0" d="M149.4,3222.6c0,0,256-100.5,606.1,0s985.2-119.4,985.2-119.4s61.7-36.7,185.8-22.2
		c0.2,0.1-0.2,408.2,0,407.4l-800.3-13.1l-976.8,13.6L149.4,3222.6z"/>
	<path id="Path_299" class="st1" d="M-3.3,3180c0,0,256-100.5,606.1,0s985.2-119.4,985.2-119.4s215.7-36.7,339.7-22.2
		c0.2,0.1-0.2,408.2,0,407.4l-954.2-13.1l-976.8,13.6L-3.3,3180z"/>
	<path id="Path_289" class="st2" d="M-2.8,3240.6c0-6.7,4.6-12.5,11.1-14c100.6-22.8,294.5-48.8,531.2,19.2
		c340.1,97.7,946.5-101.4,979.5-117.2c1.1-0.5,5.9-2.4,6.9-2.9c13.7-6.4,131.7-72.9,357.4,22c12.7,5.2,25,11.5,36.7,18.7
		c4.2,2.6,6.7,7.2,6.7,12.1c0.1,42-0.1,239.8-0.1,295.1c0,7.9-6.4,14.4-14.2,14.3c-166.3-0.2-1735,0.6-1901.1,0.7
		c-7.9,0-14.2-6.4-14.2-14.3C-2.8,3428-2.7,3282.6-2.8,3240.6z"/>
</g>
</svg>
