<svg xmlns="http://www.w3.org/2000/svg" viewBox="0 0 430.61 419.89"><defs><style>.cls-1{isolation:isolate;}.cls-2,.cls-4{fill:#d9eeff;}.cls-2{opacity:0.2;}.cls-16,.cls-3{fill:#abd5fd;}.cls-11,.cls-5{fill:#fff;}.cls-16,.cls-19,.cls-5,.cls-6,.cls-9{opacity:0.5;}.cls-6,.cls-7{fill:#c1e4ff;}.cls-8,.cls-9{fill:#ffc000;}.cls-16,.cls-19,.cls-9{mix-blend-mode:multiply;}.cls-10{fill:#ffdb4c;}.cls-12{fill:#2343ba;}.cls-13{fill:#4c9fff;}.cls-14{fill:#2460da;}.cls-15,.cls-22{fill:#002176;}.cls-15{opacity:0.79;}.cls-17{fill:#27debf;}.cls-18,.cls-19{fill:#1bbc9d;}.cls-20{fill:#ffa8a7;}.cls-21{fill:#933;}.cls-23{fill:#281600;}.cls-24{fill:#764715;}.cls-25{fill:#f28f8f;}.cls-26{fill:#412b00;}</style></defs><title>Asset 1</title><g class="cls-1"><g id="Layer_2" data-name="Layer 2"><g id="Objects"><g id="_Group_" data-name="&lt;Group&gt;"><path id="_Path_" data-name="&lt;Path&gt;" class="cls-2" d="M63.06,386.94c84.08,43.93,220.41,43.93,304.49,0s84.08-115.14,0-159.07-220.41-43.92-304.49,0S-21,343,63.06,386.94Z"/><path id="_Path_2" data-name="&lt;Path&gt;" class="cls-3" d="M169.26,348.79c22.65,10.8,59.38,10.8,82,0s22.65-28.3,0-39.1-59.39-10.8-82,0S146.6,338,169.26,348.79Z"/><path id="_Path_3" data-name="&lt;Path&gt;" class="cls-3" d="M365.47,322.06l-81,46.75a4.79,4.79,0,0,1-4.33,0L178.88,310.33a1.32,1.32,0,0,1,0-2.5l81-46.75a4.79,4.79,0,0,1,4.33,0l101.28,58.48A1.32,1.32,0,0,1,365.47,322.06Z"/><g id="_Group_2" data-name="&lt;Group&gt;"><g id="_Group_3" data-name="&lt;Group&gt;"><path id="_Path_4" data-name="&lt;Path&gt;" class="cls-4" d="M388,65.07V86.54s-8.83,4.13-25,4.13-25-4.14-25-4.14v-21l16.88-47.77c-.22,1.5.66,3,2.64,4.18a10.33,10.33,0,0,0,9.73.61,9.93,9.93,0,0,0,1.27-.61c2.1-1.21,3-2.87,2.58-4.45Z"/><path id="_Path_5" data-name="&lt;Path&gt;" class="cls-5" d="M388,65.07V86.54s-8.83,4.13-25,4.13-25-4.14-25-4.14v-21l16.88-47.77c-.22,1.5.66,3,2.64,4.18a10.33,10.33,0,0,0,9.73.61,9.93,9.93,0,0,0,1.27-.61c2.1-1.21,3-2.87,2.58-4.45Z"/><path id="_Path_6" data-name="&lt;Path&gt;" class="cls-3" d="M386.07,215.57a17,17,0,0,1-5.4,4.64c-9.77,5.65-25.62,5.65-35.4,0a17,17,0,0,1-5.39-4.64A9.59,9.59,0,0,1,338,210.4v11.15c.17,3.56,2.61,7.09,7.31,9.81,9.78,5.64,25.63,5.64,35.4,0,4.89-2.82,7.33-6.52,7.33-10.22V210A9.46,9.46,0,0,1,386.07,215.57Z"/><path id="_Path_7" data-name="&lt;Path&gt;" class="cls-4" d="M386.07,204.42a17,17,0,0,1-5.4,4.64c-.57.33-1.17.64-1.78.93-9.22,4.4-22.61,4.4-31.84,0-.61-.29-1.2-.6-1.78-.93a17,17,0,0,1-5.39-4.64,9.56,9.56,0,0,1-1.92-5.16V210.4a9.59,9.59,0,0,0,1.92,5.17,17,17,0,0,0,5.39,4.64c9.78,5.65,25.63,5.65,35.4,0a17,17,0,0,0,5.4-4.64A9.46,9.46,0,0,0,388,210V198.85A9.45,9.45,0,0,1,386.07,204.42Z"/><path id="_Path_8" data-name="&lt;Path&gt;" class="cls-3" d="M386.07,193.27a17.17,17.17,0,0,1-5.4,4.65c-.57.33-1.17.63-1.78.93-9.22,4.4-22.61,4.4-31.84,0-.61-.3-1.2-.6-1.78-.93a17.12,17.12,0,0,1-5.39-4.65,9.56,9.56,0,0,1-1.92-5.16v11.15a9.56,9.56,0,0,0,1.92,5.16,17,17,0,0,0,5.39,4.64c.58.33,1.17.64,1.78.93,9.23,4.4,22.62,4.4,31.84,0,.61-.29,1.21-.6,1.78-.93a17,17,0,0,0,5.4-4.64,9.45,9.45,0,0,0,1.93-5.57V187.7A9.43,9.43,0,0,1,386.07,193.27Z"/><g id="_Group_4" data-name="&lt;Group&gt;"><path id="_Path_9" data-name="&lt;Path&gt;" class="cls-4" d="M338,65.49V188.11a9.56,9.56,0,0,0,1.92,5.16,17.12,17.12,0,0,0,5.39,4.65c.58.33,1.17.63,1.78.93a33,33,0,0,0,7.58,2.47L350.11,72.09Z"/><path id="_Path_10" data-name="&lt;Path&gt;" class="cls-4" d="M375.84,72.09l-4.52,129.23a32.78,32.78,0,0,0,7.57-2.47c.61-.3,1.21-.6,1.78-.93a17.17,17.17,0,0,0,5.4-4.65A9.43,9.43,0,0,0,388,187.7V65.07Z"/><path id="_Path_11" data-name="&lt;Path&gt;" class="cls-6" d="M338,65.49V188.11a9.56,9.56,0,0,0,1.92,5.16,17.12,17.12,0,0,0,5.39,4.65c.58.33,1.17.63,1.78.93a33,33,0,0,0,7.58,2.47L350.11,72.09Z"/><path id="_Path_12" data-name="&lt;Path&gt;" class="cls-6" d="M375.84,72.09l-4.52,129.23a32.78,32.78,0,0,0,7.57-2.47c.61-.3,1.21-.6,1.78-.93a17.17,17.17,0,0,0,5.4-4.65A9.43,9.43,0,0,0,388,187.7V65.07Z"/><path id="_Path_13" data-name="&lt;Path&gt;" class="cls-4" d="M350.11,72.09v128a36.16,36.16,0,0,0,4.52,1.24,42,42,0,0,0,8.35.83h0a42.66,42.66,0,0,0,8.34-.83,36.16,36.16,0,0,0,4.52-1.24v-128Z"/></g><path id="_Path_14" data-name="&lt;Path&gt;" class="cls-3" d="M368.48,21.89a9.93,9.93,0,0,1-1.27.61,10.33,10.33,0,0,1-9.73-.61c-2-1.14-2.86-2.68-2.64-4.18L360.6,1.58A2.54,2.54,0,0,1,363,0h0a2.54,2.54,0,0,1,2.38,1.58l5.7,15.84v0C371.44,19,370.58,20.68,368.48,21.89Z"/><path id="_Path_15" data-name="&lt;Path&gt;" class="cls-7" d="M380.67,231.36c-8.4,4.85-21.27,5.52-30.93,2-.55-.19-1.07-.4-1.59-.63l-.73-.3c-.74-.34-1.46-.71-2.15-1.1-4.7-2.72-7.14-6.25-7.31-9.81V251.9c-.19,3.84,2.25,7.71,7.31,10.63.61.35,1.24.68,1.88,1,.25.12.5.21.75.32.41.18.82.37,1.25.53s.68.24,1,.35.71.26,1.08.37.82.23,1.23.34.63.18.95.25.95.21,1.43.3c.27,0,.53.12.81.16.54.1,1.09.17,1.63.25.22,0,.44.06.65.09.61.07,1.23.12,1.84.16l.48,0c.67.05,1.34.07,2,.08h.31c.73,0,1.45,0,2.17,0h.16c.76,0,1.52-.09,2.27-.16h0A34.38,34.38,0,0,0,380,262.88h0c.22-.12.45-.22.66-.35,4.89-2.82,7.33-6.52,7.33-10.22V221.14C388,224.84,385.56,228.54,380.67,231.36Z"/></g></g><g id="_Group_5" data-name="&lt;Group&gt;"><g id="_Group_6" data-name="&lt;Group&gt;"><g id="_Group_7" data-name="&lt;Group&gt;"><g id="_Group_8" data-name="&lt;Group&gt;"><g id="_Group_9" data-name="&lt;Group&gt;"><path id="_Path_16" data-name="&lt;Path&gt;" class="cls-3" d="M350,311.11,348,310l1.41-.64s1.12.3,1.15.35-.08.77-.08.77Z"/><path id="_Path_17" data-name="&lt;Path&gt;" class="cls-8" d="M350,311.11,348,310l1.41-.64s1.12.3,1.15.35-.08.77-.08.77Z"/><path id="_Path_18" data-name="&lt;Path&gt;" class="cls-9" d="M350,311.11,348,310l1.41-.64s1.12.3,1.15.35-.08.77-.08.77Z"/><path id="_Path_19" data-name="&lt;Path&gt;" class="cls-10" d="M275.56,348.6a6.31,6.31,0,0,0,5.71,0l64.15-37-96-55.44-2.24-1.29-64.14,37c-1.58.91-1.58,2.4,0,3.3Z"/><path id="_Path_20" data-name="&lt;Path&gt;" class="cls-3" d="M299.64,278.64,322,291.51l14.48-8.36,16.85,9.74V305c0,1.47-1.65,3.56-2.25,3.22a16.6,16.6,0,0,0-3.22,1.14,23.83,23.83,0,0,0-4.65,3.44l-51.4-29.67Z"/><path id="_Path_21" data-name="&lt;Path&gt;" class="cls-10" d="M299.64,278.64,322,291.51l14.48-8.36,16.85,9.74V305c0,1.47-1.65,3.56-2.25,3.22a16.6,16.6,0,0,0-3.22,1.14,23.83,23.83,0,0,0-4.65,3.44l-51.4-29.67Z"/><path id="_Path_22" data-name="&lt;Path&gt;" class="cls-8" d="M299.64,278.64,322,291.51l14.48-8.36,16.85,9.74V305c0,1.47-1.65,3.56-2.25,3.22a16.6,16.6,0,0,0-3.22,1.14,23.83,23.83,0,0,0-4.65,3.44l-51.4-29.67Z"/><path id="_Path_23" data-name="&lt;Path&gt;" class="cls-9" d="M299.64,278.64,322,291.51l14.48-8.36,16.85,9.74V305c0,1.47-1.65,3.56-2.25,3.22a16.6,16.6,0,0,0-3.22,1.14,23.83,23.83,0,0,0-4.65,3.44l-51.4-29.67Z"/><path id="_Path_24" data-name="&lt;Path&gt;" class="cls-8" d="M281.28,348.59l3.87-2.24,58.07-33.52a3.63,3.63,0,0,1,.79-2.08,8.4,8.4,0,0,1,2.54-2.24,5.8,5.8,0,0,1,2.74-.85,2.92,2.92,0,0,1,1.8.59,10,10,0,0,0,1.07-4.8h2.19c0,3-1,6.08-2.23,6.78l-1.11.65c-.62.36-1.12.38-1.12,0v-.59c0-.66-1-.63-2.24.09s-2.23,1.82-2.23,2.48v.6c0,.34-.86,1.1-1.91,1.7l-56.15,32.43-6.08,3.5s0,0,0,0a6,6,0,0,1-2.85.67v-2.54A5.74,5.74,0,0,0,281.28,348.59Z"/><path id="_Path_25" data-name="&lt;Path&gt;" class="cls-8" d="M181.84,293.47v2.59a2,2,0,0,0,1.13,1.62l.05,0,86.47,49.92,6.07,3.5v0s0,0,0,0a6,6,0,0,0,2.85.67v-2.54a5.69,5.69,0,0,1-2.86-.69l-3.86-2.23h0L183,295.15A1.93,1.93,0,0,1,181.84,293.47Z"/><path id="_Path_26" data-name="&lt;Path&gt;" class="cls-9" d="M181.84,293.47v2.59a2,2,0,0,0,1.13,1.62l.05,0,86.47,49.92,6.07,3.5v0s0,0,0,0a6,6,0,0,0,2.85.67v-2.54a5.69,5.69,0,0,1-2.86-.69l-3.86-2.23h0L183,295.15A1.93,1.93,0,0,1,181.84,293.47Z"/></g><path id="_Path_27" data-name="&lt;Path&gt;" class="cls-11" d="M278.42,332.16V347a3.79,3.79,0,0,0,1.9-.45l7-4.06L341,311.53V296.05Z"/><path id="_Path_28" data-name="&lt;Path&gt;" class="cls-4" d="M184.62,279.86v11.41a4.23,4.23,0,0,0,1.9,3.3l83,47.9,7,4.06a3.8,3.8,0,0,0,1.91.45V333.73Z"/><path id="_Path_29" data-name="&lt;Path&gt;" class="cls-10" d="M341,311.53a3.74,3.74,0,0,1,.8-2.08,8.5,8.5,0,0,1,2.54-2.23,5.76,5.76,0,0,1,2.74-.86,2.9,2.9,0,0,1,1.8.59V291.5L341,296.05Z"/><path id="_Path_30" data-name="&lt;Path&gt;" class="cls-4" d="M344.1,307.35a8.2,8.2,0,0,0-2.35,2.1,3.74,3.74,0,0,0-.8,2.08V296.77h3.14Z"/><g id="_Group_10" data-name="&lt;Group&gt;"><path id="_Path_31" data-name="&lt;Path&gt;" class="cls-8" d="M249.4,238l96,55.44v1.29c0,.71,1,1,2.23.26s2.24-1.6,2.24-2.83L350,291l-97.83-56.48-.39-.23a1.32,1.32,0,0,0-.17.59v.6C251.62,236.16,250.63,237.31,249.4,238Z"/><path id="_Path_32" data-name="&lt;Path&gt;" class="cls-10" d="M281.27,330.51,344,294.29c.8-.41,1.53-.75,1.83-.59l-.4-.23L249.4,238s-.57-.32-1.12-.65a3.67,3.67,0,0,0-3,.45L183,273.77c-1.58.91-1.58,2.39,0,3.3l92.54,53.44A6.31,6.31,0,0,0,281.27,330.51Z"/><path id="_Path_33" data-name="&lt;Path&gt;" class="cls-10" d="M251.79,234.26l.39.23L350,291a.79.79,0,0,1,.21-.27l.33-.19.7-.4.87-.51a.89.89,0,0,1,1.11.1.27.27,0,0,1,.11.1,1.89,1.89,0,0,1,.3.41,2.31,2.31,0,0,1,.25.55,3.87,3.87,0,0,1,.2.63c.06.25.1.49.14.75a2.22,2.22,0,0,1,.06.45c0,.12,0,.23,0,.37s0,.56,0,.85v-2.75a5.85,5.85,0,0,0-2.85-4.39l-92.56-53.44a5.73,5.73,0,0,0-5.09-.37l-1.16.68-.05,0c-.07.05-.27.16-.49.28a0,0,0,0,0,0,0A.93.93,0,0,0,251.79,234.26Z"/><path id="_Path_34" data-name="&lt;Path&gt;" class="cls-8" d="M281.25,330.52h0l3.88-2.25,44.61-25.74L344,294.3c1-.6,1.83-.81,1.89-.5,0,0,0,0,0,0v.64c0,.72,1,.72,2.23,0a3,3,0,0,0,1.76-2.24v-.7a1,1,0,0,1,.33-.84l.33-.19.7-.4.87-.51a.89.89,0,0,1,1.11.1.27.27,0,0,1,.11.1,1,1,0,0,1,.2.26.78.78,0,0,1,.1.15,2.31,2.31,0,0,1,.25.55,3.87,3.87,0,0,1,.2.63c.06.25.1.49.14.75a2.22,2.22,0,0,1,.06.45c0,.12,0,.23,0,.37s0,.56,0,.85v9.64h-2.19v-9.64c0-.23,0-.46,0-.68l-.05-.55a.09.09,0,0,0,0-.05c-.2,1.75-1.87,3.31-3.32,4.13a5.49,5.49,0,0,1-2.69.84,2.92,2.92,0,0,1-2-.73l-.2.11-.39.23-56.15,32.43-6.08,3.51h0l0,0a5.93,5.93,0,0,1-2.8.65v-2.54A5.86,5.86,0,0,0,281.25,330.52Z"/><path id="_Path_35" data-name="&lt;Path&gt;" class="cls-8" d="M181.84,275.39V278A2,2,0,0,0,183,279.6l.05,0,86.47,49.92,6.07,3.51h0a6,6,0,0,0,2.85.67v-2.54a5.79,5.79,0,0,1-2.86-.68l-3.86-2.23h0L183,277.07A2,2,0,0,1,181.84,275.39Z"/><path id="_Path_36" data-name="&lt;Path&gt;" class="cls-9" d="M181.84,275.39V278A2,2,0,0,0,183,279.6l.05,0,86.47,49.92,6.07,3.51h0a6,6,0,0,0,2.85.67v-2.54a5.79,5.79,0,0,1-2.86-.68l-3.86-2.23h0L183,277.07A2,2,0,0,1,181.84,275.39Z"/></g></g><path id="_Path_37" data-name="&lt;Path&gt;" class="cls-8" d="M245.25,237.83a3.67,3.67,0,0,1,3-.45l1.11.65c1.24-.72,2.23-1.87,2.23-2.58v-.6a1.32,1.32,0,0,1,.17-.59.93.93,0,0,1,.35-.4,0,0,0,0,1,0,0c.22-.12.42-.23.49-.28l.05,0,1.16-.68a5.73,5.73,0,0,1,5.09.37l92.56,53.44.09.06L286.2,324.48a4.17,4.17,0,0,1-3.8,0l-93.16-54.31Z"/></g></g><g id="_Group_11" data-name="&lt;Group&gt;"><g id="_Group_12" data-name="&lt;Group&gt;"><path id="_Path_38" data-name="&lt;Path&gt;" class="cls-12" d="M291.44,319,289,317.61a4,4,0,0,1,2.08-.15C291.7,317.77,291.44,319,291.44,319Z"/><path id="_Path_39" data-name="&lt;Path&gt;" class="cls-12" d="M293.14,317.47a3,3,0,0,0-4.41,0c-2.41,2.21-2.53,4.4-3.53,4.37s-1-17.65-1-17.65l9.49,8.82Z"/><path id="_Path_40" data-name="&lt;Path&gt;" class="cls-13" d="M193.71,253.42l-.15-.09,1.52-.88,65.47-37.8L356,276.39c1.58.91,1.86,2.23.63,2.93l-2.24,1.29L293.15,316l-.43-.32Z"/><path id="_Path_41" data-name="&lt;Path&gt;" class="cls-10" d="M285,295.85l4.74-1v19c-2.86,1.22-4.67,2.36-5,4.75Z"/><path id="_Path_42" data-name="&lt;Path&gt;" class="cls-4" d="M291.82,314.1l60.63-35a4.22,4.22,0,0,0,1.9-3.3V257.09l-61.21,35.65s-.73,2.65-2.9,3.48-.52,1.68-.52,1.68v16C291.6,313.63,291.82,314.1,291.82,314.1Z"/><path id="_Path_43" data-name="&lt;Path&gt;" class="cls-14" d="M286.23,295.2c.63-.36,1.12-.38,1.12,0v.59c0,.66,1,.63,2.24-.09s2.25-1.82,2.25-2.48v-.6c0-.34.84-1.1,1.89-1.7l-98.65-56.52-1.52.88a1.43,1.43,0,0,0-.38.82v.6c0,.66-1,1.77-2.23,2.48s-2.24.75-2.24.09v-.6c0-.34-.5-.31-1.13.05Z"/><path id="_Path_44" data-name="&lt;Path&gt;" class="cls-13" d="M193.71,235.33l-.15-.09,1.52-.88,65.47-37.8L356,251.66c1.58.91,1.86,2.22.63,2.93l-2.24,1.28-61.21,36.87Z"/><path id="_Path_45" data-name="&lt;Path&gt;" class="cls-13" d="M188.69,238.06,287.25,295l-3.45,2.7-98.25-56.72a3.83,3.83,0,0,1,1.32-1.83Z"/><g id="_Group_13" data-name="&lt;Group&gt;"><path id="_Path_46" data-name="&lt;Path&gt;" class="cls-12" d="M185.94,266.43l-.18-.13a.5.5,0,0,1-.11-.1,1.89,1.89,0,0,1-.2-.27.48.48,0,0,1-.09-.14,2.8,2.8,0,0,1-.26-.55c-.07-.2-.14-.42-.2-.64s-.09-.48-.14-.74a3.44,3.44,0,0,1,0-.45c0-.13,0-.24,0-.37s0-.56,0-.85V245.9a13.5,13.5,0,0,1,.91-5l98.25,56.72.42,25.52L186,266.44Z"/><path id="_Path_47" data-name="&lt;Path&gt;" class="cls-15" d="M283.8,297.66h0s-77.37-36.21-84.41-39.53c-4.65-2.19-6.93,2.41-5.83,7.17,1,4.16,5.06,8.45,5.06,8.45h0L186,266.44h0l-.18-.13a.5.5,0,0,1-.11-.1,1.89,1.89,0,0,1-.2-.27.48.48,0,0,1-.09-.14,2.8,2.8,0,0,1-.26-.55c-.07-.2-.14-.42-.2-.64s-.09-.48-.14-.74a3.44,3.44,0,0,1,0-.45c0-.13,0-.24,0-.37s0-.56,0-.85V245.9a13.5,13.5,0,0,1,.91-5Z"/></g><g id="_Group_14" data-name="&lt;Group&gt;"><g id="_Group_15" data-name="&lt;Group&gt;"><path id="_Path_48" data-name="&lt;Path&gt;" class="cls-14" d="M282.89,302.63h2.2a9.87,9.87,0,0,1,1.07-4.8,2.92,2.92,0,0,0,1.8.59,5.69,5.69,0,0,0,2.74-.86,8.36,8.36,0,0,0,2.54-2.23,1.37,1.37,0,0,0,.13-.2,3.54,3.54,0,0,0,.66-1.88l58.07-33.52,2-1.15,2.52-1.45a1.34,1.34,0,0,0,.77-1.13v-2.57a1.35,1.35,0,0,1-.77,1.16l0,0-6.66,3.84-56.16,32.43c-1,.6-1.9,1.36-1.9,1.7v.6a1.78,1.78,0,0,1-.51,1,6.41,6.41,0,0,1-1.72,1.44c-1.24.72-2.24.75-2.24.09v-.59c0-.35-.5-.32-1.12,0l-1.12.65C283.89,296.55,282.89,299.6,282.89,302.63Z"/></g><g id="_Group_16" data-name="&lt;Group&gt;"><path id="_Path_49" data-name="&lt;Path&gt;" class="cls-14" d="M285.09,302.63v16.29c0,.23,0,.46,0,.68l.06.55a.09.09,0,0,0,0,.05c.2-1.75,1.87-3.31,3.32-4.13a5.48,5.48,0,0,1,2.68-.84,3,3,0,0,1,2,.73l.2-.11.38-.23,56.16-32.43,3.22-1.86.93-.54,2.71-1.57a1.26,1.26,0,0,0,.61-1.05v2.57a1.26,1.26,0,0,1-.56,1l0,0c-.32.19-.66.37-1,.58l-.62.37-1.08.62c-.24.15-.46.28-.67.39s-.33.2-.47.27l-.83.49-44.61,25.74-14.24,8.22c-1,.6-1.84.81-1.89.5a.59.59,0,0,1,0-.11v-.57c0-.72-1-.72-2.23,0a3,3,0,0,0-1.76,2.24v.7a1,1,0,0,1-.33.84l-.33.19-.71.4-.87.51A.89.89,0,0,1,284,323a.5.5,0,0,1-.11-.1,1.24,1.24,0,0,1-.19-.26h0a.45.45,0,0,1-.1-.14,2.8,2.8,0,0,1-.26-.55,5.19,5.19,0,0,1-.19-.63c-.06-.25-.1-.49-.15-.75a3.26,3.26,0,0,1-.05-.45c0-.12,0-.23,0-.37a7.81,7.81,0,0,1,0-.85V302.63Z"/></g></g></g><path id="_Path_50" data-name="&lt;Path&gt;" class="cls-14" d="M185.56,240.93l93.37,53.92,70.59-40.75a1.16,1.16,0,0,0,0-2.2l-92.4-53.36-62,35.82h0l-1.53.89a1.42,1.42,0,0,0-.37.81v.6c0,.66-1,1.77-2.24,2.48a.87.87,0,0,1-.19.1l-2.06-1.19-1,.56-.13.07h0l-.72.42A3.72,3.72,0,0,0,185.56,240.93Z"/></g><g id="_Group_17" data-name="&lt;Group&gt;"><path id="_Path_51" data-name="&lt;Path&gt;" class="cls-3" d="M344.26,254.5l-2.81-1.5,2.56-.61A2,2,0,0,1,344.26,254.5Z"/><path id="_Path_52" data-name="&lt;Path&gt;" class="cls-16" d="M344.26,254.5l-2.81-1.5,2.56-.61A2,2,0,0,1,344.26,254.5Z"/><g id="_Group_18" data-name="&lt;Group&gt;"><path id="_Path_53" data-name="&lt;Path&gt;" class="cls-17" d="M269.83,292a6.33,6.33,0,0,0,5.72,0l64.14-37-96-60.69-2.24-1.3-64.14,42.29c-1.57.91-1.57,2.39,0,3.3Z"/><path id="_Path_54" data-name="&lt;Path&gt;" class="cls-18" d="M293.92,216.77l48.46,32.84-26.09-20,14.48-8.36L347.61,231v17.39c0,1.48-1.65,3.57-2.25,3.23a16.6,16.6,0,0,0-3.22,1.14,24.17,24.17,0,0,0-4.65,3.44l-51.4-34.93Z"/><path id="_Path_55" data-name="&lt;Path&gt;" class="cls-16" d="M176.11,236.86v2.58a2,2,0,0,0,1.14,1.63l0,0L263.76,291l6.07,3.51h0a6,6,0,0,0,2.85.67v-2.54a5.82,5.82,0,0,1-2.86-.68L266,289.75h0l-88.67-51.21A2,2,0,0,1,176.11,236.86Z"/></g><path id="_Path_56" data-name="&lt;Path&gt;" class="cls-11" d="M272.69,270.29v20.08a3.87,3.87,0,0,0,1.9-.45l7-4.06,53.59-30.94,0-20.74Z"/><path id="_Path_57" data-name="&lt;Path&gt;" class="cls-4" d="M178.9,218v16.67a4.21,4.21,0,0,0,1.9,3.3l83,47.9,7,4.06a3.9,3.9,0,0,0,1.9.45V271.86Z"/><path id="_Path_58" data-name="&lt;Path&gt;" class="cls-17" d="M335.22,254.92a3.76,3.76,0,0,1,.81-2.08,8.23,8.23,0,0,1,2.54-2.23,5.69,5.69,0,0,1,2.74-.86,2.85,2.85,0,0,1,1.8.42V229.63l-7.87,4.55Z"/><path id="_Path_59" data-name="&lt;Path&gt;" class="cls-4" d="M338.37,250.73a8.21,8.21,0,0,0-2.34,2.11,3.76,3.76,0,0,0-.81,2.08l0-20h3.13Z"/><g id="_Group_19" data-name="&lt;Group&gt;"><path id="_Path_60" data-name="&lt;Path&gt;" class="cls-18" d="M243.67,176.16l96,55.45v1.28c0,.72,1,1,2.23.27s2.24-1.61,2.24-2.84l.13-1.22-97.83-56.48-.4-.23a1.33,1.33,0,0,0-.17.6v.59C245.89,174.29,244.9,175.44,243.67,176.16Z"/><path id="_Path_61" data-name="&lt;Path&gt;" class="cls-17" d="M275.55,268.64l62.72-36.21c.79-.42,1.52-.76,1.83-.6l-.41-.22-96-55.45-1.12-.64a3.57,3.57,0,0,0-3,.45L177.29,211.9c-1.57.91-1.57,2.4,0,3.3l92.54,53.44A6.33,6.33,0,0,0,275.55,268.64Z"/><path id="_Path_62" data-name="&lt;Path&gt;" class="cls-17" d="M246.06,172.39l.4.23,97.83,56.48a.69.69,0,0,1,.2-.27l.33-.18.71-.41.87-.51a.9.9,0,0,1,1.11.1l.11.1a1.77,1.77,0,0,1,.29.41,2.8,2.8,0,0,1,.26.55c.07.2.14.42.2.64s.09.48.14.74a3.41,3.41,0,0,1,.05.46c0,.12,0,.23,0,.36s0,.56,0,.86V229.2a5.86,5.86,0,0,0-2.86-4.4l-92.55-53.44a5.73,5.73,0,0,0-5.09-.36l-1.17.68,0,0-.5.29h0A1,1,0,0,0,246.06,172.39Z"/><path id="_Path_63" data-name="&lt;Path&gt;" class="cls-18" d="M275.55,292l3.87-2.24,58.07-33.53a3.76,3.76,0,0,1,.79-2.08,8.5,8.5,0,0,1,2.54-2.23,5.83,5.83,0,0,1,2.74-.85,2.86,2.86,0,0,1,1.8.59,9.92,9.92,0,0,0,1.07-4.81h2.2c0,3-1,6.08-2.23,6.79l-1.11.65c-.63.36-1.13.38-1.13,0v-.59c0-.66-1-.63-2.24.08s-2.23,1.83-2.23,2.49v.59c0,.34-.86,1.1-1.9,1.71L281.63,291l-6.08,3.51h0a6,6,0,0,1-2.85.67v-2.54A5.79,5.79,0,0,0,275.55,292Z"/><path id="_Path_64" data-name="&lt;Path&gt;" class="cls-18" d="M275.53,268.65h0l3.87-2.24L324,240.66l14.24-8.23c1-.59,1.84-.8,1.89-.49a0,0,0,0,1,0,0v.65c0,.71,1,.71,2.24,0a3,3,0,0,0,1.75-2.25v-.7a1.06,1.06,0,0,1,.33-.84l.33-.18.71-.41.87-.51a.9.9,0,0,1,1.11.1l.11.1a1.89,1.89,0,0,1,.2.27.48.48,0,0,1,.09.14,2.8,2.8,0,0,1,.26.55c.07.2.14.42.2.64s.09.48.14.74a3.41,3.41,0,0,1,.05.46c0,.12,0,.23,0,.36s0,.56,0,.86v14.88h-2.2V232c0-.23,0-.47,0-.69l-.06-.55a.09.09,0,0,0,0-.05c-.2,1.75-1.87,3.31-3.32,4.13a5.48,5.48,0,0,1-2.68.84,3,3,0,0,1-2-.73l-.2.11-.38.23-56.16,32.43-6.08,3.51h0l0,0a6,6,0,0,1-2.81.65v-2.54A5.9,5.9,0,0,0,275.53,268.65Z"/><path id="_Path_65" data-name="&lt;Path&gt;" class="cls-19" d="M275.55,292l3.87-2.24,58.07-33.53a3.76,3.76,0,0,1,.79-2.08,8.5,8.5,0,0,1,2.54-2.23,5.83,5.83,0,0,1,2.74-.85,2.86,2.86,0,0,1,1.8.59,9.92,9.92,0,0,0,1.07-4.81h2.2c0,3-1,6.08-2.23,6.79l-1.11.65c-.63.36-1.13.38-1.13,0v-.59c0-.66-1-.63-2.24.08s-2.23,1.83-2.23,2.49v.59c0,.34-.86,1.1-1.9,1.71L281.63,291l-6.08,3.51h0a6,6,0,0,1-2.85.67v-2.54A5.79,5.79,0,0,0,275.55,292Z"/><path id="_Path_66" data-name="&lt;Path&gt;" class="cls-19" d="M275.53,268.65h0l3.87-2.24L324,240.66l14.24-8.23c1-.59,1.84-.8,1.89-.49a0,0,0,0,1,0,0v.65c0,.71,1,.71,2.24,0a3,3,0,0,0,1.75-2.25v-.7a1.06,1.06,0,0,1,.33-.84l.33-.18.71-.41.87-.51a.9.9,0,0,1,1.11.1l.11.1a1.89,1.89,0,0,1,.2.27.48.48,0,0,1,.09.14,2.8,2.8,0,0,1,.26.55c.07.2.14.42.2.64s.09.48.14.74a3.41,3.41,0,0,1,.05.46c0,.12,0,.23,0,.36s0,.56,0,.86v14.88h-2.2V232c0-.23,0-.47,0-.69l-.06-.55a.09.09,0,0,0,0-.05c-.2,1.75-1.87,3.31-3.32,4.13a5.48,5.48,0,0,1-2.68.84,3,3,0,0,1-2-.73l-.2.11-.38.23-56.16,32.43-6.08,3.51h0l0,0a6,6,0,0,1-2.81.65v-2.54A5.9,5.9,0,0,0,275.53,268.65Z"/><path id="_Path_67" data-name="&lt;Path&gt;" class="cls-18" d="M176.11,213.52v2.58a2,2,0,0,0,1.14,1.63l0,0,86.47,49.92,6.07,3.51h0a6,6,0,0,0,2.85.67v-2.54a5.82,5.82,0,0,1-2.86-.68L266,266.41h0L177.29,215.2A2,2,0,0,1,176.11,213.52Z"/><path id="_Path_68" data-name="&lt;Path&gt;" class="cls-18" d="M176.11,236.86v2.58a2,2,0,0,0,1.14,1.63l0,0L263.76,291l6.07,3.51h0a6,6,0,0,0,2.85.67v-2.54a5.82,5.82,0,0,1-2.86-.68L266,289.75h0l-88.67-51.21A2,2,0,0,1,176.11,236.86Z"/></g></g></g><g id="_Group_20" data-name="&lt;Group&gt;"><g id="_Group_21" data-name="&lt;Group&gt;"><polygon id="_Path_69" data-name="&lt;Path&gt;" class="cls-20" points="216.05 146.13 206.88 162.49 220.26 169.61 230 155.11 216.05 146.13"/><path id="_Path_70" data-name="&lt;Path&gt;" class="cls-21" d="M248.63,109.28c-5.1-.87-12.83-1.1-17.85,7.51s-15.84,29.86-15.84,29.86,6.33,8.18,15.47,9.67l15-23.72Z"/><rect id="_Rectangle_" data-name="&lt;Rectangle&gt;" class="cls-20" x="225.16" y="309.64" width="11.42" height="19.55"/><polygon id="_Path_71" data-name="&lt;Path&gt;" class="cls-20" points="203.51 304.88 192.1 305.27 191.53 284.58 202.94 284.19 203.51 304.88"/><path id="_Path_72" data-name="&lt;Path&gt;" class="cls-22" d="M225.16,323.55v-1.63c-1.09.47-3.63,10.16-8.16,14.29-3.6,3.29-8.52,7.08-9.77,10.74-1.3,3.81,6.85,5.92,10.21,5.32,3.91-.69,10.69-3.44,12.39-6s2.5-6.31,3.88-8.18,4.57-4,5.32-6.13c.41-1.19-.08-3.79-.66-6-.53-2-1.1-4.24-1.79-4.05v1.24c-.83.92-3.12,1.83-5.71,1.93C229.2,325.16,225.15,324.83,225.16,323.55Z"/><path id="_Path_73" data-name="&lt;Path&gt;" class="cls-22" d="M192,301.75c-.6,0-1.08.86-2.39,2.27a24.78,24.78,0,0,1-6.71,4.83c-4.28,2.14-12.59,5.44-16.36,7.13-2.35,1.06-2.24,3.9.19,5.52s8.3,2.78,15.34,1.2c3.84-.86,8.83-4.4,12-4.21s9.07.15,11.41-1.46,1.4-5,.74-8c-.72-3.22-1.75-8.15-2.82-7.93l0,1c-1.38,2.08-8.37,2.93-11.38,1.4Z"/><path id="_Path_74" data-name="&lt;Path&gt;" class="cls-14" d="M282.58,190.75c2.5,17.65-.87,21-17.64,37.94-9,9.09-23.56,22.42-23.56,22.42s.21,5.64.33,18.28c.1,11.13-4.55,47.35-4.55,47.35s-7.57,3.19-12.78-.12c0,0-2.35-26.95-3.61-41-1.72-19-2.63-28.58-1.65-32.67.86-3.61,17.93-25.17,21.87-31.21l-36.28,21.07a122.7,122.7,0,0,1,1,16.11c-.39,15.11-2.25,45.29-2.25,45.29s-8.31,3.71-12.43.51c0,0-10.45-66-10.45-71.42,0-8.23,35.75-32.8,42.51-38.52,3.86-3.26,8.17-6.75,8.17-6.75Z"/><path id="_Path_75" data-name="&lt;Path&gt;" class="cls-12" d="M241,211.75a26.23,26.23,0,0,1-8.29-11.83,59.52,59.52,0,0,0,1.29,9c1,3.92-29.28,23.9-29.28,23.9Z"/><circle id="_Path_76" data-name="&lt;Path&gt;" class="cls-23" cx="245.36" cy="74.01" r="16.21" transform="translate(117.32 296.02) rotate(-76.81)"/><path id="_Path_77" data-name="&lt;Path&gt;" class="cls-21" d="M279.43,119.1s4,3.28,4,13.64v22.37l-.58,37.62c-8,8.71-44,5.41-52.9-13.59,0,0,.07-39.71.07-48.61s4.95-20.45,18.6-21.25l17.62,4.1Z"/><g id="_Group_22" data-name="&lt;Group&gt;"><g id="_Group_23" data-name="&lt;Group&gt;"><path id="_Path_78" data-name="&lt;Path&gt;" class="cls-23" d="M273.39,85.54s-2.63,12.34-3.68,14.37a5.58,5.58,0,0,1-3.23,2.6l.18-8.68Z"/><path id="_Path_79" data-name="&lt;Path&gt;" class="cls-23" d="M270.09,67.86a6.07,6.07,0,0,1,5,1.77c2.16,2.21.95,9.13-1.74,15.91l-4.95.57Z"/><path id="_Path_80" data-name="&lt;Path&gt;" class="cls-20" d="M267,86.11c1,.59,2.41-1.31,3.64-2.59s5.21-3,7.21,1.17-1.76,9.93-4.91,10.92c-5.42,1.7-6.23-1.78-6.23-1.78l-.41,19.55c-4.67,5.22-20.65,4-17.64-.52l0-6s-4.91.75-7.31.38c-4-.62-6.49-3.76-7.7-8.08-1.94-6.93-2.68-12.52-1-26.15,1.8-14.94,19.18-15.09,28.56-9.19S267,86.11,267,86.11Z"/><g id="_Group_24" data-name="&lt;Group&gt;"><g id="_Group_25" data-name="&lt;Group&gt;"><path class="cls-24" d="M253.15,89.53h-.85a5.53,5.53,0,0,1,0-11.06h.85a5.53,5.53,0,1,1,0,11.06ZM252.3,79.4a4.6,4.6,0,0,0,0,9.2h.85a4.6,4.6,0,0,0,0-9.2Z"/></g><g id="_Group_26" data-name="&lt;Group&gt;"><path class="cls-24" d="M236.29,89.53h-.85a5.53,5.53,0,0,1,0-11.06h.85a5.53,5.53,0,1,1,0,11.06Zm-.85-10.13a4.6,4.6,0,0,0,0,9.2h.85a4.6,4.6,0,0,0,0-9.2Z"/></g><g id="_Group_27" data-name="&lt;Group&gt;"><path class="cls-24" d="M246.84,82.91a3.69,3.69,0,0,0-2.93-1.49,3,3,0,0,0-2.54,1l-.75-.56A3.84,3.84,0,0,1,244,80.49a4.53,4.53,0,0,1,3.67,1.93Z"/></g><g id="_Group_28" data-name="&lt;Group&gt;"><rect class="cls-24" x="258.17" y="82.87" width="11.76" height="0.93"/></g></g><path id="_Path_81" data-name="&lt;Path&gt;" class="cls-23" d="M267,87.78c.5,0,2.4-3.14,3.64-4.26,1.71-1.56-.5-15.66-.5-15.66s1.64-3.51-1.65-7.13c-2.35-2.58-6.26-2.87-12.95-3.92-3.51-.55-8.84-1.54-12.34-2.19-4.19-.78-7.65-1.6-10.61,1a7.42,7.42,0,0,0-2,8.31,6.68,6.68,0,0,0,1.19,1.78,7,7,0,0,0,3,2.07s1.83,1.62,8.18,2.39,16.23-.14,17.59-.33c1.84-.25,2.23,1.53,3.22,6.41C264.55,80.5,265.28,87.75,267,87.78Z"/><path id="_Path_82" data-name="&lt;Path&gt;" class="cls-23" d="M270.08,69l6-3.23a3.31,3.31,0,0,0-4.54-1.5A3.59,3.59,0,0,0,270.08,69Z"/><path id="_Path_83" data-name="&lt;Path&gt;" class="cls-25" d="M248.63,106.91s8.9-1.79,12-3.44a10.32,10.32,0,0,0,4.3-4.26,14.12,14.12,0,0,1-2.45,5c-2.27,2.91-13.86,5-13.86,5Z"/></g><g id="_Group_29" data-name="&lt;Group&gt;"><path id="_Path_84" data-name="&lt;Path&gt;" class="cls-26" d="M250.77,83.89a1.81,1.81,0,0,0,1.78,1.85,1.83,1.83,0,0,0,1.78-1.86,1.78,1.78,0,1,0-3.56,0Z"/><path id="_Path_85" data-name="&lt;Path&gt;" class="cls-23" d="M253.63,76.51l3.81,2.1a2.29,2.29,0,0,0-.88-3A2.13,2.13,0,0,0,253.63,76.51Z"/><path id="_Path_86" data-name="&lt;Path&gt;" class="cls-25" d="M249.43,96.2l-4.07,1.53a2.14,2.14,0,0,0,2.77,1.35A2.27,2.27,0,0,0,249.43,96.2Z"/><path id="_Path_87" data-name="&lt;Path&gt;" class="cls-23" d="M234.41,78.07l3.48-2.67a2.11,2.11,0,0,0-3-.47A2.3,2.3,0,0,0,234.41,78.07Z"/><path id="_Path_88" data-name="&lt;Path&gt;" class="cls-26" d="M235.94,83.38a1.78,1.78,0,1,0,1.78-1.86A1.82,1.82,0,0,0,235.94,83.38Z"/><polygon id="_Path_89" data-name="&lt;Path&gt;" class="cls-25" points="244.75 81.95 244.54 92.76 238.15 91.35 244.75 81.95"/></g></g></g><g id="_Group_30" data-name="&lt;Group&gt;"><g id="_Group_31" data-name="&lt;Group&gt;"><g id="_Group_32" data-name="&lt;Group&gt;"><path id="_Path_90" data-name="&lt;Path&gt;" class="cls-14" d="M233.82,171.82v1a2.91,2.91,0,0,1-1.45,2.52l-27.77,16a2.93,2.93,0,0,1-1.46.39,2.87,2.87,0,0,1-1.45-.39l-50.95-29.41a2.91,2.91,0,0,1-1.46-2.52v-.71l53.86,31.09Z"/><path id="_Path_91" data-name="&lt;Path&gt;" class="cls-13" d="M149.28,158.71l30.21-17.44a1.73,1.73,0,0,1,1.73,0l52.41,30.26a.39.39,0,0,1,0,.67l-30.49,17.6Z"/><polygon id="_Path_92" data-name="&lt;Path&gt;" class="cls-14" points="203.42 187.24 219.71 177.84 172.07 150.34 155.69 159.69 203.42 187.24"/><polygon id="_Path_93" data-name="&lt;Path&gt;" class="cls-12" points="211.43 161.1 211.12 161.27 203.14 165.88 188.94 157.68 188.64 157.51 196.93 152.73 211.43 161.1"/><polygon id="_Path_94" data-name="&lt;Path&gt;" class="cls-14" points="211.12 161.27 203.14 165.88 188.94 157.68 196.93 153.07 211.12 161.27"/><path id="_Path_95" data-name="&lt;Path&gt;" class="cls-12" d="M203.14,189.8v1.94a2.87,2.87,0,0,1-1.45-.39l-50.95-29.41a2.91,2.91,0,0,1-1.46-2.52v-.71Z"/><path id="_Path_96" data-name="&lt;Path&gt;" class="cls-13" d="M202.32,190.23a3.44,3.44,0,0,1-3-.23l-50.72-29.28a3.45,3.45,0,0,1-1.67-2.41l-5.56-33.12a3.52,3.52,0,0,1,0-.56,3.43,3.43,0,0,1,1-2.46l52.71,30.44a2.6,2.6,0,0,1,1.24,1.79Z"/><path id="_Path_97" data-name="&lt;Path&gt;" class="cls-3" d="M203.14,189.8l-.35.2a2.92,2.92,0,0,1-.47.23l-6-35.83a2.6,2.6,0,0,0-1.24-1.79l-52.71-30.44a3.39,3.39,0,0,1,.7-.53l52.82,30.49a2.57,2.57,0,0,1,1.24,1.79Z"/><path id="_Path_98" data-name="&lt;Path&gt;" class="cls-4" d="M173.75,159.66c-.37-2.21-2.66-5.16-5.11-6.57s-4.14-.77-3.77,1.45,2.66,5.16,5.11,6.58S174.12,161.88,173.75,159.66Z"/></g></g><path id="_Path_99" data-name="&lt;Path&gt;" class="cls-20" d="M184.14,181.22a18.51,18.51,0,0,0-.85-4.25c-.78-2.45-3.1-11.89-8.4-13.31a3.76,3.76,0,0,0-1.94-.06c-1.47.4-2.14,1.93-2.43,3.3a23.07,23.07,0,0,0,0,6.1,12.09,12.09,0,0,0-2.82-2.37,5.79,5.79,0,0,0-3.25-1.16,1,1,0,0,0-.85.4c-.2.35,0,.79.3,1.1.53.64,1.18,1.18,1.7,1.82a17,17,0,0,1,1.16,1.74c.67,1.08,1.42,2.1,2.17,3.13a22,22,0,0,0,5.33,5.52,20.25,20.25,0,0,0,8,3.19c3.86.48,7.62.42,10.07-.43Z"/></g><g id="_Group_33" data-name="&lt;Group&gt;"><path id="_Path_100" data-name="&lt;Path&gt;" class="cls-20" d="M278.37,119.39c-3.58-1.84-8.79,5.45-7.13,13.07s9.84,34.41,9.84,34.41-37,3.3-40.09,3.69c-2.19.26-4.64-.85-6.67-1.52-2.77-.92-5.55-1.56-8.27-2.56a3.52,3.52,0,0,0-1.52-.32,1.21,1.21,0,0,0-1.11.93,1.67,1.67,0,0,0,.23.89,11.76,11.76,0,0,0,3.81,4.44,16.47,16.47,0,0,1,2.25,1.62c.43.43,1.37,1.62,1,2.27l-14.69,8.45s3.39,2.94,15.63-.49a80.19,80.19,0,0,0,12.86-4.57s43.55,1.81,51.41-.58c2.78-.84,3.79-2.81,1.91-11.77-2.18-10.42-8.35-29.35-9.76-34.32C285,122.17,284.28,122.42,278.37,119.39Z"/><path id="_Path_101" data-name="&lt;Path&gt;" class="cls-21" d="M276.53,117.84s5.89,1.66,8.43,5,12.38,35.67,12.38,35.67a23,23,0,0,1-18.65,5s-7.89-22.35-8.72-28.32C268.44,125.92,273,118.64,276.53,117.84Z"/></g></g><g id="_Group_34" data-name="&lt;Group&gt;"><path id="_Path_102" data-name="&lt;Path&gt;" class="cls-4" d="M67.89,259c-3.13-.79-19.83-10.3-21.53-11.45S41.3,244,41.3,239.92c0-3.66.38-38.06,3.36-54.68A38.66,38.66,0,0,1,61.83,159.9c10.39-6.44,20.83-11.1,29.64-7.45s16.84,10.39,20.3,18.51,5.84,24.38,6.09,30.67,0,27.86,0,29.77-.35,4.41-10.67,10.8-24.57,14.07-29,16.05A16.75,16.75,0,0,1,67.89,259Z"/><path id="_Path_103" data-name="&lt;Path&gt;" class="cls-7" d="M65.31,164.37c-1,.55-3.7-.81-4.11-1.49s-.52-6.58,1.53-9.84,14.9-9.26,18.07-8.82A8.8,8.8,0,0,1,86.69,148c.4.84.83,6.33,0,7.45s-3.76-.6-4-1.08,1-4.49-1.11-5.32c-1.88-.76-10.81,3-14.46,6.09-1.58,1.33-1.5,4.64-1.43,6.27S65.79,164.1,65.31,164.37Z"/><path id="_Path_104" data-name="&lt;Path&gt;" class="cls-7" d="M62.73,203.12c1.85-17.88,5.16-28.32,22.65-36.1s24.26-1.16,26.74,4.8c3.27,8.36,5.5,23.73,5.74,29.81.24,6.29,0,27.86,0,29.77s-.35,4.41-10.67,10.8-24.57,14.07-29,16.05a16.75,16.75,0,0,1-10.33.79,14.3,14.3,0,0,1-2-.79C60.43,251.29,61.05,219.44,62.73,203.12Z"/><path id="_Path_105" data-name="&lt;Path&gt;" class="cls-3" d="M103.49,160c-4.55-2.68-12-4.44-23,.46-19.66,8.76-24.65,19.73-26.63,38.94-.37,3.52-.89,7.72-1.12,12.24l-1.62-1c.23-4.88.69-9,1.11-12.81,2.12-19.4,8-30.12,26.77-38.48,10.39-4.63,17.23-4,21.75-1.75A31.05,31.05,0,0,1,103.49,160Z"/><path id="_Path_106" data-name="&lt;Path&gt;" class="cls-11" d="M104.18,160.53c-4.56-2.67-12.06-4.43-23.05.47-19.67,8.76-24.66,19.73-26.64,38.94-.36,3.52-.89,7.72-1.12,12.24l-1.62-1c.23-4.88.7-9,1.11-12.81,2.13-19.4,8-30.12,26.77-38.49,10.4-4.63,17.42-3.86,21.94-1.58A28.15,28.15,0,0,1,104.18,160.53Z"/><g id="_Group_35" data-name="&lt;Group&gt;"><path id="_Path_107" data-name="&lt;Path&gt;" class="cls-3" d="M97.82,177.53l-5.95-3.39a1.26,1.26,0,0,0-1.73.47L84,185.21A1.29,1.29,0,0,0,84.5,187l5.87,3.42a1.27,1.27,0,0,0,1.74-.46l6.17-10.66A1.25,1.25,0,0,0,97.82,177.53Z"/><path id="_Path_108" data-name="&lt;Path&gt;" class="cls-4" d="M91.44,189.16l5.86-10.1a.64.64,0,0,0-.24-.87l-5.38-3.07a.64.64,0,0,0-.87.24l-5.79,10a.64.64,0,0,0,.23.87l5.32,3.11A.64.64,0,0,0,91.44,189.16Z"/><g id="_Group_36" data-name="&lt;Group&gt;"><path id="_Path_109" data-name="&lt;Path&gt;" class="cls-3" d="M92.7,184.33h0a1.17,1.17,0,0,0,.56-.89v-4.83c0-.32-.25-.42-.56-.24h0a1.16,1.16,0,0,0-.57.89v4.83C92.13,184.4,92.38,184.51,92.7,184.33Z"/><path id="_Path_110" data-name="&lt;Path&gt;" class="cls-3" d="M89.55,186.14h0a1.16,1.16,0,0,0,.56-.89v-4.83c0-.31-.25-.42-.56-.24h0a1.17,1.17,0,0,0-.56.89v4.84C89,186.22,89.24,186.32,89.55,186.14Z"/></g></g><path id="_Path_111" data-name="&lt;Path&gt;" class="cls-3" d="M70.83,218.23s3,2.43,5.07,11.56,3.4,20.65,1.06,22-5.66-1.51-6.49-2.51C68.77,247.27,69.2,225.55,70.83,218.23Z"/><path id="_Path_112" data-name="&lt;Path&gt;" class="cls-4" d="M70.83,218.23s3,2.43,5.07,11.56,3.4,20.65,1.06,22l35.77-21.07c2.34-1.38,2.91-13.47.8-22.61-1.39-6-4-8.87-5.54-10.12a2.28,2.28,0,0,0-2.56-.17l-34.6,20.38"/><path id="_Path_113" data-name="&lt;Path&gt;" class="cls-3" d="M107.23,199.4c1.72.85,4.62,3.17,5.93,9.36a4.67,4.67,0,0,1-1.47,4.7c-1.19.84-26.75,15.38-30.14,17.4-2.93,1.74-4.45-.57-5.09-2h0c-1.07-2.58-2-4.58-2.82-6.12-1.5-3.41-2.81-4.49-2.81-4.49l34.08-18.73A2.42,2.42,0,0,1,107.23,199.4Z"/><g id="_Group_37" data-name="&lt;Group&gt;"><g id="_Group_38" data-name="&lt;Group&gt;"><path id="_Path_114" data-name="&lt;Path&gt;" class="cls-3" d="M53.82,213.22a30.77,30.77,0,0,1,1,5.69c0,.39-.53.6-.68.6a6.87,6.87,0,0,1-3.31-1.73c-.19-.37.88-4.85.88-4.85Z"/></g><g id="_Group_39" data-name="&lt;Group&gt;"><path id="_Path_115" data-name="&lt;Path&gt;" class="cls-3" d="M54.93,211.7a2.07,2.07,0,1,0-2.07,2.07A2.07,2.07,0,0,0,54.93,211.7Z"/></g></g><path id="_Path_116" data-name="&lt;Path&gt;" class="cls-3" d="M80.8,148.93c2.26-.22,4.39,0,4.94,2.26s.34,4.32,0,4.61a5.32,5.32,0,0,1-3.06-1.45c-.26-.48,1-4.49-1.11-5.32a1.89,1.89,0,0,0-.77-.1Z"/><path id="_Path_117" data-name="&lt;Path&gt;" class="cls-4" d="M105.62,197.74a2.44,2.44,0,0,1,2.33-.11c1.71.85,4.61,3.17,5.92,9.36a4.64,4.64,0,0,1-1.46,4.7c-1.19.84-26.76,15.38-30.15,17.4-2.92,1.75-4.44-.57-5.08-2h0c-3.54-7.4-6.35-8.84-6.35-8.84Z"/></g><g id="_Group_40" data-name="&lt;Group&gt;"><g id="_Group_41" data-name="&lt;Group&gt;"><path id="_Path_118" data-name="&lt;Path&gt;" class="cls-14" d="M108,308.79,81.5,293.51a5.26,5.26,0,0,1-2.38-4.12v.3a5.27,5.27,0,0,1,2.37-4.12l53.25-30.74a5.25,5.25,0,0,1,4.76,0L166,270.12a5.25,5.25,0,0,1,2.38,4.11v-.3a5.24,5.24,0,0,1-2.38,4.12l-53.25,30.74A5.23,5.23,0,0,1,108,308.79Z"/><path id="_Path_119" data-name="&lt;Path&gt;" class="cls-12" d="M110.34,268.91,81.48,285.57a5.27,5.27,0,0,0-2.37,4.12v-.3a5.26,5.26,0,0,0,2.38,4.12L108,308.79a4.8,4.8,0,0,0,2.37.57Z"/><path id="_Path_120" data-name="&lt;Path&gt;" class="cls-13" d="M81.48,288.32,108,303.61a5.32,5.32,0,0,0,4.76,0L166,272.86c1.31-.76,1.31-2,0-2.74l-26.48-15.29a5.25,5.25,0,0,0-4.76,0L81.48,285.57C80.17,286.33,80.17,287.56,81.48,288.32Z"/></g><path id="_Path_121" data-name="&lt;Path&gt;" class="cls-17" d="M81.48,283.29v2.54L109,301.7a2.74,2.74,0,0,0,2.74,0L166,270.37v-2.62l-55.63,27Z"/><g id="_Group_42" data-name="&lt;Group&gt;"><path id="_Path_122" data-name="&lt;Path&gt;" class="cls-14" d="M108,298.58,81.48,283.29a5.26,5.26,0,0,1-2.37-4.12v-4.89a5.26,5.26,0,0,1,2.37-4.12l53.25-30.75a5.25,5.25,0,0,1,4.76,0L166,254.7a5.27,5.27,0,0,1,2.38,4.12v4.9a5.12,5.12,0,0,1-2.38,4l-53.25,30.83A5.25,5.25,0,0,1,108,298.58Z"/><path id="_Path_123" data-name="&lt;Path&gt;" class="cls-12" d="M110.34,253.5,81.48,270.16a5.26,5.26,0,0,0-2.37,4.12v4.89a5.26,5.26,0,0,0,2.37,4.12L108,298.58a4.87,4.87,0,0,0,2.38.57Z"/><path id="_Path_124" data-name="&lt;Path&gt;" class="cls-13" d="M81.48,272.9,108,288.19a5.25,5.25,0,0,0,4.76,0L166,257.45c1.31-.76,1.31-2,0-2.75l-26.48-15.29a5.25,5.25,0,0,0-4.76,0L81.48,270.16C80.17,270.92,80.17,272.15,81.48,272.9Z"/></g><path id="_Path_125" data-name="&lt;Path&gt;" class="cls-17" d="M118.42,260.75c-2.94,1.7-2.94,4.43,0,6.11a11.82,11.82,0,0,0,10.62,0c2.93-1.68,2.93-4.41,0-6.11A11.76,11.76,0,0,0,118.42,260.75Z"/><path id="_Path_126" data-name="&lt;Path&gt;" class="cls-17" d="M161.65,262.54a2.05,2.05,0,0,0-.92,1.62c0,.6.41.85.92.56a2,2,0,0,0,.93-1.62C162.58,262.5,162.17,262.25,161.65,262.54Z"/><path id="_Path_127" data-name="&lt;Path&gt;" class="cls-17" d="M161.65,266.13a2.05,2.05,0,0,0-.92,1.62c0,.6.41.85.92.56a2,2,0,0,0,.93-1.62C162.58,266.09,162.17,265.84,161.65,266.13Z"/><g id="_Group_43" data-name="&lt;Group&gt;"><path class="cls-17" d="M96.87,329a.76.76,0,0,1-.35-.09L70.87,314a4.38,4.38,0,0,1,0-7.58l18.81-10.86a.7.7,0,1,1,.69,1.21L71.58,307.6a3,3,0,0,0,0,5.16l25.66,14.89a.7.7,0,0,1,.25,1A.68.68,0,0,1,96.87,329Z"/></g><g id="_Group_44" data-name="&lt;Group&gt;"><path id="_Path_128" data-name="&lt;Path&gt;" class="cls-12" d="M129,314.6l-5.57-22.32a5,5,0,0,0-.3-.9l1.62-.23-3.53-2h0a4.62,4.62,0,0,0-4.77.21L93.28,302.76a12.1,12.1,0,0,0-5.46,9.48v26.84c0,2.14.52,3.61,1.59,4.12h0l3.32,1.92-.8-2.12.17-.07c3.82-1.82,5.2-5.14,6.34-8.43l4.41-12.75c1.13-3.29,4-7.06,6.34-8.43s5.67,0,7.4,3l2.21,3.88a7.36,7.36,0,0,0,2.94,2.9h0l3.39,2-.86-1.34a3.94,3.94,0,0,0,2-.54C128.61,321.84,129.86,318,129,314.6Z"/><path id="_Path_129" data-name="&lt;Path&gt;" class="cls-13" d="M123.15,291.38l1.62-.23-3.53-2h0a4.62,4.62,0,0,0-4.77.21L93.28,302.76A10.67,10.67,0,0,0,90,305.91l5.52,3.36,28.17-15.92-.27-1.07A5,5,0,0,0,123.15,291.38Z"/><g id="_Group_45" data-name="&lt;Group&gt;"><path id="_Path_130" data-name="&lt;Path&gt;" class="cls-14" d="M129.84,325.3c-2.38,1.37-5.71,0-7.43-3l-2.22-3.88c-1.72-3-5-4.37-7.4-3s-5.2,5.13-6.34,8.43L102,336.58c-1.14,3.29-2.52,6.61-6.33,8.43-2.89,1.38-4.28-.36-4.28-3.84V314.32a12.11,12.11,0,0,1,5.45-9.47l23.2-13.45a4.48,4.48,0,0,1,7,3l5.56,22.33C133.46,320.07,132.22,323.93,129.84,325.3Z"/><polygon id="_Path_131" data-name="&lt;Path&gt;" class="cls-18" points="120.85 299.13 121.43 302.42 123.99 300.78 124.57 304.07 122.01 305.72 122.59 309.01 120.03 310.65 119.45 307.36 116.89 309.01 116.31 305.71 118.87 304.07 118.29 300.78 120.85 299.13"/><polygon id="_Path_132" data-name="&lt;Path&gt;" class="cls-19" points="120.85 299.13 121.43 302.42 123.99 300.78 124.57 304.07 122.01 305.72 122.59 309.01 120.03 310.65 119.45 307.36 116.89 309.01 116.31 305.71 118.87 304.07 118.29 300.78 120.85 299.13"/><polygon id="_Path_133" data-name="&lt;Path&gt;" class="cls-17" points="121.59 299.52 122.17 302.81 124.73 301.17 125.31 304.46 122.75 306.11 123.33 309.4 120.77 311.04 120.19 307.75 117.63 309.39 117.05 306.1 119.61 304.46 119.03 301.17 121.59 299.52"/><g id="_Group_46" data-name="&lt;Group&gt;"><g id="_Group_47" data-name="&lt;Group&gt;"><path id="_Path_134" data-name="&lt;Path&gt;" class="cls-18" d="M101.44,310.78a2.61,2.61,0,0,1-1,2.47c-.7.45-1.41.08-1.57-.83a2.62,2.62,0,0,1,1-2.47C100.58,309.5,101.28,309.87,101.44,310.78Z"/><path id="_Path_135" data-name="&lt;Path&gt;" class="cls-18" d="M102.6,317.36a2.6,2.6,0,0,1-1,2.47c-.7.45-1.4.08-1.57-.82a2.61,2.61,0,0,1,1-2.47C101.74,316.08,102.44,316.45,102.6,317.36Z"/><path id="_Path_136" data-name="&lt;Path&gt;" class="cls-18" d="M104.59,312.42a2.61,2.61,0,0,1-1,2.47c-.71.46-1.41.09-1.57-.82a2.59,2.59,0,0,1,1-2.47C103.72,311.15,104.43,311.51,104.59,312.42Z"/><path id="_Path_137" data-name="&lt;Path&gt;" class="cls-18" d="M99.47,315.71a2.61,2.61,0,0,1-1,2.47c-.71.46-1.41.09-1.57-.82a2.6,2.6,0,0,1,1-2.47C98.6,314.44,99.31,314.8,99.47,315.71Z"/></g><path class="cls-18" d="M101.5,310.81a2.62,2.62,0,0,1-1,2.47c-.71.45-1.41.09-1.57-.82a2.59,2.59,0,0,1,1-2.47C100.63,309.53,101.34,309.9,101.5,310.81Z"/><path class="cls-18" d="M102.66,317.39a2.61,2.61,0,0,1-1,2.47c-.71.46-1.41.09-1.57-.82a2.59,2.59,0,0,1,1-2.47C101.79,316.12,102.5,316.48,102.66,317.39Z"/><path class="cls-18" d="M104.64,312.46a2.59,2.59,0,0,1-1,2.46c-.71.46-1.41.09-1.57-.82a2.6,2.6,0,0,1,1-2.47C103.78,311.18,104.48,311.55,104.64,312.46Z"/><path class="cls-18" d="M99.52,315.75a2.6,2.6,0,0,1-1,2.47c-.71.45-1.41.08-1.57-.83a2.61,2.61,0,0,1,1-2.47C98.66,314.47,99.36,314.84,99.52,315.75Z"/><path class="cls-18" d="M101.55,310.84a2.59,2.59,0,0,1-1,2.47c-.71.46-1.41.09-1.57-.82a2.6,2.6,0,0,1,1-2.47C100.69,309.57,101.39,309.93,101.55,310.84Z"/><path class="cls-18" d="M102.71,317.43a2.59,2.59,0,0,1-1,2.46c-.71.46-1.41.09-1.57-.82a2.6,2.6,0,0,1,1-2.47C101.85,316.15,102.55,316.52,102.71,317.43Z"/><path class="cls-18" d="M104.69,312.49a2.6,2.6,0,0,1-1,2.47c-.7.45-1.41.09-1.57-.82a2.61,2.61,0,0,1,1-2.47C103.83,311.21,104.53,311.58,104.69,312.49Z"/><path class="cls-18" d="M99.57,315.78a2.6,2.6,0,0,1-1,2.47c-.7.45-1.41.09-1.57-.82A2.61,2.61,0,0,1,98,315C98.71,314.5,99.41,314.87,99.57,315.78Z"/><path class="cls-18" d="M101.6,310.88a2.6,2.6,0,0,1-1,2.47c-.7.45-1.41.08-1.57-.83a2.61,2.61,0,0,1,1-2.46C100.74,309.6,101.44,310,101.6,310.88Z"/><path class="cls-18" d="M102.76,317.46a2.6,2.6,0,0,1-1,2.47c-.7.45-1.41.08-1.57-.82a2.61,2.61,0,0,1,1-2.47C101.9,316.18,102.6,316.55,102.76,317.46Z"/><path class="cls-18" d="M104.74,312.52a2.59,2.59,0,0,1-1,2.47c-.71.46-1.41.09-1.57-.82a2.62,2.62,0,0,1,1-2.47C103.88,311.25,104.58,311.61,104.74,312.52Z"/><path class="cls-18" d="M99.63,315.81a2.61,2.61,0,0,1-1,2.47c-.71.46-1.41.09-1.57-.82a2.6,2.6,0,0,1,1-2.47C98.76,314.54,99.47,314.9,99.63,315.81Z"/><path class="cls-18" d="M101.66,310.91a2.62,2.62,0,0,1-1,2.47c-.71.45-1.41.09-1.57-.82a2.59,2.59,0,0,1,1-2.47C100.79,309.63,101.5,310,101.66,310.91Z"/><path class="cls-18" d="M102.82,317.49a2.61,2.61,0,0,1-1,2.47c-.71.46-1.41.09-1.57-.82a2.6,2.6,0,0,1,1-2.47C102,316.22,102.66,316.58,102.82,317.49Z"/><path class="cls-18" d="M104.8,312.56a2.63,2.63,0,0,1-1,2.47c-.71.45-1.41.08-1.57-.83a2.6,2.6,0,0,1,1-2.47C103.93,311.28,104.64,311.65,104.8,312.56Z"/><path class="cls-18" d="M99.68,315.85a2.6,2.6,0,0,1-1,2.47c-.71.45-1.41.08-1.57-.83a2.59,2.59,0,0,1,1-2.46C98.82,314.57,99.52,314.94,99.68,315.85Z"/><path class="cls-18" d="M101.71,310.94a2.59,2.59,0,0,1-1,2.47c-.71.46-1.41.09-1.57-.82a2.6,2.6,0,0,1,1-2.47C100.85,309.67,101.55,310,101.71,310.94Z"/><path class="cls-18" d="M102.87,317.53a2.61,2.61,0,0,1-1,2.47c-.71.45-1.41.08-1.57-.83a2.6,2.6,0,0,1,1-2.47C102,316.25,102.71,316.62,102.87,317.53Z"/><path class="cls-18" d="M104.85,312.59a2.6,2.6,0,0,1-1,2.47c-.71.45-1.41.09-1.57-.82a2.59,2.59,0,0,1,1-2.47C104,311.31,104.69,311.68,104.85,312.59Z"/><path class="cls-18" d="M99.73,315.88a2.6,2.6,0,0,1-1,2.47c-.7.45-1.41.09-1.57-.82a2.61,2.61,0,0,1,1-2.47C98.87,314.6,99.57,315,99.73,315.88Z"/><path class="cls-18" d="M101.76,311a2.6,2.6,0,0,1-1,2.47c-.7.45-1.41.08-1.57-.82a2.61,2.61,0,0,1,1-2.47C100.9,309.7,101.6,310.07,101.76,311Z"/><path class="cls-18" d="M102.92,317.56a2.6,2.6,0,0,1-1,2.47c-.7.45-1.41.09-1.57-.82a2.61,2.61,0,0,1,1-2.47C102.06,316.28,102.76,316.65,102.92,317.56Z"/><path class="cls-18" d="M104.9,312.62a2.59,2.59,0,0,1-1,2.47c-.7.46-1.41.09-1.57-.82a2.62,2.62,0,0,1,1-2.47C104,311.35,104.74,311.71,104.9,312.62Z"/><path class="cls-18" d="M99.79,315.91a2.61,2.61,0,0,1-1,2.47c-.71.46-1.41.09-1.57-.82a2.6,2.6,0,0,1,1-2.47C98.92,314.64,99.62,315,99.79,315.91Z"/><path class="cls-18" d="M101.81,311a2.61,2.61,0,0,1-1,2.47c-.71.46-1.41.09-1.57-.82a2.59,2.59,0,0,1,1-2.47C101,309.73,101.65,310.1,101.81,311Z"/><path class="cls-18" d="M103,317.59a2.61,2.61,0,0,1-1,2.47c-.71.46-1.41.09-1.57-.82a2.6,2.6,0,0,1,1-2.47C102.11,316.32,102.82,316.68,103,317.59Z"/><path class="cls-18" d="M105,312.66a2.62,2.62,0,0,1-1,2.47c-.71.45-1.41.08-1.57-.83a2.59,2.59,0,0,1,1-2.46C104.09,311.38,104.8,311.75,105,312.66Z"/><path class="cls-18" d="M99.84,316a2.6,2.6,0,0,1-1,2.47c-.71.45-1.41.08-1.57-.82a2.59,2.59,0,0,1,1-2.47C99,314.67,99.68,315,99.84,316Z"/><path class="cls-18" d="M101.87,311.05a2.61,2.61,0,0,1-1,2.46c-.71.46-1.41.09-1.57-.82a2.6,2.6,0,0,1,1-2.47C101,309.77,101.71,310.14,101.87,311.05Z"/><path class="cls-18" d="M103,317.63a2.6,2.6,0,0,1-1,2.47c-.71.45-1.41.08-1.57-.83a2.59,2.59,0,0,1,1-2.46C102.17,316.35,102.87,316.72,103,317.63Z"/><path class="cls-18" d="M105,312.69a2.6,2.6,0,0,1-1,2.47c-.71.45-1.41.09-1.57-.82a2.59,2.59,0,0,1,1-2.47C104.15,311.41,104.85,311.78,105,312.69Z"/><path class="cls-18" d="M99.89,316a2.59,2.59,0,0,1-1,2.47c-.71.46-1.41.09-1.57-.82a2.59,2.59,0,0,1,1-2.47C99,314.7,99.73,315.07,99.89,316Z"/><path class="cls-18" d="M101.92,311.08a2.6,2.6,0,0,1-1,2.47c-.71.45-1.41.08-1.57-.82a2.59,2.59,0,0,1,1-2.47C101.06,309.8,101.76,310.17,101.92,311.08Z"/><path class="cls-18" d="M103.08,317.66a2.6,2.6,0,0,1-1,2.47c-.71.45-1.41.09-1.57-.82a2.59,2.59,0,0,1,1-2.47C102.22,316.38,102.92,316.75,103.08,317.66Z"/><path class="cls-18" d="M105.06,312.72a2.59,2.59,0,0,1-1,2.47c-.7.46-1.41.09-1.57-.82a2.62,2.62,0,0,1,1-2.47C104.2,311.45,104.9,311.82,105.06,312.72Z"/><path class="cls-18" d="M99.94,316a2.59,2.59,0,0,1-1,2.46c-.7.46-1.41.09-1.57-.82a2.62,2.62,0,0,1,1-2.47C99.08,314.74,99.78,315.11,99.94,316Z"/><path class="cls-18" d="M102,311.11a2.59,2.59,0,0,1-1,2.47c-.7.46-1.41.09-1.57-.82a2.62,2.62,0,0,1,1-2.47C101.11,309.84,101.81,310.2,102,311.11Z"/><path class="cls-18" d="M103.13,317.69a2.59,2.59,0,0,1-1,2.47c-.7.46-1.41.09-1.57-.82a2.62,2.62,0,0,1,1-2.47C102.27,316.42,103,316.79,103.13,317.69Z"/><path class="cls-18" d="M105.12,312.76a2.62,2.62,0,0,1-1,2.47c-.71.45-1.41.08-1.57-.82a2.59,2.59,0,0,1,1-2.47C104.25,311.48,105,311.85,105.12,312.76Z"/><path class="cls-18" d="M100,316.05a2.62,2.62,0,0,1-1,2.47c-.71.45-1.41.08-1.57-.82a2.59,2.59,0,0,1,1-2.47C99.13,314.77,99.84,315.14,100,316.05Z"/><g id="_Group_48" data-name="&lt;Group&gt;"><path id="_Path_138" data-name="&lt;Path&gt;" class="cls-18" d="M102,311.15a2.63,2.63,0,0,1-1,2.47c-.71.45-1.41.08-1.57-.83a2.6,2.6,0,0,1,1-2.47C101.16,309.87,101.87,310.24,102,311.15Z"/><path id="_Path_139" data-name="&lt;Path&gt;" class="cls-18" d="M103.19,317.73a2.62,2.62,0,0,1-1,2.47c-.71.45-1.41.08-1.57-.82a2.59,2.59,0,0,1,1-2.47C102.32,316.45,103,316.82,103.19,317.73Z"/><path id="_Path_140" data-name="&lt;Path&gt;" class="cls-18" d="M105.17,312.79a2.59,2.59,0,0,1-1,2.47c-.71.46-1.41.09-1.57-.82a2.59,2.59,0,0,1,1-2.47C104.31,311.51,105,311.88,105.17,312.79Z"/><path id="_Path_141" data-name="&lt;Path&gt;" class="cls-18" d="M100.05,316.08a2.59,2.59,0,0,1-1,2.47c-.71.46-1.41.09-1.57-.82a2.6,2.6,0,0,1,1-2.47C99.19,314.81,99.89,315.17,100.05,316.08Z"/></g></g><polygon id="_Path_142" data-name="&lt;Path&gt;" class="cls-18" points="120.85 299.13 121.59 299.52 119.03 301.17 118.29 300.78 120.85 299.13"/><polygon id="_Path_143" data-name="&lt;Path&gt;" class="cls-18" points="118.87 304.07 119.61 304.46 117.05 306.1 116.31 305.71 118.87 304.07"/><polygon id="_Path_144" data-name="&lt;Path&gt;" class="cls-18" points="122.17 302.81 122.03 302.04 123.99 300.78 124.73 301.17 122.17 302.81"/><polygon id="_Path_145" data-name="&lt;Path&gt;" class="cls-18" points="116.31 305.71 117.05 306.1 117.63 309.39 116.89 309.01 116.31 305.71"/><polygon id="_Path_146" data-name="&lt;Path&gt;" class="cls-19" points="116.31 305.71 117.05 306.1 117.63 309.39 116.89 309.01 116.31 305.71"/><polygon id="_Path_147" data-name="&lt;Path&gt;" class="cls-18" points="120.03 310.65 120.77 311.04 120.19 307.75 119.59 308.14 120.03 310.65"/><g id="_Group_49" data-name="&lt;Group&gt;"><path id="_Path_148" data-name="&lt;Path&gt;" class="cls-17" d="M102,311.15a2.63,2.63,0,0,1-1,2.47c-.71.45-1.41.08-1.57-.83a2.6,2.6,0,0,1,1-2.47C101.16,309.87,101.87,310.24,102,311.15Z"/><path id="_Path_149" data-name="&lt;Path&gt;" class="cls-17" d="M103.19,317.73a2.62,2.62,0,0,1-1,2.47c-.71.45-1.41.08-1.57-.82a2.59,2.59,0,0,1,1-2.47C102.32,316.45,103,316.82,103.19,317.73Z"/><path id="_Path_150" data-name="&lt;Path&gt;" class="cls-17" d="M105.17,312.79a2.59,2.59,0,0,1-1,2.47c-.71.46-1.41.09-1.57-.82a2.59,2.59,0,0,1,1-2.47C104.31,311.51,105,311.88,105.17,312.79Z"/><path id="_Path_151" data-name="&lt;Path&gt;" class="cls-17" d="M100.05,316.08a2.59,2.59,0,0,1-1,2.47c-.71.46-1.41.09-1.57-.82a2.6,2.6,0,0,1,1-2.47C99.19,314.81,99.89,315.17,100.05,316.08Z"/></g></g></g></g><path id="_Path_152" data-name="&lt;Path&gt;" class="cls-4" d="M126.63,31.69l-10.75,6.2a13.71,13.71,0,0,0,.09-1.42V33.36c0-5.54-3.89-7.79-8.69-5a16.86,16.86,0,0,0-5.18,5c-.78-7-6.25-9.56-12.89-5.73-7.18,4.15-13,14.23-13,22.51v4.66a12.18,12.18,0,0,0,1.1,5.4l-8.93,5.15a10.67,10.67,0,0,0-4.82,8.35c0,3.07,2.16,4.32,4.82,2.78l58.24-33.62a10.67,10.67,0,0,0,4.82-8.35C131.45,31.4,129.29,30.15,126.63,31.69Z"/></g></g></g></g></svg>